G04 #@! TF.GenerationSoftware,KiCad,Pcbnew,9.0.3*
G04 #@! TF.CreationDate,2025-08-11T22:09:38-04:00*
G04 #@! TF.ProjectId,Class D Amplifier,436c6173-7320-4442-9041-6d706c696669,rev?*
G04 #@! TF.SameCoordinates,Original*
G04 #@! TF.FileFunction,Soldermask,Bot*
G04 #@! TF.FilePolarity,Negative*
%FSLAX46Y46*%
G04 Gerber Fmt 4.6, Leading zero omitted, Abs format (unit mm)*
G04 Created by KiCad (PCBNEW 9.0.3) date 2025-08-11 22:09:38*
%MOMM*%
%LPD*%
G01*
G04 APERTURE LIST*
G04 Aperture macros list*
%AMRoundRect*
0 Rectangle with rounded corners*
0 $1 Rounding radius*
0 $2 $3 $4 $5 $6 $7 $8 $9 X,Y pos of 4 corners*
0 Add a 4 corners polygon primitive as box body*
4,1,4,$2,$3,$4,$5,$6,$7,$8,$9,$2,$3,0*
0 Add four circle primitives for the rounded corners*
1,1,$1+$1,$2,$3*
1,1,$1+$1,$4,$5*
1,1,$1+$1,$6,$7*
1,1,$1+$1,$8,$9*
0 Add four rect primitives between the rounded corners*
20,1,$1+$1,$2,$3,$4,$5,0*
20,1,$1+$1,$4,$5,$6,$7,0*
20,1,$1+$1,$6,$7,$8,$9,0*
20,1,$1+$1,$8,$9,$2,$3,0*%
G04 Aperture macros list end*
%ADD10RoundRect,0.250000X0.550000X-0.550000X0.550000X0.550000X-0.550000X0.550000X-0.550000X-0.550000X0*%
%ADD11C,1.600000*%
%ADD12RoundRect,0.250000X0.750000X0.750000X-0.750000X0.750000X-0.750000X-0.750000X0.750000X-0.750000X0*%
%ADD13C,2.000000*%
%ADD14R,3.000000X3.000000*%
%ADD15C,3.000000*%
%ADD16RoundRect,0.450000X-0.450000X0.450000X-0.450000X-0.450000X0.450000X-0.450000X0.450000X0.450000X0*%
%ADD17C,1.800000*%
%ADD18R,2.000000X4.000000*%
%ADD19O,2.000000X3.300000*%
%ADD20O,3.500000X2.000000*%
%ADD21O,2.400000X1.600000*%
%ADD22RoundRect,0.250000X-0.550000X0.550000X-0.550000X-0.550000X0.550000X-0.550000X0.550000X0.550000X0*%
G04 APERTURE END LIST*
D10*
G04 #@! TO.C,C8*
X74900000Y-76182380D03*
D11*
X74900000Y-73682380D03*
G04 #@! TD*
D12*
G04 #@! TO.C,C42*
X53267677Y-63900000D03*
D13*
X48267677Y-63900000D03*
G04 #@! TD*
D14*
G04 #@! TO.C,J4*
X95900000Y-60040000D03*
D15*
X95900000Y-54960000D03*
G04 #@! TD*
D14*
G04 #@! TO.C,J5*
X69700000Y-43400000D03*
D15*
X64620000Y-43400000D03*
G04 #@! TD*
D16*
G04 #@! TO.C,RV1*
X44500000Y-91000000D03*
D17*
X47000000Y-91000000D03*
X49500000Y-91000000D03*
X44500000Y-88500000D03*
X47000000Y-88500000D03*
X49500000Y-88500000D03*
G04 #@! TD*
D11*
G04 #@! TO.C,C32*
X59900000Y-59200000D03*
X59900000Y-64200000D03*
G04 #@! TD*
G04 #@! TO.C,C31*
X64000000Y-59200000D03*
X64000000Y-64200000D03*
G04 #@! TD*
G04 #@! TO.C,C30*
X59900000Y-51600000D03*
X59900000Y-56600000D03*
G04 #@! TD*
G04 #@! TO.C,C29*
X64000000Y-51600000D03*
X64000000Y-56600000D03*
G04 #@! TD*
G04 #@! TO.C,J3*
X96700000Y-45900000D03*
D18*
X87700000Y-45900000D03*
D19*
X93700000Y-45900000D03*
D20*
X94700000Y-50400000D03*
X94700000Y-41400000D03*
G04 #@! TD*
D21*
G04 #@! TO.C,J2*
X47050000Y-75900000D03*
X39550000Y-81050000D03*
X39550000Y-75350000D03*
X47050000Y-80500000D03*
G04 #@! TD*
D14*
G04 #@! TO.C,J1*
X37800000Y-57020000D03*
D15*
X37800000Y-62100000D03*
X37800000Y-67180000D03*
G04 #@! TD*
D14*
G04 #@! TO.C,J6*
X59140000Y-43400000D03*
D15*
X54060000Y-43400000D03*
G04 #@! TD*
D12*
G04 #@! TO.C,C41*
X76367677Y-63900000D03*
D13*
X71367677Y-63900000D03*
G04 #@! TD*
D22*
G04 #@! TO.C,C11*
X87700000Y-54400000D03*
D11*
X87700000Y-56900000D03*
G04 #@! TD*
D21*
G04 #@! TO.C,J7*
X86800000Y-93500000D03*
X94300000Y-88350000D03*
X94300000Y-94050000D03*
X86800000Y-88900000D03*
G04 #@! TD*
M02*
