%TF.GenerationSoftware,KiCad,Pcbnew,9.0.3*%
%TF.CreationDate,2025-08-11T22:09:38-04:00*%
%TF.ProjectId,Class D Amplifier,436c6173-7320-4442-9041-6d706c696669,rev?*%
%TF.SameCoordinates,Original*%
%TF.FileFunction,Drillmap*%
%TF.FilePolarity,Positive*%
%FSLAX45Y45*%
G04 Gerber Fmt 4.5, Leading zero omitted, Abs format (unit mm)*
G04 Created by KiCad (PCBNEW 9.0.3) date 2025-08-11 22:09:38*
%MOMM*%
%LPD*%
G01*
G04 APERTURE LIST*
%ADD10C,0.050000*%
%ADD11C,0.000000*%
%ADD12C,0.200000*%
%ADD13C,0.100000*%
%ADD14C,0.120000*%
%ADD15C,0.152000*%
G04 APERTURE END LIST*
D10*
X3480000Y-9733934D02*
G75*
G02*
X3329996Y-9583934I0J150004D01*
G01*
X9910000Y-9733930D02*
X3480000Y-9733934D01*
X3480000Y-3930000D02*
X9910000Y-3930000D01*
X9910000Y-3930000D02*
G75*
G02*
X10060000Y-4080000I0J-150000D01*
G01*
X10060000Y-9583930D02*
X10060000Y-4080000D01*
X3330000Y-4080000D02*
G75*
G02*
X3480000Y-3930000I150000J0D01*
G01*
X3330000Y-9583934D02*
X3330000Y-4080000D01*
X10060000Y-9583934D02*
G75*
G02*
X9910000Y-9733930I-150000J4D01*
G01*
D11*
G36*
X4323869Y-7507849D02*
G01*
X4335641Y-7512725D01*
X4346236Y-7519804D01*
X4355246Y-7528814D01*
X4362325Y-7539409D01*
X4367201Y-7551181D01*
X4369687Y-7563679D01*
X4369687Y-7576421D01*
X4367201Y-7588918D01*
X4362325Y-7600691D01*
X4355246Y-7611286D01*
X4346236Y-7620296D01*
X4335641Y-7627375D01*
X4323869Y-7632251D01*
X4311371Y-7634737D01*
X4298629Y-7634737D01*
X4286132Y-7632251D01*
X4274359Y-7627375D01*
X4263764Y-7620296D01*
X4254754Y-7611286D01*
X4247675Y-7600691D01*
X4242799Y-7588918D01*
X4240313Y-7576421D01*
X4240313Y-7563679D01*
X4242799Y-7551181D01*
X4247675Y-7539409D01*
X4254754Y-7528814D01*
X4263764Y-7519804D01*
X4274359Y-7512725D01*
X4286132Y-7507849D01*
X4298629Y-7505363D01*
X4311371Y-7505363D01*
X4323869Y-7507849D01*
G37*
G36*
X4323869Y-8007749D02*
G01*
X4335641Y-8012625D01*
X4346236Y-8019704D01*
X4355246Y-8028714D01*
X4362325Y-8039309D01*
X4367201Y-8051081D01*
X4369687Y-8063579D01*
X4369687Y-8076321D01*
X4367201Y-8088818D01*
X4362325Y-8100591D01*
X4355246Y-8111186D01*
X4346236Y-8120196D01*
X4335641Y-8127275D01*
X4323869Y-8132151D01*
X4311371Y-8134637D01*
X4298629Y-8134637D01*
X4286132Y-8132151D01*
X4274359Y-8127275D01*
X4263764Y-8120196D01*
X4254754Y-8111186D01*
X4247675Y-8100591D01*
X4242799Y-8088818D01*
X4240313Y-8076321D01*
X4240313Y-8063579D01*
X4242799Y-8051081D01*
X4247675Y-8039309D01*
X4254754Y-8028714D01*
X4263764Y-8019704D01*
X4274359Y-8012625D01*
X4286132Y-8007749D01*
X4298629Y-8005263D01*
X4311371Y-8005263D01*
X4323869Y-8007749D01*
G37*
G36*
X9098869Y-8807849D02*
G01*
X9110641Y-8812725D01*
X9121236Y-8819804D01*
X9130246Y-8828814D01*
X9137325Y-8839409D01*
X9142201Y-8851182D01*
X9144687Y-8863679D01*
X9144687Y-8876421D01*
X9142201Y-8888919D01*
X9137325Y-8900691D01*
X9130246Y-8911286D01*
X9121236Y-8920296D01*
X9110641Y-8927375D01*
X9098869Y-8932251D01*
X9086371Y-8934737D01*
X9073629Y-8934737D01*
X9061132Y-8932251D01*
X9049359Y-8927375D01*
X9038764Y-8920296D01*
X9029754Y-8911286D01*
X9022675Y-8900691D01*
X9017799Y-8888919D01*
X9015313Y-8876421D01*
X9015313Y-8863679D01*
X9017799Y-8851182D01*
X9022675Y-8839409D01*
X9029754Y-8828814D01*
X9038764Y-8819804D01*
X9049359Y-8812725D01*
X9061132Y-8807849D01*
X9073629Y-8805363D01*
X9086371Y-8805363D01*
X9098869Y-8807849D01*
G37*
G36*
X9098869Y-9307749D02*
G01*
X9110641Y-9312625D01*
X9121236Y-9319704D01*
X9130246Y-9328714D01*
X9137325Y-9339309D01*
X9142201Y-9351082D01*
X9144687Y-9363579D01*
X9144687Y-9376321D01*
X9142201Y-9388819D01*
X9137325Y-9400591D01*
X9130246Y-9411186D01*
X9121236Y-9420196D01*
X9110641Y-9427275D01*
X9098869Y-9432151D01*
X9086371Y-9434637D01*
X9073629Y-9434637D01*
X9061132Y-9432151D01*
X9049359Y-9427275D01*
X9038764Y-9420196D01*
X9029754Y-9411186D01*
X9022675Y-9400591D01*
X9017799Y-9388819D01*
X9015313Y-9376321D01*
X9015313Y-9363579D01*
X9017799Y-9351082D01*
X9022675Y-9339309D01*
X9029754Y-9328714D01*
X9038764Y-9319704D01*
X9049359Y-9312625D01*
X9061132Y-9307749D01*
X9073629Y-9305263D01*
X9086371Y-9305263D01*
X9098869Y-9307749D01*
G37*
D12*
D13*
X4015000Y-6085000D02*
X4045000Y-6115000D01*
X4045000Y-6085000D02*
X4015000Y-6115000D01*
X4025000Y-6325000D02*
X4055000Y-6355000D01*
X4055000Y-6325000D02*
X4025000Y-6355000D01*
X4205000Y-8395000D02*
X4235000Y-8425000D01*
X4235000Y-8395000D02*
X4205000Y-8425000D01*
X4315000Y-8685000D02*
X4345000Y-8715000D01*
X4345000Y-8685000D02*
X4315000Y-8715000D01*
X4455000Y-6285000D02*
X4485000Y-6315000D01*
X4485000Y-6285000D02*
X4455000Y-6315000D01*
X4465000Y-8665000D02*
X4495000Y-8695000D01*
X4495000Y-8665000D02*
X4465000Y-8695000D01*
X4505000Y-6605000D02*
X4535000Y-6635000D01*
X4535000Y-6605000D02*
X4505000Y-6635000D01*
X4555000Y-8395000D02*
X4585000Y-8425000D01*
X4585000Y-8395000D02*
X4555000Y-8425000D01*
X4585000Y-4285000D02*
X4615000Y-4315000D01*
X4615000Y-4285000D02*
X4585000Y-4315000D01*
X4585000Y-5025000D02*
X4615000Y-5055000D01*
X4615000Y-5025000D02*
X4585000Y-5055000D01*
X4735000Y-7395000D02*
X4765000Y-7425000D01*
X4765000Y-7395000D02*
X4735000Y-7425000D01*
X4875000Y-7435000D02*
X4905000Y-7465000D01*
X4905000Y-7435000D02*
X4875000Y-7465000D01*
X5035000Y-9225000D02*
X5065000Y-9255000D01*
X5065000Y-9225000D02*
X5035000Y-9255000D01*
X5105000Y-9075000D02*
X5135000Y-9105000D01*
X5135000Y-9075000D02*
X5105000Y-9105000D01*
X5105000Y-9185000D02*
X5135000Y-9215000D01*
X5135000Y-9185000D02*
X5105000Y-9215000D01*
X5205000Y-7015000D02*
X5235000Y-7045000D01*
X5235000Y-7015000D02*
X5205000Y-7045000D01*
X5205000Y-7165000D02*
X5235000Y-7195000D01*
X5235000Y-7165000D02*
X5205000Y-7195000D01*
X5225000Y-7415000D02*
X5255000Y-7445000D01*
X5255000Y-7415000D02*
X5225000Y-7445000D01*
X5225000Y-7545000D02*
X5255000Y-7575000D01*
X5255000Y-7545000D02*
X5225000Y-7575000D01*
X5265000Y-4815000D02*
X5295000Y-4845000D01*
X5295000Y-4815000D02*
X5265000Y-4845000D01*
X5265000Y-4905000D02*
X5295000Y-4935000D01*
X5295000Y-4905000D02*
X5265000Y-4935000D01*
X5295000Y-5545000D02*
X5325000Y-5575000D01*
X5325000Y-5545000D02*
X5295000Y-5575000D01*
X5315000Y-8595000D02*
X5345000Y-8625000D01*
X5345000Y-8595000D02*
X5315000Y-8625000D01*
X5335000Y-9215000D02*
X5365000Y-9245000D01*
X5365000Y-9215000D02*
X5335000Y-9245000D01*
X5375000Y-9085000D02*
X5405000Y-9115000D01*
X5405000Y-9085000D02*
X5375000Y-9115000D01*
X5615000Y-9045000D02*
X5645000Y-9075000D01*
X5645000Y-9045000D02*
X5615000Y-9075000D01*
X5705000Y-7695000D02*
X5735000Y-7725000D01*
X5735000Y-7695000D02*
X5705000Y-7725000D01*
X5735000Y-7235000D02*
X5765000Y-7265000D01*
X5765000Y-7235000D02*
X5735000Y-7265000D01*
X5735000Y-7335000D02*
X5765000Y-7365000D01*
X5765000Y-7335000D02*
X5735000Y-7365000D01*
X5735000Y-7435000D02*
X5765000Y-7465000D01*
X5765000Y-7435000D02*
X5735000Y-7465000D01*
X5735000Y-9025000D02*
X5765000Y-9055000D01*
X5765000Y-9025000D02*
X5735000Y-9055000D01*
X5795000Y-9435000D02*
X5825000Y-9465000D01*
X5825000Y-9435000D02*
X5795000Y-9465000D01*
X5835000Y-7235000D02*
X5865000Y-7265000D01*
X5865000Y-7235000D02*
X5835000Y-7265000D01*
X5835000Y-7335000D02*
X5865000Y-7365000D01*
X5865000Y-7335000D02*
X5835000Y-7365000D01*
X5835000Y-7435000D02*
X5865000Y-7465000D01*
X5865000Y-7435000D02*
X5835000Y-7465000D01*
X5875000Y-9475000D02*
X5905000Y-9505000D01*
X5905000Y-9475000D02*
X5875000Y-9505000D01*
X5935000Y-7235000D02*
X5965000Y-7265000D01*
X5965000Y-7235000D02*
X5935000Y-7265000D01*
X5935000Y-7335000D02*
X5965000Y-7365000D01*
X5965000Y-7335000D02*
X5935000Y-7365000D01*
X5935000Y-7435000D02*
X5965000Y-7465000D01*
X5965000Y-7435000D02*
X5935000Y-7465000D01*
X5965000Y-5345000D02*
X5995000Y-5375000D01*
X5995000Y-5345000D02*
X5965000Y-5375000D01*
X5985000Y-8985000D02*
X6015000Y-9015000D01*
X6015000Y-8985000D02*
X5985000Y-9015000D01*
X5985000Y-9425000D02*
X6015000Y-9455000D01*
X6015000Y-9425000D02*
X5985000Y-9455000D01*
X6035000Y-6135000D02*
X6065000Y-6165000D01*
X6065000Y-6135000D02*
X6035000Y-6165000D01*
X6035000Y-7235000D02*
X6065000Y-7265000D01*
X6065000Y-7235000D02*
X6035000Y-7265000D01*
X6035000Y-7335000D02*
X6065000Y-7365000D01*
X6065000Y-7335000D02*
X6035000Y-7365000D01*
X6035000Y-7435000D02*
X6065000Y-7465000D01*
X6065000Y-7435000D02*
X6035000Y-7465000D01*
X6105000Y-6245000D02*
X6135000Y-6275000D01*
X6135000Y-6245000D02*
X6105000Y-6275000D01*
X6105000Y-8319900D02*
X6135000Y-8349900D01*
X6135000Y-8319900D02*
X6105000Y-8349900D01*
X6125000Y-8665000D02*
X6155000Y-8695000D01*
X6155000Y-8665000D02*
X6125000Y-8695000D01*
X6135000Y-7235000D02*
X6165000Y-7265000D01*
X6165000Y-7235000D02*
X6135000Y-7265000D01*
X6135000Y-7335000D02*
X6165000Y-7365000D01*
X6165000Y-7335000D02*
X6135000Y-7365000D01*
X6135000Y-7435000D02*
X6165000Y-7465000D01*
X6165000Y-7435000D02*
X6135000Y-7465000D01*
X6135000Y-7535000D02*
X6165000Y-7565000D01*
X6165000Y-7535000D02*
X6135000Y-7565000D01*
X6195000Y-8319900D02*
X6225000Y-8349900D01*
X6225000Y-8319900D02*
X6195000Y-8349900D01*
X6235000Y-7235000D02*
X6265000Y-7265000D01*
X6265000Y-7235000D02*
X6235000Y-7265000D01*
X6235000Y-7335000D02*
X6265000Y-7365000D01*
X6265000Y-7335000D02*
X6235000Y-7365000D01*
X6235000Y-7435000D02*
X6265000Y-7465000D01*
X6265000Y-7435000D02*
X6235000Y-7465000D01*
X6235000Y-7535000D02*
X6265000Y-7565000D01*
X6265000Y-7535000D02*
X6235000Y-7565000D01*
X6235000Y-7635000D02*
X6265000Y-7665000D01*
X6265000Y-7635000D02*
X6235000Y-7665000D01*
X6325000Y-6115000D02*
X6355000Y-6145000D01*
X6355000Y-6115000D02*
X6325000Y-6145000D01*
X6335000Y-7235000D02*
X6365000Y-7265000D01*
X6365000Y-7235000D02*
X6335000Y-7265000D01*
X6335000Y-7335000D02*
X6365000Y-7365000D01*
X6365000Y-7335000D02*
X6335000Y-7365000D01*
X6335000Y-7435000D02*
X6365000Y-7465000D01*
X6365000Y-7435000D02*
X6335000Y-7465000D01*
X6335000Y-7535000D02*
X6365000Y-7565000D01*
X6365000Y-7535000D02*
X6335000Y-7565000D01*
X6335000Y-7635000D02*
X6365000Y-7665000D01*
X6365000Y-7635000D02*
X6335000Y-7665000D01*
X6345000Y-5345000D02*
X6375000Y-5375000D01*
X6375000Y-5345000D02*
X6345000Y-5375000D01*
X6435000Y-7235000D02*
X6465000Y-7265000D01*
X6465000Y-7235000D02*
X6435000Y-7265000D01*
X6435000Y-7335000D02*
X6465000Y-7365000D01*
X6465000Y-7335000D02*
X6435000Y-7365000D01*
X6435000Y-7435000D02*
X6465000Y-7465000D01*
X6465000Y-7435000D02*
X6435000Y-7465000D01*
X6435000Y-7535000D02*
X6465000Y-7565000D01*
X6465000Y-7535000D02*
X6435000Y-7565000D01*
X6435000Y-7635000D02*
X6465000Y-7665000D01*
X6465000Y-7635000D02*
X6435000Y-7665000D01*
X6435000Y-8175000D02*
X6465000Y-8205000D01*
X6465000Y-8175000D02*
X6435000Y-8205000D01*
X6465000Y-6075000D02*
X6495000Y-6105000D01*
X6495000Y-6075000D02*
X6465000Y-6105000D01*
X6535000Y-7235000D02*
X6565000Y-7265000D01*
X6565000Y-7235000D02*
X6535000Y-7265000D01*
X6535000Y-7335000D02*
X6565000Y-7365000D01*
X6565000Y-7335000D02*
X6535000Y-7365000D01*
X6535000Y-7435000D02*
X6565000Y-7465000D01*
X6565000Y-7435000D02*
X6535000Y-7465000D01*
X6535000Y-7535000D02*
X6565000Y-7565000D01*
X6565000Y-7535000D02*
X6535000Y-7565000D01*
X6535000Y-7635000D02*
X6565000Y-7665000D01*
X6565000Y-7635000D02*
X6535000Y-7665000D01*
X6555000Y-8955000D02*
X6585000Y-8985000D01*
X6585000Y-8955000D02*
X6555000Y-8985000D01*
X6635000Y-7235000D02*
X6665000Y-7265000D01*
X6665000Y-7235000D02*
X6635000Y-7265000D01*
X6635000Y-7335000D02*
X6665000Y-7365000D01*
X6665000Y-7335000D02*
X6635000Y-7365000D01*
X6635000Y-7435000D02*
X6665000Y-7465000D01*
X6665000Y-7435000D02*
X6635000Y-7465000D01*
X6635000Y-7535000D02*
X6665000Y-7565000D01*
X6665000Y-7535000D02*
X6635000Y-7565000D01*
X6635000Y-7635000D02*
X6665000Y-7665000D01*
X6665000Y-7635000D02*
X6635000Y-7665000D01*
X6735000Y-7235000D02*
X6765000Y-7265000D01*
X6765000Y-7235000D02*
X6735000Y-7265000D01*
X6735000Y-7335000D02*
X6765000Y-7365000D01*
X6765000Y-7335000D02*
X6735000Y-7365000D01*
X6735000Y-7435000D02*
X6765000Y-7465000D01*
X6765000Y-7435000D02*
X6735000Y-7465000D01*
X6735000Y-7535000D02*
X6765000Y-7565000D01*
X6765000Y-7535000D02*
X6735000Y-7565000D01*
X6735000Y-7635000D02*
X6765000Y-7665000D01*
X6765000Y-7635000D02*
X6735000Y-7665000D01*
X6785000Y-5885000D02*
X6815000Y-5915000D01*
X6815000Y-5885000D02*
X6785000Y-5915000D01*
X6955000Y-9225000D02*
X6985000Y-9255000D01*
X6985000Y-9225000D02*
X6955000Y-9255000D01*
X7055000Y-6875000D02*
X7085000Y-6905000D01*
X7085000Y-6875000D02*
X7055000Y-6905000D01*
X7075000Y-4805000D02*
X7105000Y-4835000D01*
X7105000Y-4805000D02*
X7075000Y-4835000D01*
X7075000Y-4895000D02*
X7105000Y-4925000D01*
X7105000Y-4895000D02*
X7075000Y-4925000D01*
X7085000Y-5535000D02*
X7115000Y-5565000D01*
X7115000Y-5535000D02*
X7085000Y-5565000D01*
X7195000Y-7765000D02*
X7225000Y-7795000D01*
X7225000Y-7765000D02*
X7195000Y-7795000D01*
X7195000Y-7875000D02*
X7225000Y-7905000D01*
X7225000Y-7875000D02*
X7195000Y-7905000D01*
X7225000Y-7025000D02*
X7255000Y-7055000D01*
X7255000Y-7025000D02*
X7225000Y-7055000D01*
X7225000Y-7185000D02*
X7255000Y-7215000D01*
X7255000Y-7185000D02*
X7225000Y-7215000D01*
X7465000Y-9195000D02*
X7495000Y-9225000D01*
X7495000Y-9195000D02*
X7465000Y-9225000D01*
X7525000Y-7995000D02*
X7555000Y-8025000D01*
X7555000Y-7995000D02*
X7525000Y-8025000D01*
X7535000Y-8245000D02*
X7565000Y-8275000D01*
X7565000Y-8245000D02*
X7535000Y-8275000D01*
X7555000Y-8540000D02*
X7585000Y-8570000D01*
X7585000Y-8540000D02*
X7555000Y-8570000D01*
X7595000Y-9165000D02*
X7625000Y-9195000D01*
X7625000Y-9165000D02*
X7595000Y-9195000D01*
X7635000Y-9025000D02*
X7665000Y-9055000D01*
X7665000Y-9025000D02*
X7635000Y-9055000D01*
X7645000Y-4765000D02*
X7675000Y-4795000D01*
X7675000Y-4765000D02*
X7645000Y-4795000D01*
X7685000Y-5755000D02*
X7715000Y-5785000D01*
X7715000Y-5755000D02*
X7685000Y-5785000D01*
X7765000Y-4275000D02*
X7795000Y-4305000D01*
X7795000Y-4275000D02*
X7765000Y-4305000D01*
X7955000Y-5645000D02*
X7985000Y-5675000D01*
X7985000Y-5645000D02*
X7955000Y-5675000D01*
X8105000Y-6005000D02*
X8135000Y-6035000D01*
X8135000Y-6005000D02*
X8105000Y-6035000D01*
X8425000Y-9305000D02*
X8455000Y-9335000D01*
X8455000Y-9305000D02*
X8425000Y-9335000D01*
X8465000Y-9205000D02*
X8495000Y-9235000D01*
X8495000Y-9205000D02*
X8465000Y-9235000D01*
X8475000Y-6385000D02*
X8505000Y-6415000D01*
X8505000Y-6385000D02*
X8475000Y-6415000D01*
X8475000Y-9395000D02*
X8505000Y-9425000D01*
X8505000Y-9395000D02*
X8475000Y-9425000D01*
X8480000Y-6520000D02*
X8510000Y-6550000D01*
X8510000Y-6520000D02*
X8480000Y-6550000D01*
X8685000Y-7645000D02*
X8715000Y-7675000D01*
X8715000Y-7645000D02*
X8685000Y-7675000D01*
X9195000Y-8345000D02*
X9225000Y-8375000D01*
X9225000Y-8345000D02*
X9195000Y-8375000D01*
X9335000Y-8255000D02*
X9365000Y-8285000D01*
X9365000Y-8255000D02*
X9335000Y-8285000D01*
X9565000Y-8075000D02*
X9595000Y-8105000D01*
X9595000Y-8075000D02*
X9565000Y-8105000D01*
X9580000Y-8000000D02*
X9610000Y-8030000D01*
X9610000Y-8000000D02*
X9580000Y-8030000D01*
X9720000Y-6900000D02*
X9750000Y-6930000D01*
X9750000Y-6900000D02*
X9720000Y-6930000D01*
X9785000Y-7725000D02*
X9815000Y-7755000D01*
X9815000Y-7725000D02*
X9785000Y-7755000D01*
X9790000Y-7520000D02*
X9820000Y-7550000D01*
X9820000Y-7520000D02*
X9790000Y-7550000D01*
X9805000Y-6385000D02*
X9835000Y-6415000D01*
X9835000Y-6385000D02*
X9805000Y-6415000D01*
X6030000Y-5160000D02*
G75*
G02*
X5950000Y-5160000I-40000J0D01*
G01*
X5950000Y-5160000D02*
G75*
G02*
X6030000Y-5160000I40000J0D01*
G01*
X6030000Y-5660000D02*
G75*
G02*
X5950000Y-5660000I-40000J0D01*
G01*
X5950000Y-5660000D02*
G75*
G02*
X6030000Y-5660000I40000J0D01*
G01*
X6030000Y-5920000D02*
G75*
G02*
X5950000Y-5920000I-40000J0D01*
G01*
X5950000Y-5920000D02*
G75*
G02*
X6030000Y-5920000I40000J0D01*
G01*
X6030000Y-6420000D02*
G75*
G02*
X5950000Y-6420000I-40000J0D01*
G01*
X5950000Y-6420000D02*
G75*
G02*
X6030000Y-6420000I40000J0D01*
G01*
X6440000Y-5160000D02*
G75*
G02*
X6360000Y-5160000I-40000J0D01*
G01*
X6360000Y-5160000D02*
G75*
G02*
X6440000Y-5160000I40000J0D01*
G01*
X6440000Y-5660000D02*
G75*
G02*
X6360000Y-5660000I-40000J0D01*
G01*
X6360000Y-5660000D02*
G75*
G02*
X6440000Y-5660000I40000J0D01*
G01*
X6440000Y-5920000D02*
G75*
G02*
X6360000Y-5920000I-40000J0D01*
G01*
X6360000Y-5920000D02*
G75*
G02*
X6440000Y-5920000I40000J0D01*
G01*
X6440000Y-6420000D02*
G75*
G02*
X6360000Y-6420000I-40000J0D01*
G01*
X6360000Y-6420000D02*
G75*
G02*
X6440000Y-6420000I40000J0D01*
G01*
X7530000Y-7368238D02*
G75*
G02*
X7450000Y-7368238I-40000J0D01*
G01*
X7450000Y-7368238D02*
G75*
G02*
X7530000Y-7368238I40000J0D01*
G01*
X7530000Y-7618238D02*
G75*
G02*
X7450000Y-7618238I-40000J0D01*
G01*
X7450000Y-7618238D02*
G75*
G02*
X7530000Y-7618238I40000J0D01*
G01*
X8810000Y-5440000D02*
G75*
G02*
X8730000Y-5440000I-40000J0D01*
G01*
X8730000Y-5440000D02*
G75*
G02*
X8810000Y-5440000I40000J0D01*
G01*
X8810000Y-5690000D02*
G75*
G02*
X8730000Y-5690000I-40000J0D01*
G01*
X8730000Y-5690000D02*
G75*
G02*
X8810000Y-5690000I40000J0D01*
G01*
X4450000Y-8800000D02*
X4450000Y-8900000D01*
X4400000Y-8850000D02*
X4500000Y-8850000D01*
X4450000Y-9050000D02*
X4450000Y-9150000D01*
X4400000Y-9100000D02*
X4500000Y-9100000D01*
X4700000Y-8800000D02*
X4700000Y-8900000D01*
X4650000Y-8850000D02*
X4750000Y-8850000D01*
X4700000Y-9050000D02*
X4700000Y-9150000D01*
X4650000Y-9100000D02*
X4750000Y-9100000D01*
X4826768Y-6340000D02*
X4826768Y-6440000D01*
X4776768Y-6390000D02*
X4876768Y-6390000D01*
X4950000Y-8800000D02*
X4950000Y-8900000D01*
X4900000Y-8850000D02*
X5000000Y-8850000D01*
X4950000Y-9050000D02*
X4950000Y-9150000D01*
X4900000Y-9100000D02*
X5000000Y-9100000D01*
X5326768Y-6340000D02*
X5326768Y-6440000D01*
X5276768Y-6390000D02*
X5376768Y-6390000D01*
X7136768Y-6340000D02*
X7136768Y-6440000D01*
X7086768Y-6390000D02*
X7186768Y-6390000D01*
X7636768Y-6340000D02*
X7636768Y-6440000D01*
X7586768Y-6390000D02*
X7686768Y-6390000D01*
X8770000Y-4540000D02*
X8770000Y-4640000D01*
X8720000Y-4590000D02*
X8820000Y-4590000D01*
X8820000Y-4690000D02*
X8820000Y-4490000D01*
X8720000Y-4490000D02*
G75*
G02*
X8820000Y-4490000I50000J0D01*
G01*
X8720000Y-4490000D02*
X8720000Y-4690000D01*
X8720000Y-4690000D02*
G75*
G03*
X8820000Y-4690000I50000J0D01*
G01*
X9370000Y-4540000D02*
X9370000Y-4640000D01*
X9320000Y-4590000D02*
X9420000Y-4590000D01*
X9420000Y-4655000D02*
X9420000Y-4525000D01*
X9320000Y-4525000D02*
G75*
G02*
X9420000Y-4525000I50000J0D01*
G01*
X9320000Y-4525000D02*
X9320000Y-4655000D01*
X9320000Y-4655000D02*
G75*
G03*
X9420000Y-4655000I50000J0D01*
G01*
X9470000Y-4090000D02*
X9470000Y-4190000D01*
X9420000Y-4140000D02*
X9520000Y-4140000D01*
X9395000Y-4190000D02*
X9545000Y-4190000D01*
X9545000Y-4090000D02*
G75*
G02*
X9545000Y-4190000I0J-50000D01*
G01*
X9545000Y-4090000D02*
X9395000Y-4090000D01*
X9395000Y-4090000D02*
G75*
G03*
X9395000Y-4190000I0J-50000D01*
G01*
X9470000Y-4990000D02*
X9470000Y-5090000D01*
X9420000Y-5040000D02*
X9520000Y-5040000D01*
X9395000Y-5090000D02*
X9545000Y-5090000D01*
X9545000Y-4990000D02*
G75*
G02*
X9545000Y-5090000I0J-50000D01*
G01*
X9545000Y-4990000D02*
X9395000Y-4990000D01*
X9395000Y-4990000D02*
G75*
G03*
X9395000Y-5090000I0J-50000D01*
G01*
D14*
X3997427Y-7577427D02*
X3997427Y-7492573D01*
X3912573Y-7492573D01*
X3912573Y-7577427D01*
X3997427Y-7577427D01*
D13*
X3925000Y-7595000D02*
X3985000Y-7595000D01*
X3985000Y-7475000D02*
G75*
G02*
X3985000Y-7595000I0J-60000D01*
G01*
X3985000Y-7475000D02*
X3925000Y-7475000D01*
X3925000Y-7475000D02*
G75*
G03*
X3925000Y-7595000I0J-60000D01*
G01*
D14*
X3997427Y-8147427D02*
X3997427Y-8062573D01*
X3912573Y-8062573D01*
X3912573Y-8147427D01*
X3997427Y-8147427D01*
D13*
X3925000Y-8165000D02*
X3985000Y-8165000D01*
X3985000Y-8045000D02*
G75*
G02*
X3985000Y-8165000I0J-60000D01*
G01*
X3985000Y-8045000D02*
X3925000Y-8045000D01*
X3925000Y-8045000D02*
G75*
G03*
X3925000Y-8165000I0J-60000D01*
G01*
D14*
X4747427Y-7632427D02*
X4747427Y-7547573D01*
X4662573Y-7547573D01*
X4662573Y-7632427D01*
X4747427Y-7632427D01*
D13*
X4675000Y-7650000D02*
X4735000Y-7650000D01*
X4735000Y-7530000D02*
G75*
G02*
X4735000Y-7650000I0J-60000D01*
G01*
X4735000Y-7530000D02*
X4675000Y-7530000D01*
X4675000Y-7530000D02*
G75*
G03*
X4675000Y-7650000I0J-60000D01*
G01*
D14*
X4747427Y-8092427D02*
X4747427Y-8007573D01*
X4662573Y-8007573D01*
X4662573Y-8092427D01*
X4747427Y-8092427D01*
D13*
X4675000Y-8110000D02*
X4735000Y-8110000D01*
X4735000Y-7990000D02*
G75*
G02*
X4735000Y-8110000I0J-60000D01*
G01*
X4735000Y-7990000D02*
X4675000Y-7990000D01*
X4675000Y-7990000D02*
G75*
G03*
X4675000Y-8110000I0J-60000D01*
G01*
D14*
X8722427Y-8932427D02*
X8722427Y-8847573D01*
X8637573Y-8847573D01*
X8637573Y-8932427D01*
X8722427Y-8932427D01*
D13*
X8710000Y-8830000D02*
X8650000Y-8830000D01*
X8650000Y-8950000D02*
G75*
G02*
X8650000Y-8830000I0J60000D01*
G01*
X8650000Y-8950000D02*
X8710000Y-8950000D01*
X8710000Y-8950000D02*
G75*
G03*
X8710000Y-8830000I0J60000D01*
G01*
D14*
X8722427Y-9392427D02*
X8722427Y-9307573D01*
X8637573Y-9307573D01*
X8637573Y-9392427D01*
X8722427Y-9392427D01*
D13*
X8710000Y-9290000D02*
X8650000Y-9290000D01*
X8650000Y-9410000D02*
G75*
G02*
X8650000Y-9290000I0J60000D01*
G01*
X8650000Y-9410000D02*
X8710000Y-9410000D01*
X8710000Y-9410000D02*
G75*
G03*
X8710000Y-9290000I0J60000D01*
G01*
D14*
X9472427Y-8877427D02*
X9472427Y-8792573D01*
X9387573Y-8792573D01*
X9387573Y-8877427D01*
X9472427Y-8877427D01*
D13*
X9460000Y-8775000D02*
X9400000Y-8775000D01*
X9400000Y-8895000D02*
G75*
G02*
X9400000Y-8775000I0J60000D01*
G01*
X9400000Y-8895000D02*
X9460000Y-8895000D01*
X9460000Y-8895000D02*
G75*
G03*
X9460000Y-8775000I0J60000D01*
G01*
D14*
X9472427Y-9447427D02*
X9472427Y-9362573D01*
X9387573Y-9362573D01*
X9387573Y-9447427D01*
X9472427Y-9447427D01*
D13*
X9460000Y-9345000D02*
X9400000Y-9345000D01*
X9400000Y-9465000D02*
G75*
G02*
X9400000Y-9345000I0J60000D01*
G01*
X9400000Y-9465000D02*
X9460000Y-9465000D01*
X9460000Y-9465000D02*
G75*
G03*
X9460000Y-9345000I0J60000D01*
G01*
D15*
X3780000Y-5778000D02*
X3856000Y-5702000D01*
X3780000Y-5626000D01*
X3704000Y-5702000D01*
X3780000Y-5778000D01*
X3780000Y-6286000D02*
X3856000Y-6210000D01*
X3780000Y-6134000D01*
X3704000Y-6210000D01*
X3780000Y-6286000D01*
X3780000Y-6794000D02*
X3856000Y-6718000D01*
X3780000Y-6642000D01*
X3704000Y-6718000D01*
X3780000Y-6794000D01*
X5406000Y-4416000D02*
X5482000Y-4340000D01*
X5406000Y-4264000D01*
X5330000Y-4340000D01*
X5406000Y-4416000D01*
X5914000Y-4416000D02*
X5990000Y-4340000D01*
X5914000Y-4264000D01*
X5838000Y-4340000D01*
X5914000Y-4416000D01*
X6462000Y-4416000D02*
X6538000Y-4340000D01*
X6462000Y-4264000D01*
X6386000Y-4340000D01*
X6462000Y-4416000D01*
X6970000Y-4416000D02*
X7046000Y-4340000D01*
X6970000Y-4264000D01*
X6894000Y-4340000D01*
X6970000Y-4416000D01*
X9590000Y-5572000D02*
X9666000Y-5496000D01*
X9590000Y-5420000D01*
X9514000Y-5496000D01*
X9590000Y-5572000D01*
X9590000Y-6080000D02*
X9666000Y-6004000D01*
X9590000Y-5928000D01*
X9514000Y-6004000D01*
X9590000Y-6080000D01*
D12*
X3588277Y-10047918D02*
X3588277Y-9847918D01*
X3588277Y-9847918D02*
X3635896Y-9847918D01*
X3635896Y-9847918D02*
X3664467Y-9857442D01*
X3664467Y-9857442D02*
X3683515Y-9876489D01*
X3683515Y-9876489D02*
X3693039Y-9895537D01*
X3693039Y-9895537D02*
X3702562Y-9933632D01*
X3702562Y-9933632D02*
X3702562Y-9962204D01*
X3702562Y-9962204D02*
X3693039Y-10000299D01*
X3693039Y-10000299D02*
X3683515Y-10019346D01*
X3683515Y-10019346D02*
X3664467Y-10038394D01*
X3664467Y-10038394D02*
X3635896Y-10047918D01*
X3635896Y-10047918D02*
X3588277Y-10047918D01*
X3788277Y-10047918D02*
X3788277Y-9914584D01*
X3788277Y-9952680D02*
X3797801Y-9933632D01*
X3797801Y-9933632D02*
X3807324Y-9924108D01*
X3807324Y-9924108D02*
X3826372Y-9914584D01*
X3826372Y-9914584D02*
X3845420Y-9914584D01*
X3912086Y-10047918D02*
X3912086Y-9914584D01*
X3912086Y-9847918D02*
X3902562Y-9857442D01*
X3902562Y-9857442D02*
X3912086Y-9866965D01*
X3912086Y-9866965D02*
X3921610Y-9857442D01*
X3921610Y-9857442D02*
X3912086Y-9847918D01*
X3912086Y-9847918D02*
X3912086Y-9866965D01*
X4035896Y-10047918D02*
X4016848Y-10038394D01*
X4016848Y-10038394D02*
X4007324Y-10019346D01*
X4007324Y-10019346D02*
X4007324Y-9847918D01*
X4140658Y-10047918D02*
X4121610Y-10038394D01*
X4121610Y-10038394D02*
X4112086Y-10019346D01*
X4112086Y-10019346D02*
X4112086Y-9847918D01*
X4369229Y-10047918D02*
X4369229Y-9847918D01*
X4369229Y-9847918D02*
X4435896Y-9990775D01*
X4435896Y-9990775D02*
X4502563Y-9847918D01*
X4502563Y-9847918D02*
X4502563Y-10047918D01*
X4683515Y-10047918D02*
X4683515Y-9943156D01*
X4683515Y-9943156D02*
X4673991Y-9924108D01*
X4673991Y-9924108D02*
X4654944Y-9914584D01*
X4654944Y-9914584D02*
X4616848Y-9914584D01*
X4616848Y-9914584D02*
X4597801Y-9924108D01*
X4683515Y-10038394D02*
X4664467Y-10047918D01*
X4664467Y-10047918D02*
X4616848Y-10047918D01*
X4616848Y-10047918D02*
X4597801Y-10038394D01*
X4597801Y-10038394D02*
X4588277Y-10019346D01*
X4588277Y-10019346D02*
X4588277Y-10000299D01*
X4588277Y-10000299D02*
X4597801Y-9981251D01*
X4597801Y-9981251D02*
X4616848Y-9971727D01*
X4616848Y-9971727D02*
X4664467Y-9971727D01*
X4664467Y-9971727D02*
X4683515Y-9962204D01*
X4778753Y-9914584D02*
X4778753Y-10114584D01*
X4778753Y-9924108D02*
X4797801Y-9914584D01*
X4797801Y-9914584D02*
X4835896Y-9914584D01*
X4835896Y-9914584D02*
X4854944Y-9924108D01*
X4854944Y-9924108D02*
X4864467Y-9933632D01*
X4864467Y-9933632D02*
X4873991Y-9952680D01*
X4873991Y-9952680D02*
X4873991Y-10009823D01*
X4873991Y-10009823D02*
X4864467Y-10028870D01*
X4864467Y-10028870D02*
X4854944Y-10038394D01*
X4854944Y-10038394D02*
X4835896Y-10047918D01*
X4835896Y-10047918D02*
X4797801Y-10047918D01*
X4797801Y-10047918D02*
X4778753Y-10038394D01*
X4959705Y-10028870D02*
X4969229Y-10038394D01*
X4969229Y-10038394D02*
X4959705Y-10047918D01*
X4959705Y-10047918D02*
X4950182Y-10038394D01*
X4950182Y-10038394D02*
X4959705Y-10028870D01*
X4959705Y-10028870D02*
X4959705Y-10047918D01*
X4959705Y-9924108D02*
X4969229Y-9933632D01*
X4969229Y-9933632D02*
X4959705Y-9943156D01*
X4959705Y-9943156D02*
X4950182Y-9933632D01*
X4950182Y-9933632D02*
X4959705Y-9924108D01*
X4959705Y-9924108D02*
X4959705Y-9943156D01*
D13*
X3297500Y-10361434D02*
X3327500Y-10391434D01*
X3327500Y-10361434D02*
X3297500Y-10391434D01*
D12*
X3626372Y-10267918D02*
X3645420Y-10267918D01*
X3645420Y-10267918D02*
X3664467Y-10277442D01*
X3664467Y-10277442D02*
X3673991Y-10286965D01*
X3673991Y-10286965D02*
X3683515Y-10306013D01*
X3683515Y-10306013D02*
X3693039Y-10344108D01*
X3693039Y-10344108D02*
X3693039Y-10391727D01*
X3693039Y-10391727D02*
X3683515Y-10429823D01*
X3683515Y-10429823D02*
X3673991Y-10448870D01*
X3673991Y-10448870D02*
X3664467Y-10458394D01*
X3664467Y-10458394D02*
X3645420Y-10467918D01*
X3645420Y-10467918D02*
X3626372Y-10467918D01*
X3626372Y-10467918D02*
X3607324Y-10458394D01*
X3607324Y-10458394D02*
X3597801Y-10448870D01*
X3597801Y-10448870D02*
X3588277Y-10429823D01*
X3588277Y-10429823D02*
X3578753Y-10391727D01*
X3578753Y-10391727D02*
X3578753Y-10344108D01*
X3578753Y-10344108D02*
X3588277Y-10306013D01*
X3588277Y-10306013D02*
X3597801Y-10286965D01*
X3597801Y-10286965D02*
X3607324Y-10277442D01*
X3607324Y-10277442D02*
X3626372Y-10267918D01*
X3778753Y-10448870D02*
X3788277Y-10458394D01*
X3788277Y-10458394D02*
X3778753Y-10467918D01*
X3778753Y-10467918D02*
X3769229Y-10458394D01*
X3769229Y-10458394D02*
X3778753Y-10448870D01*
X3778753Y-10448870D02*
X3778753Y-10467918D01*
X3854943Y-10267918D02*
X3978753Y-10267918D01*
X3978753Y-10267918D02*
X3912086Y-10344108D01*
X3912086Y-10344108D02*
X3940658Y-10344108D01*
X3940658Y-10344108D02*
X3959705Y-10353632D01*
X3959705Y-10353632D02*
X3969229Y-10363156D01*
X3969229Y-10363156D02*
X3978753Y-10382204D01*
X3978753Y-10382204D02*
X3978753Y-10429823D01*
X3978753Y-10429823D02*
X3969229Y-10448870D01*
X3969229Y-10448870D02*
X3959705Y-10458394D01*
X3959705Y-10458394D02*
X3940658Y-10467918D01*
X3940658Y-10467918D02*
X3883515Y-10467918D01*
X3883515Y-10467918D02*
X3864467Y-10458394D01*
X3864467Y-10458394D02*
X3854943Y-10448870D01*
X4102562Y-10267918D02*
X4121610Y-10267918D01*
X4121610Y-10267918D02*
X4140658Y-10277442D01*
X4140658Y-10277442D02*
X4150182Y-10286965D01*
X4150182Y-10286965D02*
X4159705Y-10306013D01*
X4159705Y-10306013D02*
X4169229Y-10344108D01*
X4169229Y-10344108D02*
X4169229Y-10391727D01*
X4169229Y-10391727D02*
X4159705Y-10429823D01*
X4159705Y-10429823D02*
X4150182Y-10448870D01*
X4150182Y-10448870D02*
X4140658Y-10458394D01*
X4140658Y-10458394D02*
X4121610Y-10467918D01*
X4121610Y-10467918D02*
X4102562Y-10467918D01*
X4102562Y-10467918D02*
X4083515Y-10458394D01*
X4083515Y-10458394D02*
X4073991Y-10448870D01*
X4073991Y-10448870D02*
X4064467Y-10429823D01*
X4064467Y-10429823D02*
X4054943Y-10391727D01*
X4054943Y-10391727D02*
X4054943Y-10344108D01*
X4054943Y-10344108D02*
X4064467Y-10306013D01*
X4064467Y-10306013D02*
X4073991Y-10286965D01*
X4073991Y-10286965D02*
X4083515Y-10277442D01*
X4083515Y-10277442D02*
X4102562Y-10267918D01*
X4293039Y-10267918D02*
X4312086Y-10267918D01*
X4312086Y-10267918D02*
X4331134Y-10277442D01*
X4331134Y-10277442D02*
X4340658Y-10286965D01*
X4340658Y-10286965D02*
X4350182Y-10306013D01*
X4350182Y-10306013D02*
X4359705Y-10344108D01*
X4359705Y-10344108D02*
X4359705Y-10391727D01*
X4359705Y-10391727D02*
X4350182Y-10429823D01*
X4350182Y-10429823D02*
X4340658Y-10448870D01*
X4340658Y-10448870D02*
X4331134Y-10458394D01*
X4331134Y-10458394D02*
X4312086Y-10467918D01*
X4312086Y-10467918D02*
X4293039Y-10467918D01*
X4293039Y-10467918D02*
X4273991Y-10458394D01*
X4273991Y-10458394D02*
X4264467Y-10448870D01*
X4264467Y-10448870D02*
X4254944Y-10429823D01*
X4254944Y-10429823D02*
X4245420Y-10391727D01*
X4245420Y-10391727D02*
X4245420Y-10344108D01*
X4245420Y-10344108D02*
X4254944Y-10306013D01*
X4254944Y-10306013D02*
X4264467Y-10286965D01*
X4264467Y-10286965D02*
X4273991Y-10277442D01*
X4273991Y-10277442D02*
X4293039Y-10267918D01*
X4445420Y-10467918D02*
X4445420Y-10334584D01*
X4445420Y-10353632D02*
X4454944Y-10344108D01*
X4454944Y-10344108D02*
X4473991Y-10334584D01*
X4473991Y-10334584D02*
X4502563Y-10334584D01*
X4502563Y-10334584D02*
X4521610Y-10344108D01*
X4521610Y-10344108D02*
X4531134Y-10363156D01*
X4531134Y-10363156D02*
X4531134Y-10467918D01*
X4531134Y-10363156D02*
X4540658Y-10344108D01*
X4540658Y-10344108D02*
X4559705Y-10334584D01*
X4559705Y-10334584D02*
X4588277Y-10334584D01*
X4588277Y-10334584D02*
X4607325Y-10344108D01*
X4607325Y-10344108D02*
X4616848Y-10363156D01*
X4616848Y-10363156D02*
X4616848Y-10467918D01*
X4712086Y-10467918D02*
X4712086Y-10334584D01*
X4712086Y-10353632D02*
X4721610Y-10344108D01*
X4721610Y-10344108D02*
X4740658Y-10334584D01*
X4740658Y-10334584D02*
X4769229Y-10334584D01*
X4769229Y-10334584D02*
X4788277Y-10344108D01*
X4788277Y-10344108D02*
X4797801Y-10363156D01*
X4797801Y-10363156D02*
X4797801Y-10467918D01*
X4797801Y-10363156D02*
X4807325Y-10344108D01*
X4807325Y-10344108D02*
X4826372Y-10334584D01*
X4826372Y-10334584D02*
X4854944Y-10334584D01*
X4854944Y-10334584D02*
X4873991Y-10344108D01*
X4873991Y-10344108D02*
X4883515Y-10363156D01*
X4883515Y-10363156D02*
X4883515Y-10467918D01*
X5273991Y-10258394D02*
X5102563Y-10515537D01*
X5531134Y-10267918D02*
X5550182Y-10267918D01*
X5550182Y-10267918D02*
X5569229Y-10277442D01*
X5569229Y-10277442D02*
X5578753Y-10286965D01*
X5578753Y-10286965D02*
X5588277Y-10306013D01*
X5588277Y-10306013D02*
X5597801Y-10344108D01*
X5597801Y-10344108D02*
X5597801Y-10391727D01*
X5597801Y-10391727D02*
X5588277Y-10429823D01*
X5588277Y-10429823D02*
X5578753Y-10448870D01*
X5578753Y-10448870D02*
X5569229Y-10458394D01*
X5569229Y-10458394D02*
X5550182Y-10467918D01*
X5550182Y-10467918D02*
X5531134Y-10467918D01*
X5531134Y-10467918D02*
X5512087Y-10458394D01*
X5512087Y-10458394D02*
X5502563Y-10448870D01*
X5502563Y-10448870D02*
X5493039Y-10429823D01*
X5493039Y-10429823D02*
X5483515Y-10391727D01*
X5483515Y-10391727D02*
X5483515Y-10344108D01*
X5483515Y-10344108D02*
X5493039Y-10306013D01*
X5493039Y-10306013D02*
X5502563Y-10286965D01*
X5502563Y-10286965D02*
X5512087Y-10277442D01*
X5512087Y-10277442D02*
X5531134Y-10267918D01*
X5683515Y-10448870D02*
X5693039Y-10458394D01*
X5693039Y-10458394D02*
X5683515Y-10467918D01*
X5683515Y-10467918D02*
X5673991Y-10458394D01*
X5673991Y-10458394D02*
X5683515Y-10448870D01*
X5683515Y-10448870D02*
X5683515Y-10467918D01*
X5816848Y-10267918D02*
X5835896Y-10267918D01*
X5835896Y-10267918D02*
X5854944Y-10277442D01*
X5854944Y-10277442D02*
X5864467Y-10286965D01*
X5864467Y-10286965D02*
X5873991Y-10306013D01*
X5873991Y-10306013D02*
X5883515Y-10344108D01*
X5883515Y-10344108D02*
X5883515Y-10391727D01*
X5883515Y-10391727D02*
X5873991Y-10429823D01*
X5873991Y-10429823D02*
X5864467Y-10448870D01*
X5864467Y-10448870D02*
X5854944Y-10458394D01*
X5854944Y-10458394D02*
X5835896Y-10467918D01*
X5835896Y-10467918D02*
X5816848Y-10467918D01*
X5816848Y-10467918D02*
X5797801Y-10458394D01*
X5797801Y-10458394D02*
X5788277Y-10448870D01*
X5788277Y-10448870D02*
X5778753Y-10429823D01*
X5778753Y-10429823D02*
X5769229Y-10391727D01*
X5769229Y-10391727D02*
X5769229Y-10344108D01*
X5769229Y-10344108D02*
X5778753Y-10306013D01*
X5778753Y-10306013D02*
X5788277Y-10286965D01*
X5788277Y-10286965D02*
X5797801Y-10277442D01*
X5797801Y-10277442D02*
X5816848Y-10267918D01*
X6073991Y-10467918D02*
X5959706Y-10467918D01*
X6016848Y-10467918D02*
X6016848Y-10267918D01*
X6016848Y-10267918D02*
X5997801Y-10296489D01*
X5997801Y-10296489D02*
X5978753Y-10315537D01*
X5978753Y-10315537D02*
X5959706Y-10325061D01*
X6264467Y-10467918D02*
X6150182Y-10467918D01*
X6207325Y-10467918D02*
X6207325Y-10267918D01*
X6207325Y-10267918D02*
X6188277Y-10296489D01*
X6188277Y-10296489D02*
X6169229Y-10315537D01*
X6169229Y-10315537D02*
X6150182Y-10325061D01*
X6378753Y-10353632D02*
X6359706Y-10344108D01*
X6359706Y-10344108D02*
X6350182Y-10334584D01*
X6350182Y-10334584D02*
X6340658Y-10315537D01*
X6340658Y-10315537D02*
X6340658Y-10306013D01*
X6340658Y-10306013D02*
X6350182Y-10286965D01*
X6350182Y-10286965D02*
X6359706Y-10277442D01*
X6359706Y-10277442D02*
X6378753Y-10267918D01*
X6378753Y-10267918D02*
X6416848Y-10267918D01*
X6416848Y-10267918D02*
X6435896Y-10277442D01*
X6435896Y-10277442D02*
X6445420Y-10286965D01*
X6445420Y-10286965D02*
X6454944Y-10306013D01*
X6454944Y-10306013D02*
X6454944Y-10315537D01*
X6454944Y-10315537D02*
X6445420Y-10334584D01*
X6445420Y-10334584D02*
X6435896Y-10344108D01*
X6435896Y-10344108D02*
X6416848Y-10353632D01*
X6416848Y-10353632D02*
X6378753Y-10353632D01*
X6378753Y-10353632D02*
X6359706Y-10363156D01*
X6359706Y-10363156D02*
X6350182Y-10372680D01*
X6350182Y-10372680D02*
X6340658Y-10391727D01*
X6340658Y-10391727D02*
X6340658Y-10429823D01*
X6340658Y-10429823D02*
X6350182Y-10448870D01*
X6350182Y-10448870D02*
X6359706Y-10458394D01*
X6359706Y-10458394D02*
X6378753Y-10467918D01*
X6378753Y-10467918D02*
X6416848Y-10467918D01*
X6416848Y-10467918D02*
X6435896Y-10458394D01*
X6435896Y-10458394D02*
X6445420Y-10448870D01*
X6445420Y-10448870D02*
X6454944Y-10429823D01*
X6454944Y-10429823D02*
X6454944Y-10391727D01*
X6454944Y-10391727D02*
X6445420Y-10372680D01*
X6445420Y-10372680D02*
X6435896Y-10363156D01*
X6435896Y-10363156D02*
X6416848Y-10353632D01*
X6531134Y-10267918D02*
X6531134Y-10306013D01*
X6607325Y-10267918D02*
X6607325Y-10306013D01*
X6902563Y-10544108D02*
X6893039Y-10534584D01*
X6893039Y-10534584D02*
X6873991Y-10506013D01*
X6873991Y-10506013D02*
X6864468Y-10486965D01*
X6864468Y-10486965D02*
X6854944Y-10458394D01*
X6854944Y-10458394D02*
X6845420Y-10410775D01*
X6845420Y-10410775D02*
X6845420Y-10372680D01*
X6845420Y-10372680D02*
X6854944Y-10325061D01*
X6854944Y-10325061D02*
X6864468Y-10296489D01*
X6864468Y-10296489D02*
X6873991Y-10277442D01*
X6873991Y-10277442D02*
X6893039Y-10248870D01*
X6893039Y-10248870D02*
X6902563Y-10239346D01*
X7083515Y-10467918D02*
X6969229Y-10467918D01*
X7026372Y-10467918D02*
X7026372Y-10267918D01*
X7026372Y-10267918D02*
X7007325Y-10296489D01*
X7007325Y-10296489D02*
X6988277Y-10315537D01*
X6988277Y-10315537D02*
X6969229Y-10325061D01*
X7159706Y-10286965D02*
X7169229Y-10277442D01*
X7169229Y-10277442D02*
X7188277Y-10267918D01*
X7188277Y-10267918D02*
X7235896Y-10267918D01*
X7235896Y-10267918D02*
X7254944Y-10277442D01*
X7254944Y-10277442D02*
X7264468Y-10286965D01*
X7264468Y-10286965D02*
X7273991Y-10306013D01*
X7273991Y-10306013D02*
X7273991Y-10325061D01*
X7273991Y-10325061D02*
X7264468Y-10353632D01*
X7264468Y-10353632D02*
X7150182Y-10467918D01*
X7150182Y-10467918D02*
X7273991Y-10467918D01*
X7445420Y-10334584D02*
X7445420Y-10467918D01*
X7397801Y-10258394D02*
X7350182Y-10401251D01*
X7350182Y-10401251D02*
X7473991Y-10401251D01*
X7702563Y-10467918D02*
X7702563Y-10267918D01*
X7788277Y-10467918D02*
X7788277Y-10363156D01*
X7788277Y-10363156D02*
X7778753Y-10344108D01*
X7778753Y-10344108D02*
X7759706Y-10334584D01*
X7759706Y-10334584D02*
X7731134Y-10334584D01*
X7731134Y-10334584D02*
X7712087Y-10344108D01*
X7712087Y-10344108D02*
X7702563Y-10353632D01*
X7912087Y-10467918D02*
X7893039Y-10458394D01*
X7893039Y-10458394D02*
X7883515Y-10448870D01*
X7883515Y-10448870D02*
X7873991Y-10429823D01*
X7873991Y-10429823D02*
X7873991Y-10372680D01*
X7873991Y-10372680D02*
X7883515Y-10353632D01*
X7883515Y-10353632D02*
X7893039Y-10344108D01*
X7893039Y-10344108D02*
X7912087Y-10334584D01*
X7912087Y-10334584D02*
X7940658Y-10334584D01*
X7940658Y-10334584D02*
X7959706Y-10344108D01*
X7959706Y-10344108D02*
X7969230Y-10353632D01*
X7969230Y-10353632D02*
X7978753Y-10372680D01*
X7978753Y-10372680D02*
X7978753Y-10429823D01*
X7978753Y-10429823D02*
X7969230Y-10448870D01*
X7969230Y-10448870D02*
X7959706Y-10458394D01*
X7959706Y-10458394D02*
X7940658Y-10467918D01*
X7940658Y-10467918D02*
X7912087Y-10467918D01*
X8093039Y-10467918D02*
X8073991Y-10458394D01*
X8073991Y-10458394D02*
X8064468Y-10439346D01*
X8064468Y-10439346D02*
X8064468Y-10267918D01*
X8245420Y-10458394D02*
X8226372Y-10467918D01*
X8226372Y-10467918D02*
X8188277Y-10467918D01*
X8188277Y-10467918D02*
X8169230Y-10458394D01*
X8169230Y-10458394D02*
X8159706Y-10439346D01*
X8159706Y-10439346D02*
X8159706Y-10363156D01*
X8159706Y-10363156D02*
X8169230Y-10344108D01*
X8169230Y-10344108D02*
X8188277Y-10334584D01*
X8188277Y-10334584D02*
X8226372Y-10334584D01*
X8226372Y-10334584D02*
X8245420Y-10344108D01*
X8245420Y-10344108D02*
X8254944Y-10363156D01*
X8254944Y-10363156D02*
X8254944Y-10382204D01*
X8254944Y-10382204D02*
X8159706Y-10401251D01*
X8331134Y-10458394D02*
X8350182Y-10467918D01*
X8350182Y-10467918D02*
X8388277Y-10467918D01*
X8388277Y-10467918D02*
X8407325Y-10458394D01*
X8407325Y-10458394D02*
X8416849Y-10439346D01*
X8416849Y-10439346D02*
X8416849Y-10429823D01*
X8416849Y-10429823D02*
X8407325Y-10410775D01*
X8407325Y-10410775D02*
X8388277Y-10401251D01*
X8388277Y-10401251D02*
X8359706Y-10401251D01*
X8359706Y-10401251D02*
X8340658Y-10391727D01*
X8340658Y-10391727D02*
X8331134Y-10372680D01*
X8331134Y-10372680D02*
X8331134Y-10363156D01*
X8331134Y-10363156D02*
X8340658Y-10344108D01*
X8340658Y-10344108D02*
X8359706Y-10334584D01*
X8359706Y-10334584D02*
X8388277Y-10334584D01*
X8388277Y-10334584D02*
X8407325Y-10344108D01*
X8483515Y-10544108D02*
X8493039Y-10534584D01*
X8493039Y-10534584D02*
X8512087Y-10506013D01*
X8512087Y-10506013D02*
X8521611Y-10486965D01*
X8521611Y-10486965D02*
X8531134Y-10458394D01*
X8531134Y-10458394D02*
X8540658Y-10410775D01*
X8540658Y-10410775D02*
X8540658Y-10372680D01*
X8540658Y-10372680D02*
X8531134Y-10325061D01*
X8531134Y-10325061D02*
X8521611Y-10296489D01*
X8521611Y-10296489D02*
X8512087Y-10277442D01*
X8512087Y-10277442D02*
X8493039Y-10248870D01*
X8493039Y-10248870D02*
X8483515Y-10239346D01*
D13*
X3327500Y-10640434D02*
G75*
G02*
X3247500Y-10640434I-40000J0D01*
G01*
X3247500Y-10640434D02*
G75*
G02*
X3327500Y-10640434I40000J0D01*
G01*
D12*
X3626372Y-10531918D02*
X3645420Y-10531918D01*
X3645420Y-10531918D02*
X3664467Y-10541442D01*
X3664467Y-10541442D02*
X3673991Y-10550965D01*
X3673991Y-10550965D02*
X3683515Y-10570013D01*
X3683515Y-10570013D02*
X3693039Y-10608108D01*
X3693039Y-10608108D02*
X3693039Y-10655727D01*
X3693039Y-10655727D02*
X3683515Y-10693823D01*
X3683515Y-10693823D02*
X3673991Y-10712870D01*
X3673991Y-10712870D02*
X3664467Y-10722394D01*
X3664467Y-10722394D02*
X3645420Y-10731918D01*
X3645420Y-10731918D02*
X3626372Y-10731918D01*
X3626372Y-10731918D02*
X3607324Y-10722394D01*
X3607324Y-10722394D02*
X3597801Y-10712870D01*
X3597801Y-10712870D02*
X3588277Y-10693823D01*
X3588277Y-10693823D02*
X3578753Y-10655727D01*
X3578753Y-10655727D02*
X3578753Y-10608108D01*
X3578753Y-10608108D02*
X3588277Y-10570013D01*
X3588277Y-10570013D02*
X3597801Y-10550965D01*
X3597801Y-10550965D02*
X3607324Y-10541442D01*
X3607324Y-10541442D02*
X3626372Y-10531918D01*
X3778753Y-10712870D02*
X3788277Y-10722394D01*
X3788277Y-10722394D02*
X3778753Y-10731918D01*
X3778753Y-10731918D02*
X3769229Y-10722394D01*
X3769229Y-10722394D02*
X3778753Y-10712870D01*
X3778753Y-10712870D02*
X3778753Y-10731918D01*
X3902562Y-10617632D02*
X3883515Y-10608108D01*
X3883515Y-10608108D02*
X3873991Y-10598584D01*
X3873991Y-10598584D02*
X3864467Y-10579537D01*
X3864467Y-10579537D02*
X3864467Y-10570013D01*
X3864467Y-10570013D02*
X3873991Y-10550965D01*
X3873991Y-10550965D02*
X3883515Y-10541442D01*
X3883515Y-10541442D02*
X3902562Y-10531918D01*
X3902562Y-10531918D02*
X3940658Y-10531918D01*
X3940658Y-10531918D02*
X3959705Y-10541442D01*
X3959705Y-10541442D02*
X3969229Y-10550965D01*
X3969229Y-10550965D02*
X3978753Y-10570013D01*
X3978753Y-10570013D02*
X3978753Y-10579537D01*
X3978753Y-10579537D02*
X3969229Y-10598584D01*
X3969229Y-10598584D02*
X3959705Y-10608108D01*
X3959705Y-10608108D02*
X3940658Y-10617632D01*
X3940658Y-10617632D02*
X3902562Y-10617632D01*
X3902562Y-10617632D02*
X3883515Y-10627156D01*
X3883515Y-10627156D02*
X3873991Y-10636680D01*
X3873991Y-10636680D02*
X3864467Y-10655727D01*
X3864467Y-10655727D02*
X3864467Y-10693823D01*
X3864467Y-10693823D02*
X3873991Y-10712870D01*
X3873991Y-10712870D02*
X3883515Y-10722394D01*
X3883515Y-10722394D02*
X3902562Y-10731918D01*
X3902562Y-10731918D02*
X3940658Y-10731918D01*
X3940658Y-10731918D02*
X3959705Y-10722394D01*
X3959705Y-10722394D02*
X3969229Y-10712870D01*
X3969229Y-10712870D02*
X3978753Y-10693823D01*
X3978753Y-10693823D02*
X3978753Y-10655727D01*
X3978753Y-10655727D02*
X3969229Y-10636680D01*
X3969229Y-10636680D02*
X3959705Y-10627156D01*
X3959705Y-10627156D02*
X3940658Y-10617632D01*
X4102562Y-10531918D02*
X4121610Y-10531918D01*
X4121610Y-10531918D02*
X4140658Y-10541442D01*
X4140658Y-10541442D02*
X4150182Y-10550965D01*
X4150182Y-10550965D02*
X4159705Y-10570013D01*
X4159705Y-10570013D02*
X4169229Y-10608108D01*
X4169229Y-10608108D02*
X4169229Y-10655727D01*
X4169229Y-10655727D02*
X4159705Y-10693823D01*
X4159705Y-10693823D02*
X4150182Y-10712870D01*
X4150182Y-10712870D02*
X4140658Y-10722394D01*
X4140658Y-10722394D02*
X4121610Y-10731918D01*
X4121610Y-10731918D02*
X4102562Y-10731918D01*
X4102562Y-10731918D02*
X4083515Y-10722394D01*
X4083515Y-10722394D02*
X4073991Y-10712870D01*
X4073991Y-10712870D02*
X4064467Y-10693823D01*
X4064467Y-10693823D02*
X4054943Y-10655727D01*
X4054943Y-10655727D02*
X4054943Y-10608108D01*
X4054943Y-10608108D02*
X4064467Y-10570013D01*
X4064467Y-10570013D02*
X4073991Y-10550965D01*
X4073991Y-10550965D02*
X4083515Y-10541442D01*
X4083515Y-10541442D02*
X4102562Y-10531918D01*
X4293039Y-10531918D02*
X4312086Y-10531918D01*
X4312086Y-10531918D02*
X4331134Y-10541442D01*
X4331134Y-10541442D02*
X4340658Y-10550965D01*
X4340658Y-10550965D02*
X4350182Y-10570013D01*
X4350182Y-10570013D02*
X4359705Y-10608108D01*
X4359705Y-10608108D02*
X4359705Y-10655727D01*
X4359705Y-10655727D02*
X4350182Y-10693823D01*
X4350182Y-10693823D02*
X4340658Y-10712870D01*
X4340658Y-10712870D02*
X4331134Y-10722394D01*
X4331134Y-10722394D02*
X4312086Y-10731918D01*
X4312086Y-10731918D02*
X4293039Y-10731918D01*
X4293039Y-10731918D02*
X4273991Y-10722394D01*
X4273991Y-10722394D02*
X4264467Y-10712870D01*
X4264467Y-10712870D02*
X4254944Y-10693823D01*
X4254944Y-10693823D02*
X4245420Y-10655727D01*
X4245420Y-10655727D02*
X4245420Y-10608108D01*
X4245420Y-10608108D02*
X4254944Y-10570013D01*
X4254944Y-10570013D02*
X4264467Y-10550965D01*
X4264467Y-10550965D02*
X4273991Y-10541442D01*
X4273991Y-10541442D02*
X4293039Y-10531918D01*
X4445420Y-10731918D02*
X4445420Y-10598584D01*
X4445420Y-10617632D02*
X4454944Y-10608108D01*
X4454944Y-10608108D02*
X4473991Y-10598584D01*
X4473991Y-10598584D02*
X4502563Y-10598584D01*
X4502563Y-10598584D02*
X4521610Y-10608108D01*
X4521610Y-10608108D02*
X4531134Y-10627156D01*
X4531134Y-10627156D02*
X4531134Y-10731918D01*
X4531134Y-10627156D02*
X4540658Y-10608108D01*
X4540658Y-10608108D02*
X4559705Y-10598584D01*
X4559705Y-10598584D02*
X4588277Y-10598584D01*
X4588277Y-10598584D02*
X4607325Y-10608108D01*
X4607325Y-10608108D02*
X4616848Y-10627156D01*
X4616848Y-10627156D02*
X4616848Y-10731918D01*
X4712086Y-10731918D02*
X4712086Y-10598584D01*
X4712086Y-10617632D02*
X4721610Y-10608108D01*
X4721610Y-10608108D02*
X4740658Y-10598584D01*
X4740658Y-10598584D02*
X4769229Y-10598584D01*
X4769229Y-10598584D02*
X4788277Y-10608108D01*
X4788277Y-10608108D02*
X4797801Y-10627156D01*
X4797801Y-10627156D02*
X4797801Y-10731918D01*
X4797801Y-10627156D02*
X4807325Y-10608108D01*
X4807325Y-10608108D02*
X4826372Y-10598584D01*
X4826372Y-10598584D02*
X4854944Y-10598584D01*
X4854944Y-10598584D02*
X4873991Y-10608108D01*
X4873991Y-10608108D02*
X4883515Y-10627156D01*
X4883515Y-10627156D02*
X4883515Y-10731918D01*
X5273991Y-10522394D02*
X5102563Y-10779537D01*
X5531134Y-10531918D02*
X5550182Y-10531918D01*
X5550182Y-10531918D02*
X5569229Y-10541442D01*
X5569229Y-10541442D02*
X5578753Y-10550965D01*
X5578753Y-10550965D02*
X5588277Y-10570013D01*
X5588277Y-10570013D02*
X5597801Y-10608108D01*
X5597801Y-10608108D02*
X5597801Y-10655727D01*
X5597801Y-10655727D02*
X5588277Y-10693823D01*
X5588277Y-10693823D02*
X5578753Y-10712870D01*
X5578753Y-10712870D02*
X5569229Y-10722394D01*
X5569229Y-10722394D02*
X5550182Y-10731918D01*
X5550182Y-10731918D02*
X5531134Y-10731918D01*
X5531134Y-10731918D02*
X5512087Y-10722394D01*
X5512087Y-10722394D02*
X5502563Y-10712870D01*
X5502563Y-10712870D02*
X5493039Y-10693823D01*
X5493039Y-10693823D02*
X5483515Y-10655727D01*
X5483515Y-10655727D02*
X5483515Y-10608108D01*
X5483515Y-10608108D02*
X5493039Y-10570013D01*
X5493039Y-10570013D02*
X5502563Y-10550965D01*
X5502563Y-10550965D02*
X5512087Y-10541442D01*
X5512087Y-10541442D02*
X5531134Y-10531918D01*
X5683515Y-10712870D02*
X5693039Y-10722394D01*
X5693039Y-10722394D02*
X5683515Y-10731918D01*
X5683515Y-10731918D02*
X5673991Y-10722394D01*
X5673991Y-10722394D02*
X5683515Y-10712870D01*
X5683515Y-10712870D02*
X5683515Y-10731918D01*
X5816848Y-10531918D02*
X5835896Y-10531918D01*
X5835896Y-10531918D02*
X5854944Y-10541442D01*
X5854944Y-10541442D02*
X5864467Y-10550965D01*
X5864467Y-10550965D02*
X5873991Y-10570013D01*
X5873991Y-10570013D02*
X5883515Y-10608108D01*
X5883515Y-10608108D02*
X5883515Y-10655727D01*
X5883515Y-10655727D02*
X5873991Y-10693823D01*
X5873991Y-10693823D02*
X5864467Y-10712870D01*
X5864467Y-10712870D02*
X5854944Y-10722394D01*
X5854944Y-10722394D02*
X5835896Y-10731918D01*
X5835896Y-10731918D02*
X5816848Y-10731918D01*
X5816848Y-10731918D02*
X5797801Y-10722394D01*
X5797801Y-10722394D02*
X5788277Y-10712870D01*
X5788277Y-10712870D02*
X5778753Y-10693823D01*
X5778753Y-10693823D02*
X5769229Y-10655727D01*
X5769229Y-10655727D02*
X5769229Y-10608108D01*
X5769229Y-10608108D02*
X5778753Y-10570013D01*
X5778753Y-10570013D02*
X5788277Y-10550965D01*
X5788277Y-10550965D02*
X5797801Y-10541442D01*
X5797801Y-10541442D02*
X5816848Y-10531918D01*
X5950182Y-10531918D02*
X6073991Y-10531918D01*
X6073991Y-10531918D02*
X6007325Y-10608108D01*
X6007325Y-10608108D02*
X6035896Y-10608108D01*
X6035896Y-10608108D02*
X6054944Y-10617632D01*
X6054944Y-10617632D02*
X6064467Y-10627156D01*
X6064467Y-10627156D02*
X6073991Y-10646204D01*
X6073991Y-10646204D02*
X6073991Y-10693823D01*
X6073991Y-10693823D02*
X6064467Y-10712870D01*
X6064467Y-10712870D02*
X6054944Y-10722394D01*
X6054944Y-10722394D02*
X6035896Y-10731918D01*
X6035896Y-10731918D02*
X5978753Y-10731918D01*
X5978753Y-10731918D02*
X5959706Y-10722394D01*
X5959706Y-10722394D02*
X5950182Y-10712870D01*
X6264467Y-10731918D02*
X6150182Y-10731918D01*
X6207325Y-10731918D02*
X6207325Y-10531918D01*
X6207325Y-10531918D02*
X6188277Y-10560489D01*
X6188277Y-10560489D02*
X6169229Y-10579537D01*
X6169229Y-10579537D02*
X6150182Y-10589061D01*
X6445420Y-10531918D02*
X6350182Y-10531918D01*
X6350182Y-10531918D02*
X6340658Y-10627156D01*
X6340658Y-10627156D02*
X6350182Y-10617632D01*
X6350182Y-10617632D02*
X6369229Y-10608108D01*
X6369229Y-10608108D02*
X6416848Y-10608108D01*
X6416848Y-10608108D02*
X6435896Y-10617632D01*
X6435896Y-10617632D02*
X6445420Y-10627156D01*
X6445420Y-10627156D02*
X6454944Y-10646204D01*
X6454944Y-10646204D02*
X6454944Y-10693823D01*
X6454944Y-10693823D02*
X6445420Y-10712870D01*
X6445420Y-10712870D02*
X6435896Y-10722394D01*
X6435896Y-10722394D02*
X6416848Y-10731918D01*
X6416848Y-10731918D02*
X6369229Y-10731918D01*
X6369229Y-10731918D02*
X6350182Y-10722394D01*
X6350182Y-10722394D02*
X6340658Y-10712870D01*
X6531134Y-10531918D02*
X6531134Y-10570013D01*
X6607325Y-10531918D02*
X6607325Y-10570013D01*
X6902563Y-10808108D02*
X6893039Y-10798584D01*
X6893039Y-10798584D02*
X6873991Y-10770013D01*
X6873991Y-10770013D02*
X6864468Y-10750965D01*
X6864468Y-10750965D02*
X6854944Y-10722394D01*
X6854944Y-10722394D02*
X6845420Y-10674775D01*
X6845420Y-10674775D02*
X6845420Y-10636680D01*
X6845420Y-10636680D02*
X6854944Y-10589061D01*
X6854944Y-10589061D02*
X6864468Y-10560489D01*
X6864468Y-10560489D02*
X6873991Y-10541442D01*
X6873991Y-10541442D02*
X6893039Y-10512870D01*
X6893039Y-10512870D02*
X6902563Y-10503346D01*
X7083515Y-10731918D02*
X6969229Y-10731918D01*
X7026372Y-10731918D02*
X7026372Y-10531918D01*
X7026372Y-10531918D02*
X7007325Y-10560489D01*
X7007325Y-10560489D02*
X6988277Y-10579537D01*
X6988277Y-10579537D02*
X6969229Y-10589061D01*
X7159706Y-10550965D02*
X7169229Y-10541442D01*
X7169229Y-10541442D02*
X7188277Y-10531918D01*
X7188277Y-10531918D02*
X7235896Y-10531918D01*
X7235896Y-10531918D02*
X7254944Y-10541442D01*
X7254944Y-10541442D02*
X7264468Y-10550965D01*
X7264468Y-10550965D02*
X7273991Y-10570013D01*
X7273991Y-10570013D02*
X7273991Y-10589061D01*
X7273991Y-10589061D02*
X7264468Y-10617632D01*
X7264468Y-10617632D02*
X7150182Y-10731918D01*
X7150182Y-10731918D02*
X7273991Y-10731918D01*
X7512087Y-10731918D02*
X7512087Y-10531918D01*
X7597801Y-10731918D02*
X7597801Y-10627156D01*
X7597801Y-10627156D02*
X7588277Y-10608108D01*
X7588277Y-10608108D02*
X7569230Y-10598584D01*
X7569230Y-10598584D02*
X7540658Y-10598584D01*
X7540658Y-10598584D02*
X7521610Y-10608108D01*
X7521610Y-10608108D02*
X7512087Y-10617632D01*
X7721610Y-10731918D02*
X7702563Y-10722394D01*
X7702563Y-10722394D02*
X7693039Y-10712870D01*
X7693039Y-10712870D02*
X7683515Y-10693823D01*
X7683515Y-10693823D02*
X7683515Y-10636680D01*
X7683515Y-10636680D02*
X7693039Y-10617632D01*
X7693039Y-10617632D02*
X7702563Y-10608108D01*
X7702563Y-10608108D02*
X7721610Y-10598584D01*
X7721610Y-10598584D02*
X7750182Y-10598584D01*
X7750182Y-10598584D02*
X7769230Y-10608108D01*
X7769230Y-10608108D02*
X7778753Y-10617632D01*
X7778753Y-10617632D02*
X7788277Y-10636680D01*
X7788277Y-10636680D02*
X7788277Y-10693823D01*
X7788277Y-10693823D02*
X7778753Y-10712870D01*
X7778753Y-10712870D02*
X7769230Y-10722394D01*
X7769230Y-10722394D02*
X7750182Y-10731918D01*
X7750182Y-10731918D02*
X7721610Y-10731918D01*
X7902563Y-10731918D02*
X7883515Y-10722394D01*
X7883515Y-10722394D02*
X7873991Y-10703346D01*
X7873991Y-10703346D02*
X7873991Y-10531918D01*
X8054944Y-10722394D02*
X8035896Y-10731918D01*
X8035896Y-10731918D02*
X7997801Y-10731918D01*
X7997801Y-10731918D02*
X7978753Y-10722394D01*
X7978753Y-10722394D02*
X7969230Y-10703346D01*
X7969230Y-10703346D02*
X7969230Y-10627156D01*
X7969230Y-10627156D02*
X7978753Y-10608108D01*
X7978753Y-10608108D02*
X7997801Y-10598584D01*
X7997801Y-10598584D02*
X8035896Y-10598584D01*
X8035896Y-10598584D02*
X8054944Y-10608108D01*
X8054944Y-10608108D02*
X8064468Y-10627156D01*
X8064468Y-10627156D02*
X8064468Y-10646204D01*
X8064468Y-10646204D02*
X7969230Y-10665251D01*
X8140658Y-10722394D02*
X8159706Y-10731918D01*
X8159706Y-10731918D02*
X8197801Y-10731918D01*
X8197801Y-10731918D02*
X8216849Y-10722394D01*
X8216849Y-10722394D02*
X8226372Y-10703346D01*
X8226372Y-10703346D02*
X8226372Y-10693823D01*
X8226372Y-10693823D02*
X8216849Y-10674775D01*
X8216849Y-10674775D02*
X8197801Y-10665251D01*
X8197801Y-10665251D02*
X8169230Y-10665251D01*
X8169230Y-10665251D02*
X8150182Y-10655727D01*
X8150182Y-10655727D02*
X8140658Y-10636680D01*
X8140658Y-10636680D02*
X8140658Y-10627156D01*
X8140658Y-10627156D02*
X8150182Y-10608108D01*
X8150182Y-10608108D02*
X8169230Y-10598584D01*
X8169230Y-10598584D02*
X8197801Y-10598584D01*
X8197801Y-10598584D02*
X8216849Y-10608108D01*
X8293039Y-10808108D02*
X8302563Y-10798584D01*
X8302563Y-10798584D02*
X8321611Y-10770013D01*
X8321611Y-10770013D02*
X8331134Y-10750965D01*
X8331134Y-10750965D02*
X8340658Y-10722394D01*
X8340658Y-10722394D02*
X8350182Y-10674775D01*
X8350182Y-10674775D02*
X8350182Y-10636680D01*
X8350182Y-10636680D02*
X8340658Y-10589061D01*
X8340658Y-10589061D02*
X8331134Y-10560489D01*
X8331134Y-10560489D02*
X8321611Y-10541442D01*
X8321611Y-10541442D02*
X8302563Y-10512870D01*
X8302563Y-10512870D02*
X8293039Y-10503346D01*
D13*
X3277500Y-10854434D02*
X3277500Y-10954434D01*
X3227500Y-10904434D02*
X3327500Y-10904434D01*
D12*
X3693039Y-10995918D02*
X3578753Y-10995918D01*
X3635896Y-10995918D02*
X3635896Y-10795918D01*
X3635896Y-10795918D02*
X3616848Y-10824489D01*
X3616848Y-10824489D02*
X3597801Y-10843537D01*
X3597801Y-10843537D02*
X3578753Y-10853061D01*
X3778753Y-10976870D02*
X3788277Y-10986394D01*
X3788277Y-10986394D02*
X3778753Y-10995918D01*
X3778753Y-10995918D02*
X3769229Y-10986394D01*
X3769229Y-10986394D02*
X3778753Y-10976870D01*
X3778753Y-10976870D02*
X3778753Y-10995918D01*
X3912086Y-10795918D02*
X3931134Y-10795918D01*
X3931134Y-10795918D02*
X3950182Y-10805442D01*
X3950182Y-10805442D02*
X3959705Y-10814965D01*
X3959705Y-10814965D02*
X3969229Y-10834013D01*
X3969229Y-10834013D02*
X3978753Y-10872108D01*
X3978753Y-10872108D02*
X3978753Y-10919727D01*
X3978753Y-10919727D02*
X3969229Y-10957823D01*
X3969229Y-10957823D02*
X3959705Y-10976870D01*
X3959705Y-10976870D02*
X3950182Y-10986394D01*
X3950182Y-10986394D02*
X3931134Y-10995918D01*
X3931134Y-10995918D02*
X3912086Y-10995918D01*
X3912086Y-10995918D02*
X3893039Y-10986394D01*
X3893039Y-10986394D02*
X3883515Y-10976870D01*
X3883515Y-10976870D02*
X3873991Y-10957823D01*
X3873991Y-10957823D02*
X3864467Y-10919727D01*
X3864467Y-10919727D02*
X3864467Y-10872108D01*
X3864467Y-10872108D02*
X3873991Y-10834013D01*
X3873991Y-10834013D02*
X3883515Y-10814965D01*
X3883515Y-10814965D02*
X3893039Y-10805442D01*
X3893039Y-10805442D02*
X3912086Y-10795918D01*
X4102562Y-10795918D02*
X4121610Y-10795918D01*
X4121610Y-10795918D02*
X4140658Y-10805442D01*
X4140658Y-10805442D02*
X4150182Y-10814965D01*
X4150182Y-10814965D02*
X4159705Y-10834013D01*
X4159705Y-10834013D02*
X4169229Y-10872108D01*
X4169229Y-10872108D02*
X4169229Y-10919727D01*
X4169229Y-10919727D02*
X4159705Y-10957823D01*
X4159705Y-10957823D02*
X4150182Y-10976870D01*
X4150182Y-10976870D02*
X4140658Y-10986394D01*
X4140658Y-10986394D02*
X4121610Y-10995918D01*
X4121610Y-10995918D02*
X4102562Y-10995918D01*
X4102562Y-10995918D02*
X4083515Y-10986394D01*
X4083515Y-10986394D02*
X4073991Y-10976870D01*
X4073991Y-10976870D02*
X4064467Y-10957823D01*
X4064467Y-10957823D02*
X4054943Y-10919727D01*
X4054943Y-10919727D02*
X4054943Y-10872108D01*
X4054943Y-10872108D02*
X4064467Y-10834013D01*
X4064467Y-10834013D02*
X4073991Y-10814965D01*
X4073991Y-10814965D02*
X4083515Y-10805442D01*
X4083515Y-10805442D02*
X4102562Y-10795918D01*
X4293039Y-10795918D02*
X4312086Y-10795918D01*
X4312086Y-10795918D02*
X4331134Y-10805442D01*
X4331134Y-10805442D02*
X4340658Y-10814965D01*
X4340658Y-10814965D02*
X4350182Y-10834013D01*
X4350182Y-10834013D02*
X4359705Y-10872108D01*
X4359705Y-10872108D02*
X4359705Y-10919727D01*
X4359705Y-10919727D02*
X4350182Y-10957823D01*
X4350182Y-10957823D02*
X4340658Y-10976870D01*
X4340658Y-10976870D02*
X4331134Y-10986394D01*
X4331134Y-10986394D02*
X4312086Y-10995918D01*
X4312086Y-10995918D02*
X4293039Y-10995918D01*
X4293039Y-10995918D02*
X4273991Y-10986394D01*
X4273991Y-10986394D02*
X4264467Y-10976870D01*
X4264467Y-10976870D02*
X4254944Y-10957823D01*
X4254944Y-10957823D02*
X4245420Y-10919727D01*
X4245420Y-10919727D02*
X4245420Y-10872108D01*
X4245420Y-10872108D02*
X4254944Y-10834013D01*
X4254944Y-10834013D02*
X4264467Y-10814965D01*
X4264467Y-10814965D02*
X4273991Y-10805442D01*
X4273991Y-10805442D02*
X4293039Y-10795918D01*
X4445420Y-10995918D02*
X4445420Y-10862584D01*
X4445420Y-10881632D02*
X4454944Y-10872108D01*
X4454944Y-10872108D02*
X4473991Y-10862584D01*
X4473991Y-10862584D02*
X4502563Y-10862584D01*
X4502563Y-10862584D02*
X4521610Y-10872108D01*
X4521610Y-10872108D02*
X4531134Y-10891156D01*
X4531134Y-10891156D02*
X4531134Y-10995918D01*
X4531134Y-10891156D02*
X4540658Y-10872108D01*
X4540658Y-10872108D02*
X4559705Y-10862584D01*
X4559705Y-10862584D02*
X4588277Y-10862584D01*
X4588277Y-10862584D02*
X4607325Y-10872108D01*
X4607325Y-10872108D02*
X4616848Y-10891156D01*
X4616848Y-10891156D02*
X4616848Y-10995918D01*
X4712086Y-10995918D02*
X4712086Y-10862584D01*
X4712086Y-10881632D02*
X4721610Y-10872108D01*
X4721610Y-10872108D02*
X4740658Y-10862584D01*
X4740658Y-10862584D02*
X4769229Y-10862584D01*
X4769229Y-10862584D02*
X4788277Y-10872108D01*
X4788277Y-10872108D02*
X4797801Y-10891156D01*
X4797801Y-10891156D02*
X4797801Y-10995918D01*
X4797801Y-10891156D02*
X4807325Y-10872108D01*
X4807325Y-10872108D02*
X4826372Y-10862584D01*
X4826372Y-10862584D02*
X4854944Y-10862584D01*
X4854944Y-10862584D02*
X4873991Y-10872108D01*
X4873991Y-10872108D02*
X4883515Y-10891156D01*
X4883515Y-10891156D02*
X4883515Y-10995918D01*
X5273991Y-10786394D02*
X5102563Y-11043537D01*
X5531134Y-10795918D02*
X5550182Y-10795918D01*
X5550182Y-10795918D02*
X5569229Y-10805442D01*
X5569229Y-10805442D02*
X5578753Y-10814965D01*
X5578753Y-10814965D02*
X5588277Y-10834013D01*
X5588277Y-10834013D02*
X5597801Y-10872108D01*
X5597801Y-10872108D02*
X5597801Y-10919727D01*
X5597801Y-10919727D02*
X5588277Y-10957823D01*
X5588277Y-10957823D02*
X5578753Y-10976870D01*
X5578753Y-10976870D02*
X5569229Y-10986394D01*
X5569229Y-10986394D02*
X5550182Y-10995918D01*
X5550182Y-10995918D02*
X5531134Y-10995918D01*
X5531134Y-10995918D02*
X5512087Y-10986394D01*
X5512087Y-10986394D02*
X5502563Y-10976870D01*
X5502563Y-10976870D02*
X5493039Y-10957823D01*
X5493039Y-10957823D02*
X5483515Y-10919727D01*
X5483515Y-10919727D02*
X5483515Y-10872108D01*
X5483515Y-10872108D02*
X5493039Y-10834013D01*
X5493039Y-10834013D02*
X5502563Y-10814965D01*
X5502563Y-10814965D02*
X5512087Y-10805442D01*
X5512087Y-10805442D02*
X5531134Y-10795918D01*
X5683515Y-10976870D02*
X5693039Y-10986394D01*
X5693039Y-10986394D02*
X5683515Y-10995918D01*
X5683515Y-10995918D02*
X5673991Y-10986394D01*
X5673991Y-10986394D02*
X5683515Y-10976870D01*
X5683515Y-10976870D02*
X5683515Y-10995918D01*
X5816848Y-10795918D02*
X5835896Y-10795918D01*
X5835896Y-10795918D02*
X5854944Y-10805442D01*
X5854944Y-10805442D02*
X5864467Y-10814965D01*
X5864467Y-10814965D02*
X5873991Y-10834013D01*
X5873991Y-10834013D02*
X5883515Y-10872108D01*
X5883515Y-10872108D02*
X5883515Y-10919727D01*
X5883515Y-10919727D02*
X5873991Y-10957823D01*
X5873991Y-10957823D02*
X5864467Y-10976870D01*
X5864467Y-10976870D02*
X5854944Y-10986394D01*
X5854944Y-10986394D02*
X5835896Y-10995918D01*
X5835896Y-10995918D02*
X5816848Y-10995918D01*
X5816848Y-10995918D02*
X5797801Y-10986394D01*
X5797801Y-10986394D02*
X5788277Y-10976870D01*
X5788277Y-10976870D02*
X5778753Y-10957823D01*
X5778753Y-10957823D02*
X5769229Y-10919727D01*
X5769229Y-10919727D02*
X5769229Y-10872108D01*
X5769229Y-10872108D02*
X5778753Y-10834013D01*
X5778753Y-10834013D02*
X5788277Y-10814965D01*
X5788277Y-10814965D02*
X5797801Y-10805442D01*
X5797801Y-10805442D02*
X5816848Y-10795918D01*
X5950182Y-10795918D02*
X6073991Y-10795918D01*
X6073991Y-10795918D02*
X6007325Y-10872108D01*
X6007325Y-10872108D02*
X6035896Y-10872108D01*
X6035896Y-10872108D02*
X6054944Y-10881632D01*
X6054944Y-10881632D02*
X6064467Y-10891156D01*
X6064467Y-10891156D02*
X6073991Y-10910204D01*
X6073991Y-10910204D02*
X6073991Y-10957823D01*
X6073991Y-10957823D02*
X6064467Y-10976870D01*
X6064467Y-10976870D02*
X6054944Y-10986394D01*
X6054944Y-10986394D02*
X6035896Y-10995918D01*
X6035896Y-10995918D02*
X5978753Y-10995918D01*
X5978753Y-10995918D02*
X5959706Y-10986394D01*
X5959706Y-10986394D02*
X5950182Y-10976870D01*
X6169229Y-10995918D02*
X6207325Y-10995918D01*
X6207325Y-10995918D02*
X6226372Y-10986394D01*
X6226372Y-10986394D02*
X6235896Y-10976870D01*
X6235896Y-10976870D02*
X6254944Y-10948299D01*
X6254944Y-10948299D02*
X6264467Y-10910204D01*
X6264467Y-10910204D02*
X6264467Y-10834013D01*
X6264467Y-10834013D02*
X6254944Y-10814965D01*
X6254944Y-10814965D02*
X6245420Y-10805442D01*
X6245420Y-10805442D02*
X6226372Y-10795918D01*
X6226372Y-10795918D02*
X6188277Y-10795918D01*
X6188277Y-10795918D02*
X6169229Y-10805442D01*
X6169229Y-10805442D02*
X6159706Y-10814965D01*
X6159706Y-10814965D02*
X6150182Y-10834013D01*
X6150182Y-10834013D02*
X6150182Y-10881632D01*
X6150182Y-10881632D02*
X6159706Y-10900680D01*
X6159706Y-10900680D02*
X6169229Y-10910204D01*
X6169229Y-10910204D02*
X6188277Y-10919727D01*
X6188277Y-10919727D02*
X6226372Y-10919727D01*
X6226372Y-10919727D02*
X6245420Y-10910204D01*
X6245420Y-10910204D02*
X6254944Y-10900680D01*
X6254944Y-10900680D02*
X6264467Y-10881632D01*
X6435896Y-10862584D02*
X6435896Y-10995918D01*
X6388277Y-10786394D02*
X6340658Y-10929251D01*
X6340658Y-10929251D02*
X6464467Y-10929251D01*
X6531134Y-10795918D02*
X6531134Y-10834013D01*
X6607325Y-10795918D02*
X6607325Y-10834013D01*
X6902563Y-11072108D02*
X6893039Y-11062584D01*
X6893039Y-11062584D02*
X6873991Y-11034013D01*
X6873991Y-11034013D02*
X6864468Y-11014965D01*
X6864468Y-11014965D02*
X6854944Y-10986394D01*
X6854944Y-10986394D02*
X6845420Y-10938775D01*
X6845420Y-10938775D02*
X6845420Y-10900680D01*
X6845420Y-10900680D02*
X6854944Y-10853061D01*
X6854944Y-10853061D02*
X6864468Y-10824489D01*
X6864468Y-10824489D02*
X6873991Y-10805442D01*
X6873991Y-10805442D02*
X6893039Y-10776870D01*
X6893039Y-10776870D02*
X6902563Y-10767346D01*
X7083515Y-10995918D02*
X6969229Y-10995918D01*
X7026372Y-10995918D02*
X7026372Y-10795918D01*
X7026372Y-10795918D02*
X7007325Y-10824489D01*
X7007325Y-10824489D02*
X6988277Y-10843537D01*
X6988277Y-10843537D02*
X6969229Y-10853061D01*
X7207325Y-10795918D02*
X7226372Y-10795918D01*
X7226372Y-10795918D02*
X7245420Y-10805442D01*
X7245420Y-10805442D02*
X7254944Y-10814965D01*
X7254944Y-10814965D02*
X7264468Y-10834013D01*
X7264468Y-10834013D02*
X7273991Y-10872108D01*
X7273991Y-10872108D02*
X7273991Y-10919727D01*
X7273991Y-10919727D02*
X7264468Y-10957823D01*
X7264468Y-10957823D02*
X7254944Y-10976870D01*
X7254944Y-10976870D02*
X7245420Y-10986394D01*
X7245420Y-10986394D02*
X7226372Y-10995918D01*
X7226372Y-10995918D02*
X7207325Y-10995918D01*
X7207325Y-10995918D02*
X7188277Y-10986394D01*
X7188277Y-10986394D02*
X7178753Y-10976870D01*
X7178753Y-10976870D02*
X7169229Y-10957823D01*
X7169229Y-10957823D02*
X7159706Y-10919727D01*
X7159706Y-10919727D02*
X7159706Y-10872108D01*
X7159706Y-10872108D02*
X7169229Y-10834013D01*
X7169229Y-10834013D02*
X7178753Y-10814965D01*
X7178753Y-10814965D02*
X7188277Y-10805442D01*
X7188277Y-10805442D02*
X7207325Y-10795918D01*
X7512087Y-10995918D02*
X7512087Y-10795918D01*
X7597801Y-10995918D02*
X7597801Y-10891156D01*
X7597801Y-10891156D02*
X7588277Y-10872108D01*
X7588277Y-10872108D02*
X7569230Y-10862584D01*
X7569230Y-10862584D02*
X7540658Y-10862584D01*
X7540658Y-10862584D02*
X7521610Y-10872108D01*
X7521610Y-10872108D02*
X7512087Y-10881632D01*
X7721610Y-10995918D02*
X7702563Y-10986394D01*
X7702563Y-10986394D02*
X7693039Y-10976870D01*
X7693039Y-10976870D02*
X7683515Y-10957823D01*
X7683515Y-10957823D02*
X7683515Y-10900680D01*
X7683515Y-10900680D02*
X7693039Y-10881632D01*
X7693039Y-10881632D02*
X7702563Y-10872108D01*
X7702563Y-10872108D02*
X7721610Y-10862584D01*
X7721610Y-10862584D02*
X7750182Y-10862584D01*
X7750182Y-10862584D02*
X7769230Y-10872108D01*
X7769230Y-10872108D02*
X7778753Y-10881632D01*
X7778753Y-10881632D02*
X7788277Y-10900680D01*
X7788277Y-10900680D02*
X7788277Y-10957823D01*
X7788277Y-10957823D02*
X7778753Y-10976870D01*
X7778753Y-10976870D02*
X7769230Y-10986394D01*
X7769230Y-10986394D02*
X7750182Y-10995918D01*
X7750182Y-10995918D02*
X7721610Y-10995918D01*
X7902563Y-10995918D02*
X7883515Y-10986394D01*
X7883515Y-10986394D02*
X7873991Y-10967346D01*
X7873991Y-10967346D02*
X7873991Y-10795918D01*
X8054944Y-10986394D02*
X8035896Y-10995918D01*
X8035896Y-10995918D02*
X7997801Y-10995918D01*
X7997801Y-10995918D02*
X7978753Y-10986394D01*
X7978753Y-10986394D02*
X7969230Y-10967346D01*
X7969230Y-10967346D02*
X7969230Y-10891156D01*
X7969230Y-10891156D02*
X7978753Y-10872108D01*
X7978753Y-10872108D02*
X7997801Y-10862584D01*
X7997801Y-10862584D02*
X8035896Y-10862584D01*
X8035896Y-10862584D02*
X8054944Y-10872108D01*
X8054944Y-10872108D02*
X8064468Y-10891156D01*
X8064468Y-10891156D02*
X8064468Y-10910204D01*
X8064468Y-10910204D02*
X7969230Y-10929251D01*
X8140658Y-10986394D02*
X8159706Y-10995918D01*
X8159706Y-10995918D02*
X8197801Y-10995918D01*
X8197801Y-10995918D02*
X8216849Y-10986394D01*
X8216849Y-10986394D02*
X8226372Y-10967346D01*
X8226372Y-10967346D02*
X8226372Y-10957823D01*
X8226372Y-10957823D02*
X8216849Y-10938775D01*
X8216849Y-10938775D02*
X8197801Y-10929251D01*
X8197801Y-10929251D02*
X8169230Y-10929251D01*
X8169230Y-10929251D02*
X8150182Y-10919727D01*
X8150182Y-10919727D02*
X8140658Y-10900680D01*
X8140658Y-10900680D02*
X8140658Y-10891156D01*
X8140658Y-10891156D02*
X8150182Y-10872108D01*
X8150182Y-10872108D02*
X8169230Y-10862584D01*
X8169230Y-10862584D02*
X8197801Y-10862584D01*
X8197801Y-10862584D02*
X8216849Y-10872108D01*
X8464468Y-10919727D02*
X8616849Y-10919727D01*
X8540658Y-10995918D02*
X8540658Y-10843537D01*
X8950182Y-10862584D02*
X8950182Y-10995918D01*
X8902563Y-10786394D02*
X8854944Y-10929251D01*
X8854944Y-10929251D02*
X8978754Y-10929251D01*
X9197801Y-10986394D02*
X9216849Y-10995918D01*
X9216849Y-10995918D02*
X9254944Y-10995918D01*
X9254944Y-10995918D02*
X9273992Y-10986394D01*
X9273992Y-10986394D02*
X9283516Y-10967346D01*
X9283516Y-10967346D02*
X9283516Y-10957823D01*
X9283516Y-10957823D02*
X9273992Y-10938775D01*
X9273992Y-10938775D02*
X9254944Y-10929251D01*
X9254944Y-10929251D02*
X9226373Y-10929251D01*
X9226373Y-10929251D02*
X9207325Y-10919727D01*
X9207325Y-10919727D02*
X9197801Y-10900680D01*
X9197801Y-10900680D02*
X9197801Y-10891156D01*
X9197801Y-10891156D02*
X9207325Y-10872108D01*
X9207325Y-10872108D02*
X9226373Y-10862584D01*
X9226373Y-10862584D02*
X9254944Y-10862584D01*
X9254944Y-10862584D02*
X9273992Y-10872108D01*
X9397801Y-10995918D02*
X9378754Y-10986394D01*
X9378754Y-10986394D02*
X9369230Y-10967346D01*
X9369230Y-10967346D02*
X9369230Y-10795918D01*
X9502563Y-10995918D02*
X9483516Y-10986394D01*
X9483516Y-10986394D02*
X9473992Y-10976870D01*
X9473992Y-10976870D02*
X9464468Y-10957823D01*
X9464468Y-10957823D02*
X9464468Y-10900680D01*
X9464468Y-10900680D02*
X9473992Y-10881632D01*
X9473992Y-10881632D02*
X9483516Y-10872108D01*
X9483516Y-10872108D02*
X9502563Y-10862584D01*
X9502563Y-10862584D02*
X9531135Y-10862584D01*
X9531135Y-10862584D02*
X9550182Y-10872108D01*
X9550182Y-10872108D02*
X9559706Y-10881632D01*
X9559706Y-10881632D02*
X9569230Y-10900680D01*
X9569230Y-10900680D02*
X9569230Y-10957823D01*
X9569230Y-10957823D02*
X9559706Y-10976870D01*
X9559706Y-10976870D02*
X9550182Y-10986394D01*
X9550182Y-10986394D02*
X9531135Y-10995918D01*
X9531135Y-10995918D02*
X9502563Y-10995918D01*
X9626373Y-10862584D02*
X9702563Y-10862584D01*
X9654944Y-10795918D02*
X9654944Y-10967346D01*
X9654944Y-10967346D02*
X9664468Y-10986394D01*
X9664468Y-10986394D02*
X9683516Y-10995918D01*
X9683516Y-10995918D02*
X9702563Y-10995918D01*
X9759706Y-10986394D02*
X9778754Y-10995918D01*
X9778754Y-10995918D02*
X9816849Y-10995918D01*
X9816849Y-10995918D02*
X9835897Y-10986394D01*
X9835897Y-10986394D02*
X9845420Y-10967346D01*
X9845420Y-10967346D02*
X9845420Y-10957823D01*
X9845420Y-10957823D02*
X9835897Y-10938775D01*
X9835897Y-10938775D02*
X9816849Y-10929251D01*
X9816849Y-10929251D02*
X9788277Y-10929251D01*
X9788277Y-10929251D02*
X9769230Y-10919727D01*
X9769230Y-10919727D02*
X9759706Y-10900680D01*
X9759706Y-10900680D02*
X9759706Y-10891156D01*
X9759706Y-10891156D02*
X9769230Y-10872108D01*
X9769230Y-10872108D02*
X9788277Y-10862584D01*
X9788277Y-10862584D02*
X9816849Y-10862584D01*
X9816849Y-10862584D02*
X9835897Y-10872108D01*
X9912087Y-11072108D02*
X9921611Y-11062584D01*
X9921611Y-11062584D02*
X9940658Y-11034013D01*
X9940658Y-11034013D02*
X9950182Y-11014965D01*
X9950182Y-11014965D02*
X9959706Y-10986394D01*
X9959706Y-10986394D02*
X9969230Y-10938775D01*
X9969230Y-10938775D02*
X9969230Y-10900680D01*
X9969230Y-10900680D02*
X9959706Y-10853061D01*
X9959706Y-10853061D02*
X9950182Y-10824489D01*
X9950182Y-10824489D02*
X9940658Y-10805442D01*
X9940658Y-10805442D02*
X9921611Y-10776870D01*
X9921611Y-10776870D02*
X9912087Y-10767346D01*
D14*
X3309927Y-11210861D02*
X3309927Y-11126007D01*
X3225073Y-11126007D01*
X3225073Y-11210861D01*
X3309927Y-11210861D01*
D12*
X3693039Y-11259918D02*
X3578753Y-11259918D01*
X3635896Y-11259918D02*
X3635896Y-11059918D01*
X3635896Y-11059918D02*
X3616848Y-11088489D01*
X3616848Y-11088489D02*
X3597801Y-11107537D01*
X3597801Y-11107537D02*
X3578753Y-11117061D01*
X3778753Y-11240870D02*
X3788277Y-11250394D01*
X3788277Y-11250394D02*
X3778753Y-11259918D01*
X3778753Y-11259918D02*
X3769229Y-11250394D01*
X3769229Y-11250394D02*
X3778753Y-11240870D01*
X3778753Y-11240870D02*
X3778753Y-11259918D01*
X3864467Y-11078965D02*
X3873991Y-11069442D01*
X3873991Y-11069442D02*
X3893039Y-11059918D01*
X3893039Y-11059918D02*
X3940658Y-11059918D01*
X3940658Y-11059918D02*
X3959705Y-11069442D01*
X3959705Y-11069442D02*
X3969229Y-11078965D01*
X3969229Y-11078965D02*
X3978753Y-11098013D01*
X3978753Y-11098013D02*
X3978753Y-11117061D01*
X3978753Y-11117061D02*
X3969229Y-11145632D01*
X3969229Y-11145632D02*
X3854943Y-11259918D01*
X3854943Y-11259918D02*
X3978753Y-11259918D01*
X4102562Y-11059918D02*
X4121610Y-11059918D01*
X4121610Y-11059918D02*
X4140658Y-11069442D01*
X4140658Y-11069442D02*
X4150182Y-11078965D01*
X4150182Y-11078965D02*
X4159705Y-11098013D01*
X4159705Y-11098013D02*
X4169229Y-11136108D01*
X4169229Y-11136108D02*
X4169229Y-11183727D01*
X4169229Y-11183727D02*
X4159705Y-11221822D01*
X4159705Y-11221822D02*
X4150182Y-11240870D01*
X4150182Y-11240870D02*
X4140658Y-11250394D01*
X4140658Y-11250394D02*
X4121610Y-11259918D01*
X4121610Y-11259918D02*
X4102562Y-11259918D01*
X4102562Y-11259918D02*
X4083515Y-11250394D01*
X4083515Y-11250394D02*
X4073991Y-11240870D01*
X4073991Y-11240870D02*
X4064467Y-11221822D01*
X4064467Y-11221822D02*
X4054943Y-11183727D01*
X4054943Y-11183727D02*
X4054943Y-11136108D01*
X4054943Y-11136108D02*
X4064467Y-11098013D01*
X4064467Y-11098013D02*
X4073991Y-11078965D01*
X4073991Y-11078965D02*
X4083515Y-11069442D01*
X4083515Y-11069442D02*
X4102562Y-11059918D01*
X4293039Y-11059918D02*
X4312086Y-11059918D01*
X4312086Y-11059918D02*
X4331134Y-11069442D01*
X4331134Y-11069442D02*
X4340658Y-11078965D01*
X4340658Y-11078965D02*
X4350182Y-11098013D01*
X4350182Y-11098013D02*
X4359705Y-11136108D01*
X4359705Y-11136108D02*
X4359705Y-11183727D01*
X4359705Y-11183727D02*
X4350182Y-11221822D01*
X4350182Y-11221822D02*
X4340658Y-11240870D01*
X4340658Y-11240870D02*
X4331134Y-11250394D01*
X4331134Y-11250394D02*
X4312086Y-11259918D01*
X4312086Y-11259918D02*
X4293039Y-11259918D01*
X4293039Y-11259918D02*
X4273991Y-11250394D01*
X4273991Y-11250394D02*
X4264467Y-11240870D01*
X4264467Y-11240870D02*
X4254944Y-11221822D01*
X4254944Y-11221822D02*
X4245420Y-11183727D01*
X4245420Y-11183727D02*
X4245420Y-11136108D01*
X4245420Y-11136108D02*
X4254944Y-11098013D01*
X4254944Y-11098013D02*
X4264467Y-11078965D01*
X4264467Y-11078965D02*
X4273991Y-11069442D01*
X4273991Y-11069442D02*
X4293039Y-11059918D01*
X4445420Y-11259918D02*
X4445420Y-11126584D01*
X4445420Y-11145632D02*
X4454944Y-11136108D01*
X4454944Y-11136108D02*
X4473991Y-11126584D01*
X4473991Y-11126584D02*
X4502563Y-11126584D01*
X4502563Y-11126584D02*
X4521610Y-11136108D01*
X4521610Y-11136108D02*
X4531134Y-11155156D01*
X4531134Y-11155156D02*
X4531134Y-11259918D01*
X4531134Y-11155156D02*
X4540658Y-11136108D01*
X4540658Y-11136108D02*
X4559705Y-11126584D01*
X4559705Y-11126584D02*
X4588277Y-11126584D01*
X4588277Y-11126584D02*
X4607325Y-11136108D01*
X4607325Y-11136108D02*
X4616848Y-11155156D01*
X4616848Y-11155156D02*
X4616848Y-11259918D01*
X4712086Y-11259918D02*
X4712086Y-11126584D01*
X4712086Y-11145632D02*
X4721610Y-11136108D01*
X4721610Y-11136108D02*
X4740658Y-11126584D01*
X4740658Y-11126584D02*
X4769229Y-11126584D01*
X4769229Y-11126584D02*
X4788277Y-11136108D01*
X4788277Y-11136108D02*
X4797801Y-11155156D01*
X4797801Y-11155156D02*
X4797801Y-11259918D01*
X4797801Y-11155156D02*
X4807325Y-11136108D01*
X4807325Y-11136108D02*
X4826372Y-11126584D01*
X4826372Y-11126584D02*
X4854944Y-11126584D01*
X4854944Y-11126584D02*
X4873991Y-11136108D01*
X4873991Y-11136108D02*
X4883515Y-11155156D01*
X4883515Y-11155156D02*
X4883515Y-11259918D01*
X5273991Y-11050394D02*
X5102563Y-11307537D01*
X5531134Y-11059918D02*
X5550182Y-11059918D01*
X5550182Y-11059918D02*
X5569229Y-11069442D01*
X5569229Y-11069442D02*
X5578753Y-11078965D01*
X5578753Y-11078965D02*
X5588277Y-11098013D01*
X5588277Y-11098013D02*
X5597801Y-11136108D01*
X5597801Y-11136108D02*
X5597801Y-11183727D01*
X5597801Y-11183727D02*
X5588277Y-11221822D01*
X5588277Y-11221822D02*
X5578753Y-11240870D01*
X5578753Y-11240870D02*
X5569229Y-11250394D01*
X5569229Y-11250394D02*
X5550182Y-11259918D01*
X5550182Y-11259918D02*
X5531134Y-11259918D01*
X5531134Y-11259918D02*
X5512087Y-11250394D01*
X5512087Y-11250394D02*
X5502563Y-11240870D01*
X5502563Y-11240870D02*
X5493039Y-11221822D01*
X5493039Y-11221822D02*
X5483515Y-11183727D01*
X5483515Y-11183727D02*
X5483515Y-11136108D01*
X5483515Y-11136108D02*
X5493039Y-11098013D01*
X5493039Y-11098013D02*
X5502563Y-11078965D01*
X5502563Y-11078965D02*
X5512087Y-11069442D01*
X5512087Y-11069442D02*
X5531134Y-11059918D01*
X5683515Y-11240870D02*
X5693039Y-11250394D01*
X5693039Y-11250394D02*
X5683515Y-11259918D01*
X5683515Y-11259918D02*
X5673991Y-11250394D01*
X5673991Y-11250394D02*
X5683515Y-11240870D01*
X5683515Y-11240870D02*
X5683515Y-11259918D01*
X5816848Y-11059918D02*
X5835896Y-11059918D01*
X5835896Y-11059918D02*
X5854944Y-11069442D01*
X5854944Y-11069442D02*
X5864467Y-11078965D01*
X5864467Y-11078965D02*
X5873991Y-11098013D01*
X5873991Y-11098013D02*
X5883515Y-11136108D01*
X5883515Y-11136108D02*
X5883515Y-11183727D01*
X5883515Y-11183727D02*
X5873991Y-11221822D01*
X5873991Y-11221822D02*
X5864467Y-11240870D01*
X5864467Y-11240870D02*
X5854944Y-11250394D01*
X5854944Y-11250394D02*
X5835896Y-11259918D01*
X5835896Y-11259918D02*
X5816848Y-11259918D01*
X5816848Y-11259918D02*
X5797801Y-11250394D01*
X5797801Y-11250394D02*
X5788277Y-11240870D01*
X5788277Y-11240870D02*
X5778753Y-11221822D01*
X5778753Y-11221822D02*
X5769229Y-11183727D01*
X5769229Y-11183727D02*
X5769229Y-11136108D01*
X5769229Y-11136108D02*
X5778753Y-11098013D01*
X5778753Y-11098013D02*
X5788277Y-11078965D01*
X5788277Y-11078965D02*
X5797801Y-11069442D01*
X5797801Y-11069442D02*
X5816848Y-11059918D01*
X6054944Y-11126584D02*
X6054944Y-11259918D01*
X6007325Y-11050394D02*
X5959706Y-11193251D01*
X5959706Y-11193251D02*
X6083515Y-11193251D01*
X6140658Y-11059918D02*
X6273991Y-11059918D01*
X6273991Y-11059918D02*
X6188277Y-11259918D01*
X6340658Y-11078965D02*
X6350182Y-11069442D01*
X6350182Y-11069442D02*
X6369229Y-11059918D01*
X6369229Y-11059918D02*
X6416848Y-11059918D01*
X6416848Y-11059918D02*
X6435896Y-11069442D01*
X6435896Y-11069442D02*
X6445420Y-11078965D01*
X6445420Y-11078965D02*
X6454944Y-11098013D01*
X6454944Y-11098013D02*
X6454944Y-11117061D01*
X6454944Y-11117061D02*
X6445420Y-11145632D01*
X6445420Y-11145632D02*
X6331134Y-11259918D01*
X6331134Y-11259918D02*
X6454944Y-11259918D01*
X6531134Y-11059918D02*
X6531134Y-11098013D01*
X6607325Y-11059918D02*
X6607325Y-11098013D01*
X6902563Y-11336108D02*
X6893039Y-11326584D01*
X6893039Y-11326584D02*
X6873991Y-11298013D01*
X6873991Y-11298013D02*
X6864468Y-11278965D01*
X6864468Y-11278965D02*
X6854944Y-11250394D01*
X6854944Y-11250394D02*
X6845420Y-11202775D01*
X6845420Y-11202775D02*
X6845420Y-11164680D01*
X6845420Y-11164680D02*
X6854944Y-11117061D01*
X6854944Y-11117061D02*
X6864468Y-11088489D01*
X6864468Y-11088489D02*
X6873991Y-11069442D01*
X6873991Y-11069442D02*
X6893039Y-11040870D01*
X6893039Y-11040870D02*
X6902563Y-11031346D01*
X7016848Y-11059918D02*
X7035896Y-11059918D01*
X7035896Y-11059918D02*
X7054944Y-11069442D01*
X7054944Y-11069442D02*
X7064468Y-11078965D01*
X7064468Y-11078965D02*
X7073991Y-11098013D01*
X7073991Y-11098013D02*
X7083515Y-11136108D01*
X7083515Y-11136108D02*
X7083515Y-11183727D01*
X7083515Y-11183727D02*
X7073991Y-11221822D01*
X7073991Y-11221822D02*
X7064468Y-11240870D01*
X7064468Y-11240870D02*
X7054944Y-11250394D01*
X7054944Y-11250394D02*
X7035896Y-11259918D01*
X7035896Y-11259918D02*
X7016848Y-11259918D01*
X7016848Y-11259918D02*
X6997801Y-11250394D01*
X6997801Y-11250394D02*
X6988277Y-11240870D01*
X6988277Y-11240870D02*
X6978753Y-11221822D01*
X6978753Y-11221822D02*
X6969229Y-11183727D01*
X6969229Y-11183727D02*
X6969229Y-11136108D01*
X6969229Y-11136108D02*
X6978753Y-11098013D01*
X6978753Y-11098013D02*
X6988277Y-11078965D01*
X6988277Y-11078965D02*
X6997801Y-11069442D01*
X6997801Y-11069442D02*
X7016848Y-11059918D01*
X7321610Y-11259918D02*
X7321610Y-11059918D01*
X7407325Y-11259918D02*
X7407325Y-11155156D01*
X7407325Y-11155156D02*
X7397801Y-11136108D01*
X7397801Y-11136108D02*
X7378753Y-11126584D01*
X7378753Y-11126584D02*
X7350182Y-11126584D01*
X7350182Y-11126584D02*
X7331134Y-11136108D01*
X7331134Y-11136108D02*
X7321610Y-11145632D01*
X7531134Y-11259918D02*
X7512087Y-11250394D01*
X7512087Y-11250394D02*
X7502563Y-11240870D01*
X7502563Y-11240870D02*
X7493039Y-11221822D01*
X7493039Y-11221822D02*
X7493039Y-11164680D01*
X7493039Y-11164680D02*
X7502563Y-11145632D01*
X7502563Y-11145632D02*
X7512087Y-11136108D01*
X7512087Y-11136108D02*
X7531134Y-11126584D01*
X7531134Y-11126584D02*
X7559706Y-11126584D01*
X7559706Y-11126584D02*
X7578753Y-11136108D01*
X7578753Y-11136108D02*
X7588277Y-11145632D01*
X7588277Y-11145632D02*
X7597801Y-11164680D01*
X7597801Y-11164680D02*
X7597801Y-11221822D01*
X7597801Y-11221822D02*
X7588277Y-11240870D01*
X7588277Y-11240870D02*
X7578753Y-11250394D01*
X7578753Y-11250394D02*
X7559706Y-11259918D01*
X7559706Y-11259918D02*
X7531134Y-11259918D01*
X7712087Y-11259918D02*
X7693039Y-11250394D01*
X7693039Y-11250394D02*
X7683515Y-11231346D01*
X7683515Y-11231346D02*
X7683515Y-11059918D01*
X7864468Y-11250394D02*
X7845420Y-11259918D01*
X7845420Y-11259918D02*
X7807325Y-11259918D01*
X7807325Y-11259918D02*
X7788277Y-11250394D01*
X7788277Y-11250394D02*
X7778753Y-11231346D01*
X7778753Y-11231346D02*
X7778753Y-11155156D01*
X7778753Y-11155156D02*
X7788277Y-11136108D01*
X7788277Y-11136108D02*
X7807325Y-11126584D01*
X7807325Y-11126584D02*
X7845420Y-11126584D01*
X7845420Y-11126584D02*
X7864468Y-11136108D01*
X7864468Y-11136108D02*
X7873991Y-11155156D01*
X7873991Y-11155156D02*
X7873991Y-11174204D01*
X7873991Y-11174204D02*
X7778753Y-11193251D01*
X7950182Y-11250394D02*
X7969230Y-11259918D01*
X7969230Y-11259918D02*
X8007325Y-11259918D01*
X8007325Y-11259918D02*
X8026372Y-11250394D01*
X8026372Y-11250394D02*
X8035896Y-11231346D01*
X8035896Y-11231346D02*
X8035896Y-11221822D01*
X8035896Y-11221822D02*
X8026372Y-11202775D01*
X8026372Y-11202775D02*
X8007325Y-11193251D01*
X8007325Y-11193251D02*
X7978753Y-11193251D01*
X7978753Y-11193251D02*
X7959706Y-11183727D01*
X7959706Y-11183727D02*
X7950182Y-11164680D01*
X7950182Y-11164680D02*
X7950182Y-11155156D01*
X7950182Y-11155156D02*
X7959706Y-11136108D01*
X7959706Y-11136108D02*
X7978753Y-11126584D01*
X7978753Y-11126584D02*
X8007325Y-11126584D01*
X8007325Y-11126584D02*
X8026372Y-11136108D01*
X8273992Y-11183727D02*
X8426373Y-11183727D01*
X8350182Y-11259918D02*
X8350182Y-11107537D01*
X8702563Y-11145632D02*
X8683515Y-11136108D01*
X8683515Y-11136108D02*
X8673992Y-11126584D01*
X8673992Y-11126584D02*
X8664468Y-11107537D01*
X8664468Y-11107537D02*
X8664468Y-11098013D01*
X8664468Y-11098013D02*
X8673992Y-11078965D01*
X8673992Y-11078965D02*
X8683515Y-11069442D01*
X8683515Y-11069442D02*
X8702563Y-11059918D01*
X8702563Y-11059918D02*
X8740658Y-11059918D01*
X8740658Y-11059918D02*
X8759706Y-11069442D01*
X8759706Y-11069442D02*
X8769230Y-11078965D01*
X8769230Y-11078965D02*
X8778754Y-11098013D01*
X8778754Y-11098013D02*
X8778754Y-11107537D01*
X8778754Y-11107537D02*
X8769230Y-11126584D01*
X8769230Y-11126584D02*
X8759706Y-11136108D01*
X8759706Y-11136108D02*
X8740658Y-11145632D01*
X8740658Y-11145632D02*
X8702563Y-11145632D01*
X8702563Y-11145632D02*
X8683515Y-11155156D01*
X8683515Y-11155156D02*
X8673992Y-11164680D01*
X8673992Y-11164680D02*
X8664468Y-11183727D01*
X8664468Y-11183727D02*
X8664468Y-11221822D01*
X8664468Y-11221822D02*
X8673992Y-11240870D01*
X8673992Y-11240870D02*
X8683515Y-11250394D01*
X8683515Y-11250394D02*
X8702563Y-11259918D01*
X8702563Y-11259918D02*
X8740658Y-11259918D01*
X8740658Y-11259918D02*
X8759706Y-11250394D01*
X8759706Y-11250394D02*
X8769230Y-11240870D01*
X8769230Y-11240870D02*
X8778754Y-11221822D01*
X8778754Y-11221822D02*
X8778754Y-11183727D01*
X8778754Y-11183727D02*
X8769230Y-11164680D01*
X8769230Y-11164680D02*
X8759706Y-11155156D01*
X8759706Y-11155156D02*
X8740658Y-11145632D01*
X9007325Y-11250394D02*
X9026373Y-11259918D01*
X9026373Y-11259918D02*
X9064468Y-11259918D01*
X9064468Y-11259918D02*
X9083516Y-11250394D01*
X9083516Y-11250394D02*
X9093039Y-11231346D01*
X9093039Y-11231346D02*
X9093039Y-11221822D01*
X9093039Y-11221822D02*
X9083516Y-11202775D01*
X9083516Y-11202775D02*
X9064468Y-11193251D01*
X9064468Y-11193251D02*
X9035896Y-11193251D01*
X9035896Y-11193251D02*
X9016849Y-11183727D01*
X9016849Y-11183727D02*
X9007325Y-11164680D01*
X9007325Y-11164680D02*
X9007325Y-11155156D01*
X9007325Y-11155156D02*
X9016849Y-11136108D01*
X9016849Y-11136108D02*
X9035896Y-11126584D01*
X9035896Y-11126584D02*
X9064468Y-11126584D01*
X9064468Y-11126584D02*
X9083516Y-11136108D01*
X9207325Y-11259918D02*
X9188277Y-11250394D01*
X9188277Y-11250394D02*
X9178754Y-11231346D01*
X9178754Y-11231346D02*
X9178754Y-11059918D01*
X9312087Y-11259918D02*
X9293039Y-11250394D01*
X9293039Y-11250394D02*
X9283516Y-11240870D01*
X9283516Y-11240870D02*
X9273992Y-11221822D01*
X9273992Y-11221822D02*
X9273992Y-11164680D01*
X9273992Y-11164680D02*
X9283516Y-11145632D01*
X9283516Y-11145632D02*
X9293039Y-11136108D01*
X9293039Y-11136108D02*
X9312087Y-11126584D01*
X9312087Y-11126584D02*
X9340658Y-11126584D01*
X9340658Y-11126584D02*
X9359706Y-11136108D01*
X9359706Y-11136108D02*
X9369230Y-11145632D01*
X9369230Y-11145632D02*
X9378754Y-11164680D01*
X9378754Y-11164680D02*
X9378754Y-11221822D01*
X9378754Y-11221822D02*
X9369230Y-11240870D01*
X9369230Y-11240870D02*
X9359706Y-11250394D01*
X9359706Y-11250394D02*
X9340658Y-11259918D01*
X9340658Y-11259918D02*
X9312087Y-11259918D01*
X9435897Y-11126584D02*
X9512087Y-11126584D01*
X9464468Y-11059918D02*
X9464468Y-11231346D01*
X9464468Y-11231346D02*
X9473992Y-11250394D01*
X9473992Y-11250394D02*
X9493039Y-11259918D01*
X9493039Y-11259918D02*
X9512087Y-11259918D01*
X9569230Y-11250394D02*
X9588277Y-11259918D01*
X9588277Y-11259918D02*
X9626373Y-11259918D01*
X9626373Y-11259918D02*
X9645420Y-11250394D01*
X9645420Y-11250394D02*
X9654944Y-11231346D01*
X9654944Y-11231346D02*
X9654944Y-11221822D01*
X9654944Y-11221822D02*
X9645420Y-11202775D01*
X9645420Y-11202775D02*
X9626373Y-11193251D01*
X9626373Y-11193251D02*
X9597801Y-11193251D01*
X9597801Y-11193251D02*
X9578754Y-11183727D01*
X9578754Y-11183727D02*
X9569230Y-11164680D01*
X9569230Y-11164680D02*
X9569230Y-11155156D01*
X9569230Y-11155156D02*
X9578754Y-11136108D01*
X9578754Y-11136108D02*
X9597801Y-11126584D01*
X9597801Y-11126584D02*
X9626373Y-11126584D01*
X9626373Y-11126584D02*
X9645420Y-11136108D01*
X9721611Y-11336108D02*
X9731135Y-11326584D01*
X9731135Y-11326584D02*
X9750182Y-11298013D01*
X9750182Y-11298013D02*
X9759706Y-11278965D01*
X9759706Y-11278965D02*
X9769230Y-11250394D01*
X9769230Y-11250394D02*
X9778754Y-11202775D01*
X9778754Y-11202775D02*
X9778754Y-11164680D01*
X9778754Y-11164680D02*
X9769230Y-11117061D01*
X9769230Y-11117061D02*
X9759706Y-11088489D01*
X9759706Y-11088489D02*
X9750182Y-11069442D01*
X9750182Y-11069442D02*
X9731135Y-11040870D01*
X9731135Y-11040870D02*
X9721611Y-11031346D01*
D15*
X3251500Y-11508434D02*
X3327500Y-11432434D01*
X3251500Y-11356434D01*
X3175500Y-11432434D01*
X3251500Y-11508434D01*
D12*
X3693039Y-11523918D02*
X3578753Y-11523918D01*
X3635896Y-11523918D02*
X3635896Y-11323918D01*
X3635896Y-11323918D02*
X3616848Y-11352489D01*
X3616848Y-11352489D02*
X3597801Y-11371537D01*
X3597801Y-11371537D02*
X3578753Y-11381061D01*
X3778753Y-11504870D02*
X3788277Y-11514394D01*
X3788277Y-11514394D02*
X3778753Y-11523918D01*
X3778753Y-11523918D02*
X3769229Y-11514394D01*
X3769229Y-11514394D02*
X3778753Y-11504870D01*
X3778753Y-11504870D02*
X3778753Y-11523918D01*
X3969229Y-11323918D02*
X3873991Y-11323918D01*
X3873991Y-11323918D02*
X3864467Y-11419156D01*
X3864467Y-11419156D02*
X3873991Y-11409632D01*
X3873991Y-11409632D02*
X3893039Y-11400108D01*
X3893039Y-11400108D02*
X3940658Y-11400108D01*
X3940658Y-11400108D02*
X3959705Y-11409632D01*
X3959705Y-11409632D02*
X3969229Y-11419156D01*
X3969229Y-11419156D02*
X3978753Y-11438203D01*
X3978753Y-11438203D02*
X3978753Y-11485822D01*
X3978753Y-11485822D02*
X3969229Y-11504870D01*
X3969229Y-11504870D02*
X3959705Y-11514394D01*
X3959705Y-11514394D02*
X3940658Y-11523918D01*
X3940658Y-11523918D02*
X3893039Y-11523918D01*
X3893039Y-11523918D02*
X3873991Y-11514394D01*
X3873991Y-11514394D02*
X3864467Y-11504870D01*
X4054943Y-11342965D02*
X4064467Y-11333442D01*
X4064467Y-11333442D02*
X4083515Y-11323918D01*
X4083515Y-11323918D02*
X4131134Y-11323918D01*
X4131134Y-11323918D02*
X4150182Y-11333442D01*
X4150182Y-11333442D02*
X4159705Y-11342965D01*
X4159705Y-11342965D02*
X4169229Y-11362013D01*
X4169229Y-11362013D02*
X4169229Y-11381061D01*
X4169229Y-11381061D02*
X4159705Y-11409632D01*
X4159705Y-11409632D02*
X4045420Y-11523918D01*
X4045420Y-11523918D02*
X4169229Y-11523918D01*
X4293039Y-11323918D02*
X4312086Y-11323918D01*
X4312086Y-11323918D02*
X4331134Y-11333442D01*
X4331134Y-11333442D02*
X4340658Y-11342965D01*
X4340658Y-11342965D02*
X4350182Y-11362013D01*
X4350182Y-11362013D02*
X4359705Y-11400108D01*
X4359705Y-11400108D02*
X4359705Y-11447727D01*
X4359705Y-11447727D02*
X4350182Y-11485822D01*
X4350182Y-11485822D02*
X4340658Y-11504870D01*
X4340658Y-11504870D02*
X4331134Y-11514394D01*
X4331134Y-11514394D02*
X4312086Y-11523918D01*
X4312086Y-11523918D02*
X4293039Y-11523918D01*
X4293039Y-11523918D02*
X4273991Y-11514394D01*
X4273991Y-11514394D02*
X4264467Y-11504870D01*
X4264467Y-11504870D02*
X4254944Y-11485822D01*
X4254944Y-11485822D02*
X4245420Y-11447727D01*
X4245420Y-11447727D02*
X4245420Y-11400108D01*
X4245420Y-11400108D02*
X4254944Y-11362013D01*
X4254944Y-11362013D02*
X4264467Y-11342965D01*
X4264467Y-11342965D02*
X4273991Y-11333442D01*
X4273991Y-11333442D02*
X4293039Y-11323918D01*
X4445420Y-11523918D02*
X4445420Y-11390584D01*
X4445420Y-11409632D02*
X4454944Y-11400108D01*
X4454944Y-11400108D02*
X4473991Y-11390584D01*
X4473991Y-11390584D02*
X4502563Y-11390584D01*
X4502563Y-11390584D02*
X4521610Y-11400108D01*
X4521610Y-11400108D02*
X4531134Y-11419156D01*
X4531134Y-11419156D02*
X4531134Y-11523918D01*
X4531134Y-11419156D02*
X4540658Y-11400108D01*
X4540658Y-11400108D02*
X4559705Y-11390584D01*
X4559705Y-11390584D02*
X4588277Y-11390584D01*
X4588277Y-11390584D02*
X4607325Y-11400108D01*
X4607325Y-11400108D02*
X4616848Y-11419156D01*
X4616848Y-11419156D02*
X4616848Y-11523918D01*
X4712086Y-11523918D02*
X4712086Y-11390584D01*
X4712086Y-11409632D02*
X4721610Y-11400108D01*
X4721610Y-11400108D02*
X4740658Y-11390584D01*
X4740658Y-11390584D02*
X4769229Y-11390584D01*
X4769229Y-11390584D02*
X4788277Y-11400108D01*
X4788277Y-11400108D02*
X4797801Y-11419156D01*
X4797801Y-11419156D02*
X4797801Y-11523918D01*
X4797801Y-11419156D02*
X4807325Y-11400108D01*
X4807325Y-11400108D02*
X4826372Y-11390584D01*
X4826372Y-11390584D02*
X4854944Y-11390584D01*
X4854944Y-11390584D02*
X4873991Y-11400108D01*
X4873991Y-11400108D02*
X4883515Y-11419156D01*
X4883515Y-11419156D02*
X4883515Y-11523918D01*
X5273991Y-11314394D02*
X5102563Y-11571537D01*
X5531134Y-11323918D02*
X5550182Y-11323918D01*
X5550182Y-11323918D02*
X5569229Y-11333442D01*
X5569229Y-11333442D02*
X5578753Y-11342965D01*
X5578753Y-11342965D02*
X5588277Y-11362013D01*
X5588277Y-11362013D02*
X5597801Y-11400108D01*
X5597801Y-11400108D02*
X5597801Y-11447727D01*
X5597801Y-11447727D02*
X5588277Y-11485822D01*
X5588277Y-11485822D02*
X5578753Y-11504870D01*
X5578753Y-11504870D02*
X5569229Y-11514394D01*
X5569229Y-11514394D02*
X5550182Y-11523918D01*
X5550182Y-11523918D02*
X5531134Y-11523918D01*
X5531134Y-11523918D02*
X5512087Y-11514394D01*
X5512087Y-11514394D02*
X5502563Y-11504870D01*
X5502563Y-11504870D02*
X5493039Y-11485822D01*
X5493039Y-11485822D02*
X5483515Y-11447727D01*
X5483515Y-11447727D02*
X5483515Y-11400108D01*
X5483515Y-11400108D02*
X5493039Y-11362013D01*
X5493039Y-11362013D02*
X5502563Y-11342965D01*
X5502563Y-11342965D02*
X5512087Y-11333442D01*
X5512087Y-11333442D02*
X5531134Y-11323918D01*
X5683515Y-11504870D02*
X5693039Y-11514394D01*
X5693039Y-11514394D02*
X5683515Y-11523918D01*
X5683515Y-11523918D02*
X5673991Y-11514394D01*
X5673991Y-11514394D02*
X5683515Y-11504870D01*
X5683515Y-11504870D02*
X5683515Y-11523918D01*
X5816848Y-11323918D02*
X5835896Y-11323918D01*
X5835896Y-11323918D02*
X5854944Y-11333442D01*
X5854944Y-11333442D02*
X5864467Y-11342965D01*
X5864467Y-11342965D02*
X5873991Y-11362013D01*
X5873991Y-11362013D02*
X5883515Y-11400108D01*
X5883515Y-11400108D02*
X5883515Y-11447727D01*
X5883515Y-11447727D02*
X5873991Y-11485822D01*
X5873991Y-11485822D02*
X5864467Y-11504870D01*
X5864467Y-11504870D02*
X5854944Y-11514394D01*
X5854944Y-11514394D02*
X5835896Y-11523918D01*
X5835896Y-11523918D02*
X5816848Y-11523918D01*
X5816848Y-11523918D02*
X5797801Y-11514394D01*
X5797801Y-11514394D02*
X5788277Y-11504870D01*
X5788277Y-11504870D02*
X5778753Y-11485822D01*
X5778753Y-11485822D02*
X5769229Y-11447727D01*
X5769229Y-11447727D02*
X5769229Y-11400108D01*
X5769229Y-11400108D02*
X5778753Y-11362013D01*
X5778753Y-11362013D02*
X5788277Y-11342965D01*
X5788277Y-11342965D02*
X5797801Y-11333442D01*
X5797801Y-11333442D02*
X5816848Y-11323918D01*
X6064467Y-11323918D02*
X5969229Y-11323918D01*
X5969229Y-11323918D02*
X5959706Y-11419156D01*
X5959706Y-11419156D02*
X5969229Y-11409632D01*
X5969229Y-11409632D02*
X5988277Y-11400108D01*
X5988277Y-11400108D02*
X6035896Y-11400108D01*
X6035896Y-11400108D02*
X6054944Y-11409632D01*
X6054944Y-11409632D02*
X6064467Y-11419156D01*
X6064467Y-11419156D02*
X6073991Y-11438203D01*
X6073991Y-11438203D02*
X6073991Y-11485822D01*
X6073991Y-11485822D02*
X6064467Y-11504870D01*
X6064467Y-11504870D02*
X6054944Y-11514394D01*
X6054944Y-11514394D02*
X6035896Y-11523918D01*
X6035896Y-11523918D02*
X5988277Y-11523918D01*
X5988277Y-11523918D02*
X5969229Y-11514394D01*
X5969229Y-11514394D02*
X5959706Y-11504870D01*
X6169229Y-11523918D02*
X6207325Y-11523918D01*
X6207325Y-11523918D02*
X6226372Y-11514394D01*
X6226372Y-11514394D02*
X6235896Y-11504870D01*
X6235896Y-11504870D02*
X6254944Y-11476299D01*
X6254944Y-11476299D02*
X6264467Y-11438203D01*
X6264467Y-11438203D02*
X6264467Y-11362013D01*
X6264467Y-11362013D02*
X6254944Y-11342965D01*
X6254944Y-11342965D02*
X6245420Y-11333442D01*
X6245420Y-11333442D02*
X6226372Y-11323918D01*
X6226372Y-11323918D02*
X6188277Y-11323918D01*
X6188277Y-11323918D02*
X6169229Y-11333442D01*
X6169229Y-11333442D02*
X6159706Y-11342965D01*
X6159706Y-11342965D02*
X6150182Y-11362013D01*
X6150182Y-11362013D02*
X6150182Y-11409632D01*
X6150182Y-11409632D02*
X6159706Y-11428680D01*
X6159706Y-11428680D02*
X6169229Y-11438203D01*
X6169229Y-11438203D02*
X6188277Y-11447727D01*
X6188277Y-11447727D02*
X6226372Y-11447727D01*
X6226372Y-11447727D02*
X6245420Y-11438203D01*
X6245420Y-11438203D02*
X6254944Y-11428680D01*
X6254944Y-11428680D02*
X6264467Y-11409632D01*
X6378753Y-11409632D02*
X6359706Y-11400108D01*
X6359706Y-11400108D02*
X6350182Y-11390584D01*
X6350182Y-11390584D02*
X6340658Y-11371537D01*
X6340658Y-11371537D02*
X6340658Y-11362013D01*
X6340658Y-11362013D02*
X6350182Y-11342965D01*
X6350182Y-11342965D02*
X6359706Y-11333442D01*
X6359706Y-11333442D02*
X6378753Y-11323918D01*
X6378753Y-11323918D02*
X6416848Y-11323918D01*
X6416848Y-11323918D02*
X6435896Y-11333442D01*
X6435896Y-11333442D02*
X6445420Y-11342965D01*
X6445420Y-11342965D02*
X6454944Y-11362013D01*
X6454944Y-11362013D02*
X6454944Y-11371537D01*
X6454944Y-11371537D02*
X6445420Y-11390584D01*
X6445420Y-11390584D02*
X6435896Y-11400108D01*
X6435896Y-11400108D02*
X6416848Y-11409632D01*
X6416848Y-11409632D02*
X6378753Y-11409632D01*
X6378753Y-11409632D02*
X6359706Y-11419156D01*
X6359706Y-11419156D02*
X6350182Y-11428680D01*
X6350182Y-11428680D02*
X6340658Y-11447727D01*
X6340658Y-11447727D02*
X6340658Y-11485822D01*
X6340658Y-11485822D02*
X6350182Y-11504870D01*
X6350182Y-11504870D02*
X6359706Y-11514394D01*
X6359706Y-11514394D02*
X6378753Y-11523918D01*
X6378753Y-11523918D02*
X6416848Y-11523918D01*
X6416848Y-11523918D02*
X6435896Y-11514394D01*
X6435896Y-11514394D02*
X6445420Y-11504870D01*
X6445420Y-11504870D02*
X6454944Y-11485822D01*
X6454944Y-11485822D02*
X6454944Y-11447727D01*
X6454944Y-11447727D02*
X6445420Y-11428680D01*
X6445420Y-11428680D02*
X6435896Y-11419156D01*
X6435896Y-11419156D02*
X6416848Y-11409632D01*
X6531134Y-11323918D02*
X6531134Y-11362013D01*
X6607325Y-11323918D02*
X6607325Y-11362013D01*
X6902563Y-11600108D02*
X6893039Y-11590584D01*
X6893039Y-11590584D02*
X6873991Y-11562013D01*
X6873991Y-11562013D02*
X6864468Y-11542965D01*
X6864468Y-11542965D02*
X6854944Y-11514394D01*
X6854944Y-11514394D02*
X6845420Y-11466775D01*
X6845420Y-11466775D02*
X6845420Y-11428680D01*
X6845420Y-11428680D02*
X6854944Y-11381061D01*
X6854944Y-11381061D02*
X6864468Y-11352489D01*
X6864468Y-11352489D02*
X6873991Y-11333442D01*
X6873991Y-11333442D02*
X6893039Y-11304870D01*
X6893039Y-11304870D02*
X6902563Y-11295346D01*
X6988277Y-11523918D02*
X7026372Y-11523918D01*
X7026372Y-11523918D02*
X7045420Y-11514394D01*
X7045420Y-11514394D02*
X7054944Y-11504870D01*
X7054944Y-11504870D02*
X7073991Y-11476299D01*
X7073991Y-11476299D02*
X7083515Y-11438203D01*
X7083515Y-11438203D02*
X7083515Y-11362013D01*
X7083515Y-11362013D02*
X7073991Y-11342965D01*
X7073991Y-11342965D02*
X7064468Y-11333442D01*
X7064468Y-11333442D02*
X7045420Y-11323918D01*
X7045420Y-11323918D02*
X7007325Y-11323918D01*
X7007325Y-11323918D02*
X6988277Y-11333442D01*
X6988277Y-11333442D02*
X6978753Y-11342965D01*
X6978753Y-11342965D02*
X6969229Y-11362013D01*
X6969229Y-11362013D02*
X6969229Y-11409632D01*
X6969229Y-11409632D02*
X6978753Y-11428680D01*
X6978753Y-11428680D02*
X6988277Y-11438203D01*
X6988277Y-11438203D02*
X7007325Y-11447727D01*
X7007325Y-11447727D02*
X7045420Y-11447727D01*
X7045420Y-11447727D02*
X7064468Y-11438203D01*
X7064468Y-11438203D02*
X7073991Y-11428680D01*
X7073991Y-11428680D02*
X7083515Y-11409632D01*
X7321610Y-11523918D02*
X7321610Y-11323918D01*
X7407325Y-11523918D02*
X7407325Y-11419156D01*
X7407325Y-11419156D02*
X7397801Y-11400108D01*
X7397801Y-11400108D02*
X7378753Y-11390584D01*
X7378753Y-11390584D02*
X7350182Y-11390584D01*
X7350182Y-11390584D02*
X7331134Y-11400108D01*
X7331134Y-11400108D02*
X7321610Y-11409632D01*
X7531134Y-11523918D02*
X7512087Y-11514394D01*
X7512087Y-11514394D02*
X7502563Y-11504870D01*
X7502563Y-11504870D02*
X7493039Y-11485822D01*
X7493039Y-11485822D02*
X7493039Y-11428680D01*
X7493039Y-11428680D02*
X7502563Y-11409632D01*
X7502563Y-11409632D02*
X7512087Y-11400108D01*
X7512087Y-11400108D02*
X7531134Y-11390584D01*
X7531134Y-11390584D02*
X7559706Y-11390584D01*
X7559706Y-11390584D02*
X7578753Y-11400108D01*
X7578753Y-11400108D02*
X7588277Y-11409632D01*
X7588277Y-11409632D02*
X7597801Y-11428680D01*
X7597801Y-11428680D02*
X7597801Y-11485822D01*
X7597801Y-11485822D02*
X7588277Y-11504870D01*
X7588277Y-11504870D02*
X7578753Y-11514394D01*
X7578753Y-11514394D02*
X7559706Y-11523918D01*
X7559706Y-11523918D02*
X7531134Y-11523918D01*
X7712087Y-11523918D02*
X7693039Y-11514394D01*
X7693039Y-11514394D02*
X7683515Y-11495346D01*
X7683515Y-11495346D02*
X7683515Y-11323918D01*
X7864468Y-11514394D02*
X7845420Y-11523918D01*
X7845420Y-11523918D02*
X7807325Y-11523918D01*
X7807325Y-11523918D02*
X7788277Y-11514394D01*
X7788277Y-11514394D02*
X7778753Y-11495346D01*
X7778753Y-11495346D02*
X7778753Y-11419156D01*
X7778753Y-11419156D02*
X7788277Y-11400108D01*
X7788277Y-11400108D02*
X7807325Y-11390584D01*
X7807325Y-11390584D02*
X7845420Y-11390584D01*
X7845420Y-11390584D02*
X7864468Y-11400108D01*
X7864468Y-11400108D02*
X7873991Y-11419156D01*
X7873991Y-11419156D02*
X7873991Y-11438203D01*
X7873991Y-11438203D02*
X7778753Y-11457251D01*
X7950182Y-11514394D02*
X7969230Y-11523918D01*
X7969230Y-11523918D02*
X8007325Y-11523918D01*
X8007325Y-11523918D02*
X8026372Y-11514394D01*
X8026372Y-11514394D02*
X8035896Y-11495346D01*
X8035896Y-11495346D02*
X8035896Y-11485822D01*
X8035896Y-11485822D02*
X8026372Y-11466775D01*
X8026372Y-11466775D02*
X8007325Y-11457251D01*
X8007325Y-11457251D02*
X7978753Y-11457251D01*
X7978753Y-11457251D02*
X7959706Y-11447727D01*
X7959706Y-11447727D02*
X7950182Y-11428680D01*
X7950182Y-11428680D02*
X7950182Y-11419156D01*
X7950182Y-11419156D02*
X7959706Y-11400108D01*
X7959706Y-11400108D02*
X7978753Y-11390584D01*
X7978753Y-11390584D02*
X8007325Y-11390584D01*
X8007325Y-11390584D02*
X8026372Y-11400108D01*
X8102563Y-11600108D02*
X8112087Y-11590584D01*
X8112087Y-11590584D02*
X8131134Y-11562013D01*
X8131134Y-11562013D02*
X8140658Y-11542965D01*
X8140658Y-11542965D02*
X8150182Y-11514394D01*
X8150182Y-11514394D02*
X8159706Y-11466775D01*
X8159706Y-11466775D02*
X8159706Y-11428680D01*
X8159706Y-11428680D02*
X8150182Y-11381061D01*
X8150182Y-11381061D02*
X8140658Y-11352489D01*
X8140658Y-11352489D02*
X8131134Y-11333442D01*
X8131134Y-11333442D02*
X8112087Y-11304870D01*
X8112087Y-11304870D02*
X8102563Y-11295346D01*
M02*
