G04 #@! TF.GenerationSoftware,KiCad,Pcbnew,9.0.3*
G04 #@! TF.CreationDate,2025-08-11T22:09:38-04:00*
G04 #@! TF.ProjectId,Class D Amplifier,436c6173-7320-4442-9041-6d706c696669,rev?*
G04 #@! TF.SameCoordinates,Original*
G04 #@! TF.FileFunction,Soldermask,Top*
G04 #@! TF.FilePolarity,Negative*
%FSLAX46Y46*%
G04 Gerber Fmt 4.6, Leading zero omitted, Abs format (unit mm)*
G04 Created by KiCad (PCBNEW 9.0.3) date 2025-08-11 22:09:38*
%MOMM*%
%LPD*%
G01*
G04 APERTURE LIST*
G04 Aperture macros list*
%AMRoundRect*
0 Rectangle with rounded corners*
0 $1 Rounding radius*
0 $2 $3 $4 $5 $6 $7 $8 $9 X,Y pos of 4 corners*
0 Add a 4 corners polygon primitive as box body*
4,1,4,$2,$3,$4,$5,$6,$7,$8,$9,$2,$3,0*
0 Add four circle primitives for the rounded corners*
1,1,$1+$1,$2,$3*
1,1,$1+$1,$4,$5*
1,1,$1+$1,$6,$7*
1,1,$1+$1,$8,$9*
0 Add four rect primitives between the rounded corners*
20,1,$1+$1,$2,$3,$4,$5,0*
20,1,$1+$1,$4,$5,$6,$7,0*
20,1,$1+$1,$6,$7,$8,$9,0*
20,1,$1+$1,$8,$9,$2,$3,0*%
G04 Aperture macros list end*
%ADD10RoundRect,0.250001X-0.899999X-1.449999X0.899999X-1.449999X0.899999X1.449999X-0.899999X1.449999X0*%
%ADD11RoundRect,0.250000X-0.450000X0.262500X-0.450000X-0.262500X0.450000X-0.262500X0.450000X0.262500X0*%
%ADD12RoundRect,0.250000X0.450000X-0.262500X0.450000X0.262500X-0.450000X0.262500X-0.450000X-0.262500X0*%
%ADD13RoundRect,0.250000X-0.475000X0.250000X-0.475000X-0.250000X0.475000X-0.250000X0.475000X0.250000X0*%
%ADD14RoundRect,0.250000X0.550000X-0.550000X0.550000X0.550000X-0.550000X0.550000X-0.550000X-0.550000X0*%
%ADD15C,1.600000*%
%ADD16RoundRect,0.250000X-0.250000X-0.475000X0.250000X-0.475000X0.250000X0.475000X-0.250000X0.475000X0*%
%ADD17RoundRect,0.153500X0.153500X-0.733500X0.153500X0.733500X-0.153500X0.733500X-0.153500X-0.733500X0*%
%ADD18RoundRect,0.250000X0.250000X0.475000X-0.250000X0.475000X-0.250000X-0.475000X0.250000X-0.475000X0*%
%ADD19RoundRect,0.250001X0.899999X1.449999X-0.899999X1.449999X-0.899999X-1.449999X0.899999X-1.449999X0*%
%ADD20RoundRect,0.225000X0.225000X0.250000X-0.225000X0.250000X-0.225000X-0.250000X0.225000X-0.250000X0*%
%ADD21RoundRect,0.250000X0.750000X0.750000X-0.750000X0.750000X-0.750000X-0.750000X0.750000X-0.750000X0*%
%ADD22C,2.000000*%
%ADD23RoundRect,0.150000X-0.512500X-0.150000X0.512500X-0.150000X0.512500X0.150000X-0.512500X0.150000X0*%
%ADD24RoundRect,0.250000X0.475000X-0.250000X0.475000X0.250000X-0.475000X0.250000X-0.475000X-0.250000X0*%
%ADD25R,3.000000X3.000000*%
%ADD26C,3.000000*%
%ADD27RoundRect,0.450000X-0.450000X0.450000X-0.450000X-0.450000X0.450000X-0.450000X0.450000X0.450000X0*%
%ADD28C,1.800000*%
%ADD29RoundRect,0.200000X-0.275000X0.200000X-0.275000X-0.200000X0.275000X-0.200000X0.275000X0.200000X0*%
%ADD30RoundRect,0.250000X-0.262500X-0.450000X0.262500X-0.450000X0.262500X0.450000X-0.262500X0.450000X0*%
%ADD31RoundRect,0.102000X-0.350000X-0.125000X0.350000X-0.125000X0.350000X0.125000X-0.350000X0.125000X0*%
%ADD32RoundRect,0.102000X-0.125000X-1.700000X0.125000X-1.700000X0.125000X1.700000X-0.125000X1.700000X0*%
%ADD33RoundRect,0.200000X-0.200000X-0.275000X0.200000X-0.275000X0.200000X0.275000X-0.200000X0.275000X0*%
%ADD34RoundRect,0.225000X-0.375000X0.225000X-0.375000X-0.225000X0.375000X-0.225000X0.375000X0.225000X0*%
%ADD35RoundRect,0.250002X-1.799998X1.799998X-1.799998X-1.799998X1.799998X-1.799998X1.799998X1.799998X0*%
%ADD36RoundRect,0.225000X-0.250000X0.225000X-0.250000X-0.225000X0.250000X-0.225000X0.250000X0.225000X0*%
%ADD37RoundRect,0.150000X0.150000X-0.825000X0.150000X0.825000X-0.150000X0.825000X-0.150000X-0.825000X0*%
%ADD38R,2.000000X4.000000*%
%ADD39O,2.000000X3.300000*%
%ADD40O,3.500000X2.000000*%
%ADD41O,2.400000X1.600000*%
%ADD42RoundRect,0.225000X0.375000X-0.225000X0.375000X0.225000X-0.375000X0.225000X-0.375000X-0.225000X0*%
%ADD43RoundRect,0.250000X-0.550000X0.550000X-0.550000X-0.550000X0.550000X-0.550000X0.550000X0.550000X0*%
%ADD44RoundRect,0.250000X0.262500X0.450000X-0.262500X0.450000X-0.262500X-0.450000X0.262500X-0.450000X0*%
G04 APERTURE END LIST*
D10*
G04 #@! TO.C,L3*
X43000000Y-42900000D03*
X48700000Y-42900000D03*
G04 #@! TD*
D11*
G04 #@! TO.C,R4*
X61569193Y-92769984D03*
X61569193Y-94594984D03*
G04 #@! TD*
D12*
G04 #@! TO.C,R6*
X72500000Y-83412500D03*
X72500000Y-81587500D03*
G04 #@! TD*
D13*
G04 #@! TO.C,C37*
X67000000Y-51750000D03*
X67000000Y-53650000D03*
G04 #@! TD*
D12*
G04 #@! TO.C,R1*
X66900000Y-87112500D03*
X66900000Y-85287500D03*
G04 #@! TD*
D14*
G04 #@! TO.C,C8*
X74900000Y-76182380D03*
D15*
X74900000Y-73682380D03*
G04 #@! TD*
D16*
G04 #@! TO.C,C10*
X68850000Y-72800000D03*
X70750000Y-72800000D03*
G04 #@! TD*
G04 #@! TO.C,C2*
X55493012Y-88600000D03*
X57393012Y-88600000D03*
G04 #@! TD*
D13*
G04 #@! TO.C,C35*
X72300000Y-48150000D03*
X72300000Y-50050000D03*
G04 #@! TD*
D17*
G04 #@! TO.C,U2*
X57345000Y-78345000D03*
X57995000Y-78345000D03*
X58645000Y-78345000D03*
X59295000Y-78345000D03*
X59945000Y-78345000D03*
X60595000Y-78345000D03*
X61245000Y-78345000D03*
X61895000Y-78345000D03*
X62545000Y-78345000D03*
X63195000Y-78345000D03*
X63845000Y-78345000D03*
X64495000Y-78345000D03*
X65145000Y-78345000D03*
X65795000Y-78345000D03*
X66445000Y-78345000D03*
X67095000Y-78345000D03*
X67095000Y-70905000D03*
X66445000Y-70905000D03*
X65795000Y-70905000D03*
X65145000Y-70905000D03*
X64495000Y-70905000D03*
X63845000Y-70905000D03*
X63195000Y-70905000D03*
X62545000Y-70905000D03*
X61895000Y-70905000D03*
X61245000Y-70905000D03*
X60595000Y-70905000D03*
X59945000Y-70905000D03*
X59295000Y-70905000D03*
X58645000Y-70905000D03*
X57995000Y-70905000D03*
X57345000Y-70905000D03*
G04 #@! TD*
D11*
G04 #@! TO.C,R24*
X69600000Y-48187500D03*
X69600000Y-50012500D03*
G04 #@! TD*
D18*
G04 #@! TO.C,C26*
X89150000Y-81200000D03*
X87250000Y-81200000D03*
G04 #@! TD*
D13*
G04 #@! TO.C,C5*
X59200000Y-89050000D03*
X59200000Y-90950000D03*
G04 #@! TD*
D19*
G04 #@! TO.C,L2*
X80650000Y-50400000D03*
X74950000Y-50400000D03*
G04 #@! TD*
D20*
G04 #@! TO.C,C21*
X92825000Y-76850000D03*
X91275000Y-76850000D03*
G04 #@! TD*
D21*
G04 #@! TO.C,C42*
X53267677Y-63900000D03*
D22*
X48267677Y-63900000D03*
G04 #@! TD*
D23*
G04 #@! TO.C,Q1*
X67362500Y-81550000D03*
X67362500Y-83450000D03*
X69637500Y-82500000D03*
G04 #@! TD*
D18*
G04 #@! TO.C,C28*
X89150000Y-85200000D03*
X87250000Y-85200000D03*
G04 #@! TD*
D12*
G04 #@! TO.C,R13*
X59300000Y-84112500D03*
X59300000Y-82287500D03*
G04 #@! TD*
D24*
G04 #@! TO.C,C1*
X68700000Y-90950000D03*
X68700000Y-89050000D03*
G04 #@! TD*
D25*
G04 #@! TO.C,J4*
X95900000Y-60040000D03*
D26*
X95900000Y-54960000D03*
G04 #@! TD*
D18*
G04 #@! TO.C,C33*
X64600000Y-48700000D03*
X62700000Y-48700000D03*
G04 #@! TD*
D25*
G04 #@! TO.C,J5*
X69700000Y-43400000D03*
D26*
X64620000Y-43400000D03*
G04 #@! TD*
D16*
G04 #@! TO.C,C16*
X63750000Y-80800000D03*
X65650000Y-80800000D03*
G04 #@! TD*
G04 #@! TO.C,C3*
X73050000Y-90500000D03*
X74950000Y-90500000D03*
G04 #@! TD*
D27*
G04 #@! TO.C,RV1*
X44500000Y-91000000D03*
D28*
X47000000Y-91000000D03*
X49500000Y-91000000D03*
X44500000Y-88500000D03*
X47000000Y-88500000D03*
X49500000Y-88500000D03*
G04 #@! TD*
D29*
G04 #@! TO.C,R17*
X85650000Y-85075000D03*
X85650000Y-86725000D03*
G04 #@! TD*
D30*
G04 #@! TO.C,R11*
X68887500Y-79800000D03*
X70712500Y-79800000D03*
G04 #@! TD*
G04 #@! TO.C,R12*
X53787500Y-77000000D03*
X55612500Y-77000000D03*
G04 #@! TD*
D13*
G04 #@! TO.C,C39*
X69600000Y-51750000D03*
X69600000Y-53650000D03*
G04 #@! TD*
D15*
G04 #@! TO.C,C32*
X59900000Y-59200000D03*
X59900000Y-64200000D03*
G04 #@! TD*
G04 #@! TO.C,C31*
X64000000Y-59200000D03*
X64000000Y-64200000D03*
G04 #@! TD*
D31*
G04 #@! TO.C,U3*
X86750000Y-77400000D03*
X86750000Y-77900000D03*
X86750000Y-78400000D03*
X86750000Y-78900000D03*
X86750000Y-79400000D03*
D32*
X87800000Y-78400000D03*
X88350000Y-78400000D03*
X88900000Y-78400000D03*
D31*
X89950000Y-79400000D03*
X89950000Y-78900000D03*
X89950000Y-78400000D03*
X89950000Y-77900000D03*
X89950000Y-77400000D03*
G04 #@! TD*
D33*
G04 #@! TO.C,R15*
X83275000Y-78100000D03*
X84925000Y-78100000D03*
G04 #@! TD*
D11*
G04 #@! TO.C,R22*
X67000000Y-48187500D03*
X67000000Y-50012500D03*
G04 #@! TD*
D18*
G04 #@! TO.C,C4*
X57350000Y-92600000D03*
X55450000Y-92600000D03*
G04 #@! TD*
D11*
G04 #@! TO.C,R7*
X68900000Y-85587500D03*
X68900000Y-87412500D03*
G04 #@! TD*
D13*
G04 #@! TO.C,C15*
X94600000Y-77750000D03*
X94600000Y-79650000D03*
G04 #@! TD*
D16*
G04 #@! TO.C,C12*
X57750000Y-80500000D03*
X59650000Y-80500000D03*
G04 #@! TD*
D13*
G04 #@! TO.C,C23*
X60100000Y-66450000D03*
X60100000Y-68350000D03*
G04 #@! TD*
D16*
G04 #@! TO.C,C7*
X55493012Y-82500000D03*
X57393012Y-82500000D03*
G04 #@! TD*
D11*
G04 #@! TO.C,R9*
X66600000Y-88687500D03*
X66600000Y-90512500D03*
G04 #@! TD*
D13*
G04 #@! TO.C,C22*
X57700000Y-66450000D03*
X57700000Y-68350000D03*
G04 #@! TD*
D34*
G04 #@! TO.C,D2*
X73500000Y-85350000D03*
X73500000Y-88650000D03*
G04 #@! TD*
D20*
G04 #@! TO.C,C20*
X81875000Y-79600000D03*
X80325000Y-79600000D03*
G04 #@! TD*
D13*
G04 #@! TO.C,C24*
X62400000Y-66450000D03*
X62400000Y-68350000D03*
G04 #@! TD*
D18*
G04 #@! TO.C,C6*
X70750000Y-70700000D03*
X68850000Y-70700000D03*
G04 #@! TD*
D12*
G04 #@! TO.C,R3*
X64069193Y-94594984D03*
X64069193Y-92769984D03*
G04 #@! TD*
D35*
G04 #@! TO.C,L1*
X88300000Y-64250000D03*
X88300000Y-73750000D03*
G04 #@! TD*
D33*
G04 #@! TO.C,R14*
X83275000Y-75900000D03*
X84925000Y-75900000D03*
G04 #@! TD*
D16*
G04 #@! TO.C,C9*
X66850000Y-68600000D03*
X68750000Y-68600000D03*
G04 #@! TD*
D10*
G04 #@! TO.C,L4*
X74950000Y-42900000D03*
X80650000Y-42900000D03*
G04 #@! TD*
D19*
G04 #@! TO.C,L5*
X48700000Y-50400000D03*
X43000000Y-50400000D03*
G04 #@! TD*
D18*
G04 #@! TO.C,C13*
X55650000Y-74600000D03*
X53750000Y-74600000D03*
G04 #@! TD*
D36*
G04 #@! TO.C,C43*
X81100000Y-81125000D03*
X81100000Y-82675000D03*
G04 #@! TD*
D16*
G04 #@! TO.C,C19*
X68850000Y-77700000D03*
X70750000Y-77700000D03*
G04 #@! TD*
D11*
G04 #@! TO.C,R8*
X59200000Y-85687500D03*
X59200000Y-87512500D03*
G04 #@! TD*
D13*
G04 #@! TO.C,C40*
X56900000Y-51750000D03*
X56900000Y-53650000D03*
G04 #@! TD*
D15*
G04 #@! TO.C,C30*
X59900000Y-51600000D03*
X59900000Y-56600000D03*
G04 #@! TD*
D37*
G04 #@! TO.C,U1*
X60995000Y-90175000D03*
X62265000Y-90175000D03*
X63535000Y-90175000D03*
X64805000Y-90175000D03*
X64805000Y-85225000D03*
X63535000Y-85225000D03*
X62265000Y-85225000D03*
X60995000Y-85225000D03*
G04 #@! TD*
D15*
G04 #@! TO.C,C29*
X64000000Y-51600000D03*
X64000000Y-56600000D03*
G04 #@! TD*
D18*
G04 #@! TO.C,C27*
X89150000Y-83200000D03*
X87250000Y-83200000D03*
G04 #@! TD*
D29*
G04 #@! TO.C,R18*
X85650000Y-81075000D03*
X85650000Y-82725000D03*
G04 #@! TD*
D15*
G04 #@! TO.C,J3*
X96700000Y-45900000D03*
D38*
X87700000Y-45900000D03*
D39*
X93700000Y-45900000D03*
D40*
X94700000Y-50400000D03*
X94700000Y-41400000D03*
G04 #@! TD*
D13*
G04 #@! TO.C,C17*
X91850000Y-80450000D03*
X91850000Y-82350000D03*
G04 #@! TD*
D41*
G04 #@! TO.C,J2*
X47050000Y-75900000D03*
X39550000Y-81050000D03*
X39550000Y-75350000D03*
X47050000Y-80500000D03*
G04 #@! TD*
D13*
G04 #@! TO.C,C14*
X61500000Y-80450000D03*
X61500000Y-82350000D03*
G04 #@! TD*
D18*
G04 #@! TO.C,C18*
X55650000Y-72600000D03*
X53750000Y-72600000D03*
G04 #@! TD*
D25*
G04 #@! TO.C,J1*
X37800000Y-57020000D03*
D26*
X37800000Y-62100000D03*
X37800000Y-67180000D03*
G04 #@! TD*
D29*
G04 #@! TO.C,R19*
X84150000Y-81075000D03*
X84150000Y-82725000D03*
G04 #@! TD*
D42*
G04 #@! TO.C,D1*
X71000000Y-92250000D03*
X71000000Y-88950000D03*
G04 #@! TD*
D11*
G04 #@! TO.C,R23*
X54200000Y-48187500D03*
X54200000Y-50012500D03*
G04 #@! TD*
D18*
G04 #@! TO.C,C36*
X61200000Y-48700000D03*
X59300000Y-48700000D03*
G04 #@! TD*
D36*
G04 #@! TO.C,C44*
X82600000Y-81125000D03*
X82600000Y-82675000D03*
G04 #@! TD*
D13*
G04 #@! TO.C,C25*
X64700000Y-66450000D03*
X64700000Y-68350000D03*
G04 #@! TD*
D25*
G04 #@! TO.C,J6*
X59140000Y-43400000D03*
D26*
X54060000Y-43400000D03*
G04 #@! TD*
D16*
G04 #@! TO.C,C8*
X53750000Y-70600000D03*
X55650000Y-70600000D03*
G04 #@! TD*
D11*
G04 #@! TO.C,R5*
X71000000Y-85587500D03*
X71000000Y-87412500D03*
G04 #@! TD*
G04 #@! TO.C,R20*
X55900000Y-78787500D03*
X55900000Y-80612500D03*
G04 #@! TD*
D13*
G04 #@! TO.C,C38*
X54200000Y-51750000D03*
X54200000Y-53650000D03*
G04 #@! TD*
D24*
G04 #@! TO.C,C34*
X51400000Y-50050000D03*
X51400000Y-48150000D03*
G04 #@! TD*
D11*
G04 #@! TO.C,R25*
X56900000Y-48187500D03*
X56900000Y-50012500D03*
G04 #@! TD*
D21*
G04 #@! TO.C,C41*
X76367677Y-63900000D03*
D22*
X71367677Y-63900000D03*
G04 #@! TD*
D43*
G04 #@! TO.C,C11*
X87700000Y-54400000D03*
D15*
X87700000Y-56900000D03*
G04 #@! TD*
D33*
G04 #@! TO.C,R16*
X83275000Y-79600000D03*
X84925000Y-79600000D03*
G04 #@! TD*
D44*
G04 #@! TO.C,R2*
X57335512Y-84500000D03*
X55510512Y-84500000D03*
G04 #@! TD*
D30*
G04 #@! TO.C,R10*
X55087500Y-86500000D03*
X56912500Y-86500000D03*
G04 #@! TD*
D16*
G04 #@! TO.C,C6*
X63550000Y-83000000D03*
X65450000Y-83000000D03*
G04 #@! TD*
D41*
G04 #@! TO.C,J7*
X86800000Y-93500000D03*
X94300000Y-88350000D03*
X94300000Y-94050000D03*
X86800000Y-88900000D03*
G04 #@! TD*
M02*
