%TF.GenerationSoftware,KiCad,Pcbnew,9.0.3*%
%TF.CreationDate,2025-08-11T22:09:38-04:00*%
%TF.ProjectId,Class D Amplifier,436c6173-7320-4442-9041-6d706c696669,rev?*%
%TF.SameCoordinates,Original*%
%TF.FileFunction,Drillmap*%
%TF.FilePolarity,Positive*%
%FSLAX45Y45*%
G04 Gerber Fmt 4.5, Leading zero omitted, Abs format (unit mm)*
G04 Created by KiCad (PCBNEW 9.0.3) date 2025-08-11 22:09:38*
%MOMM*%
%LPD*%
G01*
G04 APERTURE LIST*
%ADD10C,0.050000*%
%ADD11C,0.000000*%
%ADD12C,0.200000*%
%ADD13C,0.160000*%
G04 APERTURE END LIST*
D10*
X3480000Y-9733934D02*
G75*
G02*
X3329996Y-9583934I0J150004D01*
G01*
X9910000Y-9733930D02*
X3480000Y-9733934D01*
X3480000Y-3930000D02*
X9910000Y-3930000D01*
X9910000Y-3930000D02*
G75*
G02*
X10060000Y-4080000I0J-150000D01*
G01*
X10060000Y-9583930D02*
X10060000Y-4080000D01*
X3330000Y-4080000D02*
G75*
G02*
X3480000Y-3930000I150000J0D01*
G01*
X3330000Y-9583934D02*
X3330000Y-4080000D01*
X10060000Y-9583934D02*
G75*
G02*
X9910000Y-9733930I-150000J4D01*
G01*
D11*
G36*
X4323869Y-7507849D02*
G01*
X4335641Y-7512725D01*
X4346236Y-7519804D01*
X4355246Y-7528814D01*
X4362325Y-7539409D01*
X4367201Y-7551181D01*
X4369687Y-7563679D01*
X4369687Y-7576421D01*
X4367201Y-7588918D01*
X4362325Y-7600691D01*
X4355246Y-7611286D01*
X4346236Y-7620296D01*
X4335641Y-7627375D01*
X4323869Y-7632251D01*
X4311371Y-7634737D01*
X4298629Y-7634737D01*
X4286132Y-7632251D01*
X4274359Y-7627375D01*
X4263764Y-7620296D01*
X4254754Y-7611286D01*
X4247675Y-7600691D01*
X4242799Y-7588918D01*
X4240313Y-7576421D01*
X4240313Y-7563679D01*
X4242799Y-7551181D01*
X4247675Y-7539409D01*
X4254754Y-7528814D01*
X4263764Y-7519804D01*
X4274359Y-7512725D01*
X4286132Y-7507849D01*
X4298629Y-7505363D01*
X4311371Y-7505363D01*
X4323869Y-7507849D01*
G37*
G36*
X4323869Y-8007749D02*
G01*
X4335641Y-8012625D01*
X4346236Y-8019704D01*
X4355246Y-8028714D01*
X4362325Y-8039309D01*
X4367201Y-8051081D01*
X4369687Y-8063579D01*
X4369687Y-8076321D01*
X4367201Y-8088818D01*
X4362325Y-8100591D01*
X4355246Y-8111186D01*
X4346236Y-8120196D01*
X4335641Y-8127275D01*
X4323869Y-8132151D01*
X4311371Y-8134637D01*
X4298629Y-8134637D01*
X4286132Y-8132151D01*
X4274359Y-8127275D01*
X4263764Y-8120196D01*
X4254754Y-8111186D01*
X4247675Y-8100591D01*
X4242799Y-8088818D01*
X4240313Y-8076321D01*
X4240313Y-8063579D01*
X4242799Y-8051081D01*
X4247675Y-8039309D01*
X4254754Y-8028714D01*
X4263764Y-8019704D01*
X4274359Y-8012625D01*
X4286132Y-8007749D01*
X4298629Y-8005263D01*
X4311371Y-8005263D01*
X4323869Y-8007749D01*
G37*
G36*
X9098869Y-8807849D02*
G01*
X9110641Y-8812725D01*
X9121236Y-8819804D01*
X9130246Y-8828814D01*
X9137325Y-8839409D01*
X9142201Y-8851182D01*
X9144687Y-8863679D01*
X9144687Y-8876421D01*
X9142201Y-8888919D01*
X9137325Y-8900691D01*
X9130246Y-8911286D01*
X9121236Y-8920296D01*
X9110641Y-8927375D01*
X9098869Y-8932251D01*
X9086371Y-8934737D01*
X9073629Y-8934737D01*
X9061132Y-8932251D01*
X9049359Y-8927375D01*
X9038764Y-8920296D01*
X9029754Y-8911286D01*
X9022675Y-8900691D01*
X9017799Y-8888919D01*
X9015313Y-8876421D01*
X9015313Y-8863679D01*
X9017799Y-8851182D01*
X9022675Y-8839409D01*
X9029754Y-8828814D01*
X9038764Y-8819804D01*
X9049359Y-8812725D01*
X9061132Y-8807849D01*
X9073629Y-8805363D01*
X9086371Y-8805363D01*
X9098869Y-8807849D01*
G37*
G36*
X9098869Y-9307749D02*
G01*
X9110641Y-9312625D01*
X9121236Y-9319704D01*
X9130246Y-9328714D01*
X9137325Y-9339309D01*
X9142201Y-9351082D01*
X9144687Y-9363579D01*
X9144687Y-9376321D01*
X9142201Y-9388819D01*
X9137325Y-9400591D01*
X9130246Y-9411186D01*
X9121236Y-9420196D01*
X9110641Y-9427275D01*
X9098869Y-9432151D01*
X9086371Y-9434637D01*
X9073629Y-9434637D01*
X9061132Y-9432151D01*
X9049359Y-9427275D01*
X9038764Y-9420196D01*
X9029754Y-9411186D01*
X9022675Y-9400591D01*
X9017799Y-9388819D01*
X9015313Y-9376321D01*
X9015313Y-9363579D01*
X9017799Y-9351082D01*
X9022675Y-9339309D01*
X9029754Y-9328714D01*
X9038764Y-9319704D01*
X9049359Y-9312625D01*
X9061132Y-9307749D01*
X9073629Y-9305263D01*
X9086371Y-9305263D01*
X9098869Y-9307749D01*
G37*
D12*
D13*
X9590000Y-4510000D02*
X9750000Y-4670000D01*
X9750000Y-4510000D02*
X9590000Y-4670000D01*
D12*
X3588277Y-10047918D02*
X3588277Y-9847918D01*
X3588277Y-9847918D02*
X3635896Y-9847918D01*
X3635896Y-9847918D02*
X3664467Y-9857442D01*
X3664467Y-9857442D02*
X3683515Y-9876489D01*
X3683515Y-9876489D02*
X3693039Y-9895537D01*
X3693039Y-9895537D02*
X3702562Y-9933632D01*
X3702562Y-9933632D02*
X3702562Y-9962204D01*
X3702562Y-9962204D02*
X3693039Y-10000299D01*
X3693039Y-10000299D02*
X3683515Y-10019346D01*
X3683515Y-10019346D02*
X3664467Y-10038394D01*
X3664467Y-10038394D02*
X3635896Y-10047918D01*
X3635896Y-10047918D02*
X3588277Y-10047918D01*
X3788277Y-10047918D02*
X3788277Y-9914584D01*
X3788277Y-9952680D02*
X3797801Y-9933632D01*
X3797801Y-9933632D02*
X3807324Y-9924108D01*
X3807324Y-9924108D02*
X3826372Y-9914584D01*
X3826372Y-9914584D02*
X3845420Y-9914584D01*
X3912086Y-10047918D02*
X3912086Y-9914584D01*
X3912086Y-9847918D02*
X3902562Y-9857442D01*
X3902562Y-9857442D02*
X3912086Y-9866965D01*
X3912086Y-9866965D02*
X3921610Y-9857442D01*
X3921610Y-9857442D02*
X3912086Y-9847918D01*
X3912086Y-9847918D02*
X3912086Y-9866965D01*
X4035896Y-10047918D02*
X4016848Y-10038394D01*
X4016848Y-10038394D02*
X4007324Y-10019346D01*
X4007324Y-10019346D02*
X4007324Y-9847918D01*
X4140658Y-10047918D02*
X4121610Y-10038394D01*
X4121610Y-10038394D02*
X4112086Y-10019346D01*
X4112086Y-10019346D02*
X4112086Y-9847918D01*
X4369229Y-10047918D02*
X4369229Y-9847918D01*
X4369229Y-9847918D02*
X4435896Y-9990775D01*
X4435896Y-9990775D02*
X4502563Y-9847918D01*
X4502563Y-9847918D02*
X4502563Y-10047918D01*
X4683515Y-10047918D02*
X4683515Y-9943156D01*
X4683515Y-9943156D02*
X4673991Y-9924108D01*
X4673991Y-9924108D02*
X4654944Y-9914584D01*
X4654944Y-9914584D02*
X4616848Y-9914584D01*
X4616848Y-9914584D02*
X4597801Y-9924108D01*
X4683515Y-10038394D02*
X4664467Y-10047918D01*
X4664467Y-10047918D02*
X4616848Y-10047918D01*
X4616848Y-10047918D02*
X4597801Y-10038394D01*
X4597801Y-10038394D02*
X4588277Y-10019346D01*
X4588277Y-10019346D02*
X4588277Y-10000299D01*
X4588277Y-10000299D02*
X4597801Y-9981251D01*
X4597801Y-9981251D02*
X4616848Y-9971727D01*
X4616848Y-9971727D02*
X4664467Y-9971727D01*
X4664467Y-9971727D02*
X4683515Y-9962204D01*
X4778753Y-9914584D02*
X4778753Y-10114584D01*
X4778753Y-9924108D02*
X4797801Y-9914584D01*
X4797801Y-9914584D02*
X4835896Y-9914584D01*
X4835896Y-9914584D02*
X4854944Y-9924108D01*
X4854944Y-9924108D02*
X4864467Y-9933632D01*
X4864467Y-9933632D02*
X4873991Y-9952680D01*
X4873991Y-9952680D02*
X4873991Y-10009823D01*
X4873991Y-10009823D02*
X4864467Y-10028870D01*
X4864467Y-10028870D02*
X4854944Y-10038394D01*
X4854944Y-10038394D02*
X4835896Y-10047918D01*
X4835896Y-10047918D02*
X4797801Y-10047918D01*
X4797801Y-10047918D02*
X4778753Y-10038394D01*
X4959705Y-10028870D02*
X4969229Y-10038394D01*
X4969229Y-10038394D02*
X4959705Y-10047918D01*
X4959705Y-10047918D02*
X4950182Y-10038394D01*
X4950182Y-10038394D02*
X4959705Y-10028870D01*
X4959705Y-10028870D02*
X4959705Y-10047918D01*
X4959705Y-9924108D02*
X4969229Y-9933632D01*
X4969229Y-9933632D02*
X4959705Y-9943156D01*
X4959705Y-9943156D02*
X4950182Y-9933632D01*
X4950182Y-9933632D02*
X4959705Y-9924108D01*
X4959705Y-9924108D02*
X4959705Y-9943156D01*
D13*
X3167500Y-10296434D02*
X3327500Y-10456434D01*
X3327500Y-10296434D02*
X3167500Y-10456434D01*
D12*
X3693039Y-10467918D02*
X3578753Y-10467918D01*
X3635896Y-10467918D02*
X3635896Y-10267918D01*
X3635896Y-10267918D02*
X3616848Y-10296489D01*
X3616848Y-10296489D02*
X3597801Y-10315537D01*
X3597801Y-10315537D02*
X3578753Y-10325061D01*
X3778753Y-10448870D02*
X3788277Y-10458394D01*
X3788277Y-10458394D02*
X3778753Y-10467918D01*
X3778753Y-10467918D02*
X3769229Y-10458394D01*
X3769229Y-10458394D02*
X3778753Y-10448870D01*
X3778753Y-10448870D02*
X3778753Y-10467918D01*
X3959705Y-10267918D02*
X3921610Y-10267918D01*
X3921610Y-10267918D02*
X3902562Y-10277442D01*
X3902562Y-10277442D02*
X3893039Y-10286965D01*
X3893039Y-10286965D02*
X3873991Y-10315537D01*
X3873991Y-10315537D02*
X3864467Y-10353632D01*
X3864467Y-10353632D02*
X3864467Y-10429823D01*
X3864467Y-10429823D02*
X3873991Y-10448870D01*
X3873991Y-10448870D02*
X3883515Y-10458394D01*
X3883515Y-10458394D02*
X3902562Y-10467918D01*
X3902562Y-10467918D02*
X3940658Y-10467918D01*
X3940658Y-10467918D02*
X3959705Y-10458394D01*
X3959705Y-10458394D02*
X3969229Y-10448870D01*
X3969229Y-10448870D02*
X3978753Y-10429823D01*
X3978753Y-10429823D02*
X3978753Y-10382204D01*
X3978753Y-10382204D02*
X3969229Y-10363156D01*
X3969229Y-10363156D02*
X3959705Y-10353632D01*
X3959705Y-10353632D02*
X3940658Y-10344108D01*
X3940658Y-10344108D02*
X3902562Y-10344108D01*
X3902562Y-10344108D02*
X3883515Y-10353632D01*
X3883515Y-10353632D02*
X3873991Y-10363156D01*
X3873991Y-10363156D02*
X3864467Y-10382204D01*
X4102562Y-10267918D02*
X4121610Y-10267918D01*
X4121610Y-10267918D02*
X4140658Y-10277442D01*
X4140658Y-10277442D02*
X4150182Y-10286965D01*
X4150182Y-10286965D02*
X4159705Y-10306013D01*
X4159705Y-10306013D02*
X4169229Y-10344108D01*
X4169229Y-10344108D02*
X4169229Y-10391727D01*
X4169229Y-10391727D02*
X4159705Y-10429823D01*
X4159705Y-10429823D02*
X4150182Y-10448870D01*
X4150182Y-10448870D02*
X4140658Y-10458394D01*
X4140658Y-10458394D02*
X4121610Y-10467918D01*
X4121610Y-10467918D02*
X4102562Y-10467918D01*
X4102562Y-10467918D02*
X4083515Y-10458394D01*
X4083515Y-10458394D02*
X4073991Y-10448870D01*
X4073991Y-10448870D02*
X4064467Y-10429823D01*
X4064467Y-10429823D02*
X4054943Y-10391727D01*
X4054943Y-10391727D02*
X4054943Y-10344108D01*
X4054943Y-10344108D02*
X4064467Y-10306013D01*
X4064467Y-10306013D02*
X4073991Y-10286965D01*
X4073991Y-10286965D02*
X4083515Y-10277442D01*
X4083515Y-10277442D02*
X4102562Y-10267918D01*
X4293039Y-10267918D02*
X4312086Y-10267918D01*
X4312086Y-10267918D02*
X4331134Y-10277442D01*
X4331134Y-10277442D02*
X4340658Y-10286965D01*
X4340658Y-10286965D02*
X4350182Y-10306013D01*
X4350182Y-10306013D02*
X4359705Y-10344108D01*
X4359705Y-10344108D02*
X4359705Y-10391727D01*
X4359705Y-10391727D02*
X4350182Y-10429823D01*
X4350182Y-10429823D02*
X4340658Y-10448870D01*
X4340658Y-10448870D02*
X4331134Y-10458394D01*
X4331134Y-10458394D02*
X4312086Y-10467918D01*
X4312086Y-10467918D02*
X4293039Y-10467918D01*
X4293039Y-10467918D02*
X4273991Y-10458394D01*
X4273991Y-10458394D02*
X4264467Y-10448870D01*
X4264467Y-10448870D02*
X4254944Y-10429823D01*
X4254944Y-10429823D02*
X4245420Y-10391727D01*
X4245420Y-10391727D02*
X4245420Y-10344108D01*
X4245420Y-10344108D02*
X4254944Y-10306013D01*
X4254944Y-10306013D02*
X4264467Y-10286965D01*
X4264467Y-10286965D02*
X4273991Y-10277442D01*
X4273991Y-10277442D02*
X4293039Y-10267918D01*
X4445420Y-10467918D02*
X4445420Y-10334584D01*
X4445420Y-10353632D02*
X4454944Y-10344108D01*
X4454944Y-10344108D02*
X4473991Y-10334584D01*
X4473991Y-10334584D02*
X4502563Y-10334584D01*
X4502563Y-10334584D02*
X4521610Y-10344108D01*
X4521610Y-10344108D02*
X4531134Y-10363156D01*
X4531134Y-10363156D02*
X4531134Y-10467918D01*
X4531134Y-10363156D02*
X4540658Y-10344108D01*
X4540658Y-10344108D02*
X4559705Y-10334584D01*
X4559705Y-10334584D02*
X4588277Y-10334584D01*
X4588277Y-10334584D02*
X4607325Y-10344108D01*
X4607325Y-10344108D02*
X4616848Y-10363156D01*
X4616848Y-10363156D02*
X4616848Y-10467918D01*
X4712086Y-10467918D02*
X4712086Y-10334584D01*
X4712086Y-10353632D02*
X4721610Y-10344108D01*
X4721610Y-10344108D02*
X4740658Y-10334584D01*
X4740658Y-10334584D02*
X4769229Y-10334584D01*
X4769229Y-10334584D02*
X4788277Y-10344108D01*
X4788277Y-10344108D02*
X4797801Y-10363156D01*
X4797801Y-10363156D02*
X4797801Y-10467918D01*
X4797801Y-10363156D02*
X4807325Y-10344108D01*
X4807325Y-10344108D02*
X4826372Y-10334584D01*
X4826372Y-10334584D02*
X4854944Y-10334584D01*
X4854944Y-10334584D02*
X4873991Y-10344108D01*
X4873991Y-10344108D02*
X4883515Y-10363156D01*
X4883515Y-10363156D02*
X4883515Y-10467918D01*
X5273991Y-10258394D02*
X5102563Y-10515537D01*
X5531134Y-10267918D02*
X5550182Y-10267918D01*
X5550182Y-10267918D02*
X5569229Y-10277442D01*
X5569229Y-10277442D02*
X5578753Y-10286965D01*
X5578753Y-10286965D02*
X5588277Y-10306013D01*
X5588277Y-10306013D02*
X5597801Y-10344108D01*
X5597801Y-10344108D02*
X5597801Y-10391727D01*
X5597801Y-10391727D02*
X5588277Y-10429823D01*
X5588277Y-10429823D02*
X5578753Y-10448870D01*
X5578753Y-10448870D02*
X5569229Y-10458394D01*
X5569229Y-10458394D02*
X5550182Y-10467918D01*
X5550182Y-10467918D02*
X5531134Y-10467918D01*
X5531134Y-10467918D02*
X5512087Y-10458394D01*
X5512087Y-10458394D02*
X5502563Y-10448870D01*
X5502563Y-10448870D02*
X5493039Y-10429823D01*
X5493039Y-10429823D02*
X5483515Y-10391727D01*
X5483515Y-10391727D02*
X5483515Y-10344108D01*
X5483515Y-10344108D02*
X5493039Y-10306013D01*
X5493039Y-10306013D02*
X5502563Y-10286965D01*
X5502563Y-10286965D02*
X5512087Y-10277442D01*
X5512087Y-10277442D02*
X5531134Y-10267918D01*
X5683515Y-10448870D02*
X5693039Y-10458394D01*
X5693039Y-10458394D02*
X5683515Y-10467918D01*
X5683515Y-10467918D02*
X5673991Y-10458394D01*
X5673991Y-10458394D02*
X5683515Y-10448870D01*
X5683515Y-10448870D02*
X5683515Y-10467918D01*
X5816848Y-10267918D02*
X5835896Y-10267918D01*
X5835896Y-10267918D02*
X5854944Y-10277442D01*
X5854944Y-10277442D02*
X5864467Y-10286965D01*
X5864467Y-10286965D02*
X5873991Y-10306013D01*
X5873991Y-10306013D02*
X5883515Y-10344108D01*
X5883515Y-10344108D02*
X5883515Y-10391727D01*
X5883515Y-10391727D02*
X5873991Y-10429823D01*
X5873991Y-10429823D02*
X5864467Y-10448870D01*
X5864467Y-10448870D02*
X5854944Y-10458394D01*
X5854944Y-10458394D02*
X5835896Y-10467918D01*
X5835896Y-10467918D02*
X5816848Y-10467918D01*
X5816848Y-10467918D02*
X5797801Y-10458394D01*
X5797801Y-10458394D02*
X5788277Y-10448870D01*
X5788277Y-10448870D02*
X5778753Y-10429823D01*
X5778753Y-10429823D02*
X5769229Y-10391727D01*
X5769229Y-10391727D02*
X5769229Y-10344108D01*
X5769229Y-10344108D02*
X5778753Y-10306013D01*
X5778753Y-10306013D02*
X5788277Y-10286965D01*
X5788277Y-10286965D02*
X5797801Y-10277442D01*
X5797801Y-10277442D02*
X5816848Y-10267918D01*
X6054944Y-10267918D02*
X6016848Y-10267918D01*
X6016848Y-10267918D02*
X5997801Y-10277442D01*
X5997801Y-10277442D02*
X5988277Y-10286965D01*
X5988277Y-10286965D02*
X5969229Y-10315537D01*
X5969229Y-10315537D02*
X5959706Y-10353632D01*
X5959706Y-10353632D02*
X5959706Y-10429823D01*
X5959706Y-10429823D02*
X5969229Y-10448870D01*
X5969229Y-10448870D02*
X5978753Y-10458394D01*
X5978753Y-10458394D02*
X5997801Y-10467918D01*
X5997801Y-10467918D02*
X6035896Y-10467918D01*
X6035896Y-10467918D02*
X6054944Y-10458394D01*
X6054944Y-10458394D02*
X6064467Y-10448870D01*
X6064467Y-10448870D02*
X6073991Y-10429823D01*
X6073991Y-10429823D02*
X6073991Y-10382204D01*
X6073991Y-10382204D02*
X6064467Y-10363156D01*
X6064467Y-10363156D02*
X6054944Y-10353632D01*
X6054944Y-10353632D02*
X6035896Y-10344108D01*
X6035896Y-10344108D02*
X5997801Y-10344108D01*
X5997801Y-10344108D02*
X5978753Y-10353632D01*
X5978753Y-10353632D02*
X5969229Y-10363156D01*
X5969229Y-10363156D02*
X5959706Y-10382204D01*
X6140658Y-10267918D02*
X6264467Y-10267918D01*
X6264467Y-10267918D02*
X6197801Y-10344108D01*
X6197801Y-10344108D02*
X6226372Y-10344108D01*
X6226372Y-10344108D02*
X6245420Y-10353632D01*
X6245420Y-10353632D02*
X6254944Y-10363156D01*
X6254944Y-10363156D02*
X6264467Y-10382204D01*
X6264467Y-10382204D02*
X6264467Y-10429823D01*
X6264467Y-10429823D02*
X6254944Y-10448870D01*
X6254944Y-10448870D02*
X6245420Y-10458394D01*
X6245420Y-10458394D02*
X6226372Y-10467918D01*
X6226372Y-10467918D02*
X6169229Y-10467918D01*
X6169229Y-10467918D02*
X6150182Y-10458394D01*
X6150182Y-10458394D02*
X6140658Y-10448870D01*
X6388277Y-10267918D02*
X6407325Y-10267918D01*
X6407325Y-10267918D02*
X6426372Y-10277442D01*
X6426372Y-10277442D02*
X6435896Y-10286965D01*
X6435896Y-10286965D02*
X6445420Y-10306013D01*
X6445420Y-10306013D02*
X6454944Y-10344108D01*
X6454944Y-10344108D02*
X6454944Y-10391727D01*
X6454944Y-10391727D02*
X6445420Y-10429823D01*
X6445420Y-10429823D02*
X6435896Y-10448870D01*
X6435896Y-10448870D02*
X6426372Y-10458394D01*
X6426372Y-10458394D02*
X6407325Y-10467918D01*
X6407325Y-10467918D02*
X6388277Y-10467918D01*
X6388277Y-10467918D02*
X6369229Y-10458394D01*
X6369229Y-10458394D02*
X6359706Y-10448870D01*
X6359706Y-10448870D02*
X6350182Y-10429823D01*
X6350182Y-10429823D02*
X6340658Y-10391727D01*
X6340658Y-10391727D02*
X6340658Y-10344108D01*
X6340658Y-10344108D02*
X6350182Y-10306013D01*
X6350182Y-10306013D02*
X6359706Y-10286965D01*
X6359706Y-10286965D02*
X6369229Y-10277442D01*
X6369229Y-10277442D02*
X6388277Y-10267918D01*
X6531134Y-10267918D02*
X6531134Y-10306013D01*
X6607325Y-10267918D02*
X6607325Y-10306013D01*
X6902563Y-10544108D02*
X6893039Y-10534584D01*
X6893039Y-10534584D02*
X6873991Y-10506013D01*
X6873991Y-10506013D02*
X6864468Y-10486965D01*
X6864468Y-10486965D02*
X6854944Y-10458394D01*
X6854944Y-10458394D02*
X6845420Y-10410775D01*
X6845420Y-10410775D02*
X6845420Y-10372680D01*
X6845420Y-10372680D02*
X6854944Y-10325061D01*
X6854944Y-10325061D02*
X6864468Y-10296489D01*
X6864468Y-10296489D02*
X6873991Y-10277442D01*
X6873991Y-10277442D02*
X6893039Y-10248870D01*
X6893039Y-10248870D02*
X6902563Y-10239346D01*
X7083515Y-10467918D02*
X6969229Y-10467918D01*
X7026372Y-10467918D02*
X7026372Y-10267918D01*
X7026372Y-10267918D02*
X7007325Y-10296489D01*
X7007325Y-10296489D02*
X6988277Y-10315537D01*
X6988277Y-10315537D02*
X6969229Y-10325061D01*
X7321610Y-10467918D02*
X7321610Y-10267918D01*
X7407325Y-10467918D02*
X7407325Y-10363156D01*
X7407325Y-10363156D02*
X7397801Y-10344108D01*
X7397801Y-10344108D02*
X7378753Y-10334584D01*
X7378753Y-10334584D02*
X7350182Y-10334584D01*
X7350182Y-10334584D02*
X7331134Y-10344108D01*
X7331134Y-10344108D02*
X7321610Y-10353632D01*
X7531134Y-10467918D02*
X7512087Y-10458394D01*
X7512087Y-10458394D02*
X7502563Y-10448870D01*
X7502563Y-10448870D02*
X7493039Y-10429823D01*
X7493039Y-10429823D02*
X7493039Y-10372680D01*
X7493039Y-10372680D02*
X7502563Y-10353632D01*
X7502563Y-10353632D02*
X7512087Y-10344108D01*
X7512087Y-10344108D02*
X7531134Y-10334584D01*
X7531134Y-10334584D02*
X7559706Y-10334584D01*
X7559706Y-10334584D02*
X7578753Y-10344108D01*
X7578753Y-10344108D02*
X7588277Y-10353632D01*
X7588277Y-10353632D02*
X7597801Y-10372680D01*
X7597801Y-10372680D02*
X7597801Y-10429823D01*
X7597801Y-10429823D02*
X7588277Y-10448870D01*
X7588277Y-10448870D02*
X7578753Y-10458394D01*
X7578753Y-10458394D02*
X7559706Y-10467918D01*
X7559706Y-10467918D02*
X7531134Y-10467918D01*
X7712087Y-10467918D02*
X7693039Y-10458394D01*
X7693039Y-10458394D02*
X7683515Y-10439346D01*
X7683515Y-10439346D02*
X7683515Y-10267918D01*
X7864468Y-10458394D02*
X7845420Y-10467918D01*
X7845420Y-10467918D02*
X7807325Y-10467918D01*
X7807325Y-10467918D02*
X7788277Y-10458394D01*
X7788277Y-10458394D02*
X7778753Y-10439346D01*
X7778753Y-10439346D02*
X7778753Y-10363156D01*
X7778753Y-10363156D02*
X7788277Y-10344108D01*
X7788277Y-10344108D02*
X7807325Y-10334584D01*
X7807325Y-10334584D02*
X7845420Y-10334584D01*
X7845420Y-10334584D02*
X7864468Y-10344108D01*
X7864468Y-10344108D02*
X7873991Y-10363156D01*
X7873991Y-10363156D02*
X7873991Y-10382204D01*
X7873991Y-10382204D02*
X7778753Y-10401251D01*
X7940658Y-10544108D02*
X7950182Y-10534584D01*
X7950182Y-10534584D02*
X7969230Y-10506013D01*
X7969230Y-10506013D02*
X7978753Y-10486965D01*
X7978753Y-10486965D02*
X7988277Y-10458394D01*
X7988277Y-10458394D02*
X7997801Y-10410775D01*
X7997801Y-10410775D02*
X7997801Y-10372680D01*
X7997801Y-10372680D02*
X7988277Y-10325061D01*
X7988277Y-10325061D02*
X7978753Y-10296489D01*
X7978753Y-10296489D02*
X7969230Y-10277442D01*
X7969230Y-10277442D02*
X7950182Y-10248870D01*
X7950182Y-10248870D02*
X7940658Y-10239346D01*
X8302563Y-10544108D02*
X8293039Y-10534584D01*
X8293039Y-10534584D02*
X8273991Y-10506013D01*
X8273991Y-10506013D02*
X8264468Y-10486965D01*
X8264468Y-10486965D02*
X8254944Y-10458394D01*
X8254944Y-10458394D02*
X8245420Y-10410775D01*
X8245420Y-10410775D02*
X8245420Y-10372680D01*
X8245420Y-10372680D02*
X8254944Y-10325061D01*
X8254944Y-10325061D02*
X8264468Y-10296489D01*
X8264468Y-10296489D02*
X8273991Y-10277442D01*
X8273991Y-10277442D02*
X8293039Y-10248870D01*
X8293039Y-10248870D02*
X8302563Y-10239346D01*
X8378753Y-10334584D02*
X8378753Y-10467918D01*
X8378753Y-10353632D02*
X8388277Y-10344108D01*
X8388277Y-10344108D02*
X8407325Y-10334584D01*
X8407325Y-10334584D02*
X8435896Y-10334584D01*
X8435896Y-10334584D02*
X8454944Y-10344108D01*
X8454944Y-10344108D02*
X8464468Y-10363156D01*
X8464468Y-10363156D02*
X8464468Y-10467918D01*
X8588277Y-10467918D02*
X8569230Y-10458394D01*
X8569230Y-10458394D02*
X8559706Y-10448870D01*
X8559706Y-10448870D02*
X8550182Y-10429823D01*
X8550182Y-10429823D02*
X8550182Y-10372680D01*
X8550182Y-10372680D02*
X8559706Y-10353632D01*
X8559706Y-10353632D02*
X8569230Y-10344108D01*
X8569230Y-10344108D02*
X8588277Y-10334584D01*
X8588277Y-10334584D02*
X8616849Y-10334584D01*
X8616849Y-10334584D02*
X8635896Y-10344108D01*
X8635896Y-10344108D02*
X8645420Y-10353632D01*
X8645420Y-10353632D02*
X8654944Y-10372680D01*
X8654944Y-10372680D02*
X8654944Y-10429823D01*
X8654944Y-10429823D02*
X8645420Y-10448870D01*
X8645420Y-10448870D02*
X8635896Y-10458394D01*
X8635896Y-10458394D02*
X8616849Y-10467918D01*
X8616849Y-10467918D02*
X8588277Y-10467918D01*
X8712087Y-10334584D02*
X8788277Y-10334584D01*
X8740658Y-10267918D02*
X8740658Y-10439346D01*
X8740658Y-10439346D02*
X8750182Y-10458394D01*
X8750182Y-10458394D02*
X8769230Y-10467918D01*
X8769230Y-10467918D02*
X8788277Y-10467918D01*
X9007325Y-10334584D02*
X9007325Y-10534584D01*
X9007325Y-10344108D02*
X9026373Y-10334584D01*
X9026373Y-10334584D02*
X9064468Y-10334584D01*
X9064468Y-10334584D02*
X9083515Y-10344108D01*
X9083515Y-10344108D02*
X9093039Y-10353632D01*
X9093039Y-10353632D02*
X9102563Y-10372680D01*
X9102563Y-10372680D02*
X9102563Y-10429823D01*
X9102563Y-10429823D02*
X9093039Y-10448870D01*
X9093039Y-10448870D02*
X9083515Y-10458394D01*
X9083515Y-10458394D02*
X9064468Y-10467918D01*
X9064468Y-10467918D02*
X9026373Y-10467918D01*
X9026373Y-10467918D02*
X9007325Y-10458394D01*
X9216849Y-10467918D02*
X9197801Y-10458394D01*
X9197801Y-10458394D02*
X9188277Y-10439346D01*
X9188277Y-10439346D02*
X9188277Y-10267918D01*
X9378754Y-10467918D02*
X9378754Y-10363156D01*
X9378754Y-10363156D02*
X9369230Y-10344108D01*
X9369230Y-10344108D02*
X9350182Y-10334584D01*
X9350182Y-10334584D02*
X9312087Y-10334584D01*
X9312087Y-10334584D02*
X9293039Y-10344108D01*
X9378754Y-10458394D02*
X9359706Y-10467918D01*
X9359706Y-10467918D02*
X9312087Y-10467918D01*
X9312087Y-10467918D02*
X9293039Y-10458394D01*
X9293039Y-10458394D02*
X9283515Y-10439346D01*
X9283515Y-10439346D02*
X9283515Y-10420299D01*
X9283515Y-10420299D02*
X9293039Y-10401251D01*
X9293039Y-10401251D02*
X9312087Y-10391727D01*
X9312087Y-10391727D02*
X9359706Y-10391727D01*
X9359706Y-10391727D02*
X9378754Y-10382204D01*
X9445420Y-10334584D02*
X9521611Y-10334584D01*
X9473992Y-10267918D02*
X9473992Y-10439346D01*
X9473992Y-10439346D02*
X9483515Y-10458394D01*
X9483515Y-10458394D02*
X9502563Y-10467918D01*
X9502563Y-10467918D02*
X9521611Y-10467918D01*
X9664468Y-10458394D02*
X9645420Y-10467918D01*
X9645420Y-10467918D02*
X9607325Y-10467918D01*
X9607325Y-10467918D02*
X9588277Y-10458394D01*
X9588277Y-10458394D02*
X9578754Y-10439346D01*
X9578754Y-10439346D02*
X9578754Y-10363156D01*
X9578754Y-10363156D02*
X9588277Y-10344108D01*
X9588277Y-10344108D02*
X9607325Y-10334584D01*
X9607325Y-10334584D02*
X9645420Y-10334584D01*
X9645420Y-10334584D02*
X9664468Y-10344108D01*
X9664468Y-10344108D02*
X9673992Y-10363156D01*
X9673992Y-10363156D02*
X9673992Y-10382204D01*
X9673992Y-10382204D02*
X9578754Y-10401251D01*
X9845420Y-10467918D02*
X9845420Y-10267918D01*
X9845420Y-10458394D02*
X9826373Y-10467918D01*
X9826373Y-10467918D02*
X9788277Y-10467918D01*
X9788277Y-10467918D02*
X9769230Y-10458394D01*
X9769230Y-10458394D02*
X9759706Y-10448870D01*
X9759706Y-10448870D02*
X9750182Y-10429823D01*
X9750182Y-10429823D02*
X9750182Y-10372680D01*
X9750182Y-10372680D02*
X9759706Y-10353632D01*
X9759706Y-10353632D02*
X9769230Y-10344108D01*
X9769230Y-10344108D02*
X9788277Y-10334584D01*
X9788277Y-10334584D02*
X9826373Y-10334584D01*
X9826373Y-10334584D02*
X9845420Y-10344108D01*
X9921611Y-10544108D02*
X9931135Y-10534584D01*
X9931135Y-10534584D02*
X9950182Y-10506013D01*
X9950182Y-10506013D02*
X9959706Y-10486965D01*
X9959706Y-10486965D02*
X9969230Y-10458394D01*
X9969230Y-10458394D02*
X9978754Y-10410775D01*
X9978754Y-10410775D02*
X9978754Y-10372680D01*
X9978754Y-10372680D02*
X9969230Y-10325061D01*
X9969230Y-10325061D02*
X9959706Y-10296489D01*
X9959706Y-10296489D02*
X9950182Y-10277442D01*
X9950182Y-10277442D02*
X9931135Y-10248870D01*
X9931135Y-10248870D02*
X9921611Y-10239346D01*
M02*
