M48
; DRILL file {KiCad 9.0.3} date 2025-08-11T22:09:38-0400
; FORMAT={-:-/ absolute / metric / decimal}
; #@! TF.CreationDate,2025-08-11T22:09:38-04:00
; #@! TF.GenerationSoftware,Kicad,Pcbnew,9.0.3
; #@! TF.FileFunction,Plated,1,2,PTH
FMAT,2
METRIC
; #@! TA.AperFunction,Plated,PTH,ViaDrill
T1C0.300
; #@! TA.AperFunction,Plated,PTH,ComponentDrill
T2C0.800
; #@! TA.AperFunction,Plated,PTH,ComponentDrill
T3C1.000
; #@! TA.AperFunction,Plated,PTH,ComponentDrill
T4C1.200
; #@! TA.AperFunction,Plated,PTH,ComponentDrill
T5C1.520
%
G90
G05
T1
X40.3Y-61.0
X40.4Y-63.4
X42.2Y-84.1
X43.3Y-87.0
X44.7Y-63.0
X44.8Y-86.8
X45.2Y-66.2
X45.7Y-84.1
X46.0Y-43.0
X46.0Y-50.4
X47.5Y-74.1
X48.9Y-74.5
X50.5Y-92.4
X51.2Y-90.9
X51.2Y-92.0
X52.2Y-70.3
X52.2Y-71.8
X52.4Y-74.3
X52.4Y-75.6
X52.8Y-48.3
X52.8Y-49.2
X53.1Y-55.6
X53.3Y-86.1
X53.5Y-92.3
X53.9Y-91.0
X56.3Y-90.6
X57.2Y-77.1
X57.5Y-72.5
X57.5Y-73.5
X57.5Y-74.5
X57.5Y-90.4
X58.1Y-94.5
X58.5Y-72.5
X58.5Y-73.5
X58.5Y-74.5
X58.9Y-94.9
X59.5Y-72.5
X59.5Y-73.5
X59.5Y-74.5
X59.8Y-53.6
X60.0Y-90.0
X60.0Y-94.4
X60.5Y-61.5
X60.5Y-72.5
X60.5Y-73.5
X60.5Y-74.5
X61.2Y-62.6
X61.2Y-83.349
X61.4Y-86.8
X61.5Y-72.5
X61.5Y-73.5
X61.5Y-74.5
X61.5Y-75.5
X62.1Y-83.349
X62.5Y-72.5
X62.5Y-73.5
X62.5Y-74.5
X62.5Y-75.5
X62.5Y-76.5
X63.4Y-61.3
X63.5Y-72.5
X63.5Y-73.5
X63.5Y-74.5
X63.5Y-75.5
X63.5Y-76.5
X63.6Y-53.6
X64.5Y-72.5
X64.5Y-73.5
X64.5Y-74.5
X64.5Y-75.5
X64.5Y-76.5
X64.5Y-81.9
X64.8Y-60.9
X65.5Y-72.5
X65.5Y-73.5
X65.5Y-74.5
X65.5Y-75.5
X65.5Y-76.5
X65.7Y-89.7
X66.5Y-72.5
X66.5Y-73.5
X66.5Y-74.5
X66.5Y-75.5
X66.5Y-76.5
X67.5Y-72.5
X67.5Y-73.5
X67.5Y-74.5
X67.5Y-75.5
X67.5Y-76.5
X68.0Y-59.0
X69.7Y-92.4
X70.7Y-68.9
X70.9Y-48.2
X70.9Y-49.1
X71.0Y-55.5
X72.1Y-77.8
X72.1Y-78.9
X72.4Y-70.4
X72.4Y-72.0
X74.8Y-92.1
X75.4Y-80.1
X75.5Y-82.6
X75.7Y-85.55
X76.1Y-91.8
X76.5Y-90.4
X76.6Y-47.8
X77.0Y-57.7
X77.8Y-42.9
X79.7Y-56.6
X81.2Y-60.2
X84.4Y-93.2
X84.8Y-92.2
X84.9Y-64.0
X84.9Y-94.1
X84.95Y-65.35
X87.0Y-76.6
X92.1Y-83.6
X93.5Y-82.7
X95.8Y-80.9
X95.95Y-80.15
X97.35Y-69.15
X98.0Y-77.4
X98.05Y-75.35
X98.2Y-64.0
T2
X59.9Y-51.6
X59.9Y-56.6
X59.9Y-59.2
X59.9Y-64.2
X64.0Y-51.6
X64.0Y-56.6
X64.0Y-59.2
X64.0Y-64.2
X74.9Y-73.682
X74.9Y-76.182
X87.7Y-54.4
X87.7Y-56.9
T3
X44.5Y-88.5
X44.5Y-91.0
X47.0Y-88.5
X47.0Y-91.0
X48.268Y-63.9
X49.5Y-88.5
X49.5Y-91.0
X53.268Y-63.9
X71.368Y-63.9
X76.368Y-63.9
T5
X37.8Y-57.02
X37.8Y-62.1
X37.8Y-67.18
X54.06Y-43.4
X59.14Y-43.4
X64.62Y-43.4
X69.7Y-43.4
X95.9Y-54.96
X95.9Y-60.04
T3
G00X87.7Y-46.9
M15
G01X87.7Y-44.9
M16
G05
G00X93.7Y-46.55
M15
G01X93.7Y-45.25
M16
G05
G00X93.95Y-41.4
M15
G01X95.45Y-41.4
M16
G05
G00X93.95Y-50.4
M15
G01X95.45Y-50.4
M16
G05
T4
G00X39.25Y-75.35
M15
G01X39.85Y-75.35
M16
G05
G00X39.25Y-81.05
M15
G01X39.85Y-81.05
M16
G05
G00X46.75Y-75.9
M15
G01X47.35Y-75.9
M16
G05
G00X46.75Y-80.5
M15
G01X47.35Y-80.5
M16
G05
G00X87.1Y-88.9
M15
G01X86.5Y-88.9
M16
G05
G00X87.1Y-93.5
M15
G01X86.5Y-93.5
M16
G05
G00X94.6Y-88.35
M15
G01X94.0Y-88.35
M16
G05
G00X94.6Y-94.05
M15
G01X94.0Y-94.05
M16
G05
M30
